<svg width="40" height="306" viewBox="0 0 40 306" fill="none" xmlns="http://www.w3.org/2000/svg">
<path d="M37.7731 178.632C37.5231 177.645 37.2169 176.732 36.8579 175.919C36.7048 176.201 36.664 176.569 36.5528 176.824C36.2477 177.502 35.9415 178.039 35.5957 178.631L37.7731 178.632Z" fill="#5B7D96"/>
<path d="M38.0275 178.829H35.252L35.4238 178.532C35.7619 177.955 36.0659 177.422 36.3732 176.744C36.4161 176.646 36.447 176.525 36.48 176.4C36.5285 176.216 36.5858 176.007 36.6838 175.826L36.8743 175.474L37.0384 175.84C37.3986 176.649 37.7092 177.572 37.9658 178.584L38.0275 178.829ZM35.9381 178.435H37.5197C37.3314 177.727 37.1144 177.064 36.8721 176.462C36.8688 176.474 36.8655 176.488 36.8611 176.502C36.8236 176.647 36.784 176.785 36.7333 176.902C36.4734 177.482 36.2146 177.954 35.9381 178.435Z" fill="#5B7D96"/>
<path d="M38.7732 178.632C38.4813 177.503 38.1619 176.442 37.7467 175.504C37.5804 175.158 37.2478 174.897 36.859 174.897C36.4702 174.897 36.1232 175.159 35.9713 175.504C35.7774 175.949 35.7213 176.317 35.6662 176.372C35.305 177.206 34.9161 177.918 34.5273 178.632L38.7732 178.632Z" fill="#5B7D96"/>
<path d="M39.0274 178.829H34.1943L34.354 178.538C34.7318 177.842 35.125 177.124 35.483 176.295L35.5237 176.234C35.5193 176.229 35.5347 176.168 35.559 176.086C35.603 175.926 35.6724 175.687 35.7892 175.425C35.9797 174.99 36.4114 174.699 36.8586 174.699C37.2959 174.699 37.7144 174.981 37.9248 175.418C38.2959 176.256 38.6164 177.231 38.9656 178.583L39.0274 178.829ZM34.8575 178.435H38.5165C38.1993 177.23 37.9008 176.342 37.5648 175.583C37.4217 175.287 37.143 175.092 36.8578 175.092C36.5637 175.092 36.2795 175.289 36.1507 175.583C36.0482 175.82 35.9844 176.037 35.9392 176.195C35.8995 176.333 35.8764 176.414 35.8368 176.472C35.5218 177.191 35.1868 177.827 34.8575 178.435Z" fill="#5B7D96"/>
<path d="M37.8568 162.654C37.8568 159.215 37.4957 155.845 36.8019 153.198H38.7719C39.4646 156.017 39.7983 159.294 39.7983 162.654C39.7983 168.136 38.9658 173.623 37.467 177.205C37.217 177.727 36.9395 178.152 36.705 178.632H34.4993C34.888 177.919 35.2756 177.213 35.6379 176.401C36.9968 173.292 37.8568 167.897 37.8568 162.654ZM34.5269 153.198H36.8019C32.6392 161.631 26.8118 163.855 21.5108 166.173C16.2106 168.618 8.57941 170.566 4.69444 178.632H2.50195C6.6646 169.111 15.572 166.625 20.7202 164.379C25.8958 162.048 30.6972 160.254 34.5272 153.198L34.5269 153.198Z" fill="#5B7D96"/>
<path d="M36.8284 178.829H34.1668L34.3694 178.458C34.7339 177.787 35.1127 177.096 35.4552 176.321C36.7942 173.263 37.6587 167.899 37.6587 162.656C37.6587 159.397 37.3338 156.264 36.7381 153.76C32.744 161.507 27.1994 163.916 22.2979 166.046L21.591 166.353C20.7419 166.746 19.84 167.122 18.8831 167.521C13.8296 169.628 8.10237 172.014 4.87368 178.719L4.81972 178.831H2.20215L2.32218 178.555C5.99572 170.155 13.2517 167.216 18.5505 165.068C19.2971 164.767 19.9986 164.481 20.6406 164.201L21.581 163.78C26.3151 161.668 30.7881 159.673 34.3528 153.105L34.4101 153.003H38.9271L38.9634 153.152C39.6396 155.896 39.9964 159.183 39.9964 162.656C39.9964 168.302 39.1187 173.77 37.6508 177.282C37.512 177.573 37.37 177.826 37.229 178.075C37.109 178.289 36.9923 178.499 36.8822 178.721L36.8284 178.829ZM34.8308 178.435H36.5828C36.6786 178.246 36.7799 178.065 36.8823 177.881C37.02 177.638 37.1587 177.393 37.2875 177.119C38.7334 173.662 39.6001 168.251 39.6001 162.653C39.6001 159.274 39.2587 156.075 38.6145 153.393H37.0552C37.6994 155.97 38.0529 159.244 38.0529 162.653C38.0529 167.946 37.1752 173.371 35.8164 176.477C35.5025 177.186 35.1623 177.821 34.8308 178.435ZM2.80607 178.435H4.57129C7.87722 171.679 13.8917 169.173 18.7307 167.157C19.6821 166.76 20.5829 166.384 21.4286 165.994L22.1411 165.685C27.2594 163.46 32.5531 161.161 36.4831 153.395H34.6441C31.0256 159.998 26.5173 162.01 21.7435 164.139L20.8031 164.559C20.1544 164.842 19.4486 165.128 18.6987 165.432C13.5231 167.526 6.45311 170.39 2.80607 178.435Z" fill="#5B7D96"/>
<path d="M36.8284 178.829H34.1668L34.3694 178.458C34.7339 177.787 35.1127 177.096 35.4552 176.321C36.7942 173.263 37.6587 167.899 37.6587 162.656C37.6587 159.397 37.3338 156.264 36.7381 153.76C32.744 161.507 27.1994 163.916 22.2979 166.046L21.591 166.353C20.7419 166.746 19.84 167.122 18.8831 167.521C13.8296 169.628 8.10237 172.014 4.87368 178.719L4.81972 178.831H2.20215L2.32218 178.555C5.99572 170.155 13.2517 167.216 18.5505 165.068C19.2971 164.767 19.9986 164.481 20.6406 164.201L21.581 163.78C26.3151 161.668 30.7881 159.673 34.3528 153.105L34.4101 153.003H38.9271L38.9634 153.152C39.6396 155.896 39.9964 159.183 39.9964 162.656C39.9964 168.302 39.1187 173.77 37.6508 177.282C37.512 177.573 37.37 177.826 37.229 178.075C37.109 178.289 36.9923 178.499 36.8822 178.721L36.8284 178.829ZM34.8308 178.435H36.5828C36.6786 178.246 36.7799 178.065 36.8823 177.881C37.02 177.638 37.1587 177.393 37.2875 177.119C38.7334 173.662 39.6001 168.251 39.6001 162.653C39.6001 159.274 39.2587 156.075 38.6145 153.393H37.0552C37.6994 155.97 38.0529 159.244 38.0529 162.653C38.0529 167.946 37.1752 173.371 35.8164 176.477C35.5025 177.186 35.1623 177.821 34.8308 178.435ZM2.80607 178.435H4.57129C7.87722 171.679 13.8917 169.173 18.7307 167.157C19.6821 166.76 20.5829 166.384 21.4286 165.994L22.1411 165.685C27.2594 163.46 32.5531 161.161 36.4831 153.395H34.6441C31.0256 159.998 26.5173 162.01 21.7435 164.139L20.8031 164.559C20.1544 164.842 19.4486 165.128 18.6987 165.432C13.5231 167.526 6.45311 170.39 2.80607 178.435Z" fill="#5B7D96"/>
<path d="M4.52716 178.633C4.61085 178.556 4.70666 178.491 4.77713 178.394C8.69086 170.526 16.2649 168.52 21.5109 166.188C26.7549 163.829 32.5693 161.512 36.6899 153.199H34.4974C30.6674 160.213 25.9224 161.992 20.7192 164.367C16.0711 166.464 8.38462 168.492 3.86085 175.978C3.66704 175.669 3.51397 175.329 3.38843 175.003C2.7222 173.152 2.36212 170.653 2.22336 168.215C2.19693 167.358 2.1694 166.539 2.1694 165.783C2.19803 160.373 3.15498 156.353 4.66694 153.197H2.50307C1.08803 156.454 0.199343 160.494 0.199343 165.621L0.198242 165.783C0.198242 166.595 0.2533 167.443 0.281934 168.298C0.392052 170.889 0.780775 173.516 1.55932 175.706C2.03174 176.78 2.53057 177.67 3.08559 178.489C3.14065 178.554 3.19571 178.588 3.25187 178.631H4.52706L4.52716 178.633Z" fill="#5B7D96"/>
<path d="M4.60521 178.829H3.18465L3.13289 178.788C3.0525 178.729 2.99524 178.687 2.93688 178.62C2.33563 177.735 1.83016 176.814 1.37869 175.789C0.653001 173.746 0.207029 171.163 0.0858937 168.31C0.075983 168.016 0.0638697 167.725 0.0506553 167.435C0.0253276 166.886 0 166.323 0 165.783V165.621C0 160.867 0.779642 156.66 2.31914 153.119L2.3709 153H4.97744L4.84309 153.282C3.20121 156.71 2.38962 160.801 2.36428 165.785C2.36428 166.504 2.38961 167.277 2.41604 168.097L2.41934 168.207C2.52836 170.112 2.81575 172.83 3.57341 174.934C3.66811 175.178 3.76392 175.395 3.86524 175.588C7.69975 169.468 13.7419 167.015 18.1709 165.219C19.053 164.86 19.8866 164.522 20.6365 164.184L21.6309 163.734C26.5347 161.52 30.7698 159.609 34.3232 153.103L34.3783 153.001H37.0057L36.8648 153.284C32.8851 161.311 27.2359 163.838 22.2541 166.067L21.5922 166.365C20.8126 166.711 19.9911 167.047 19.1266 167.4C14.2835 169.378 8.25573 171.84 4.95516 178.479C4.87807 178.594 4.80209 178.657 4.73382 178.711C4.70959 178.732 4.68646 178.752 4.66224 178.774L4.60521 178.829ZM3.31571 178.435H4.45213C4.46204 178.427 4.46975 178.419 4.47856 178.413C4.53362 178.366 4.58097 178.326 4.61401 178.279C7.96617 171.533 14.0689 169.041 18.9738 167.036C19.8394 166.681 20.6553 166.349 21.4284 166.005L22.0935 165.708C27.1944 163.426 32.4669 161.067 36.3696 153.393H34.6143C31.009 159.932 26.5314 161.953 21.7951 164.09L20.8007 164.54C20.0442 164.882 19.2062 165.222 18.3208 165.582C13.6276 167.487 7.78677 169.858 4.0295 176.075L3.86322 176.351L3.69254 176.079C3.51524 175.797 3.35667 175.466 3.20359 175.07C2.42835 172.918 2.13432 170.16 2.02421 168.223L2.0209 168.108C1.99558 167.287 1.97025 166.51 1.97025 165.783C1.99558 160.873 2.77523 156.815 4.35434 153.393L2.63205 153.394C1.14764 156.862 0.395512 160.974 0.395512 165.621V165.782C0.395512 166.312 0.419738 166.848 0.442864 167.414C0.454977 167.705 0.469293 167.998 0.478102 168.291C0.598133 171.106 1.03642 173.648 1.74229 175.642C2.18387 176.647 2.66398 177.52 3.24651 178.379C3.26083 178.393 3.28616 178.412 3.31589 178.435L3.31571 178.435Z" fill="#5B7D96"/>
<path d="M4.60521 178.829H3.18465L3.13289 178.788C3.0525 178.729 2.99524 178.687 2.93688 178.62C2.33563 177.735 1.83016 176.814 1.37869 175.789C0.653001 173.746 0.207029 171.163 0.0858937 168.31C0.075983 168.016 0.0638697 167.725 0.0506553 167.435C0.0253276 166.886 0 166.323 0 165.783V165.621C0 160.867 0.779642 156.66 2.31914 153.119L2.3709 153H4.97744L4.84309 153.282C3.20121 156.71 2.38962 160.801 2.36428 165.785C2.36428 166.504 2.38961 167.277 2.41604 168.097L2.41934 168.207C2.52836 170.112 2.81575 172.83 3.57341 174.934C3.66811 175.178 3.76392 175.395 3.86524 175.588C7.69975 169.468 13.7419 167.015 18.1709 165.219C19.053 164.86 19.8866 164.522 20.6365 164.184L21.6309 163.734C26.5347 161.52 30.7698 159.609 34.3232 153.103L34.3783 153.001H37.0057L36.8648 153.284C32.8851 161.311 27.2359 163.838 22.2541 166.067L21.5922 166.365C20.8126 166.711 19.9911 167.047 19.1266 167.4C14.2835 169.378 8.25573 171.84 4.95516 178.479C4.87807 178.594 4.80209 178.657 4.73382 178.711C4.70959 178.732 4.68646 178.752 4.66224 178.774L4.60521 178.829ZM3.31571 178.435H4.45213C4.46204 178.427 4.46975 178.419 4.47856 178.413C4.53362 178.366 4.58097 178.326 4.61401 178.279C7.96617 171.533 14.0689 169.041 18.9738 167.036C19.8394 166.681 20.6553 166.349 21.4284 166.005L22.0935 165.708C27.1944 163.426 32.4669 161.067 36.3696 153.393H34.6143C31.009 159.932 26.5314 161.953 21.7951 164.09L20.8007 164.54C20.0442 164.882 19.2062 165.222 18.3208 165.582C13.6276 167.487 7.78677 169.858 4.0295 176.075L3.86322 176.351L3.69254 176.079C3.51524 175.797 3.35667 175.466 3.20359 175.07C2.42835 172.918 2.13432 170.16 2.02421 168.223L2.0209 168.108C1.99558 167.287 1.97025 166.51 1.97025 165.783C1.99558 160.873 2.77523 156.815 4.35434 153.393L2.63205 153.394C1.14764 156.862 0.395512 160.974 0.395512 165.621V165.782C0.395512 166.312 0.419738 166.848 0.442864 167.414C0.454977 167.705 0.469293 167.998 0.478102 168.291C0.598133 171.106 1.03642 173.648 1.74229 175.642C2.18387 176.647 2.66398 177.52 3.24651 178.379C3.26083 178.393 3.28616 178.412 3.31589 178.435L3.31571 178.435Z" fill="#5B7D96"/>
<path d="M37.7731 204.064C37.5231 203.074 37.2169 202.164 36.8579 201.351C36.7048 201.635 36.664 202.001 36.5528 202.256C36.2477 202.934 35.9415 203.471 35.5957 204.063L37.7731 204.064Z" fill="#5B7D96"/>
<path d="M38.0275 204.261H35.252L35.4238 203.964C35.763 203.384 36.0692 202.849 36.3732 202.175C36.4161 202.077 36.447 201.956 36.48 201.831C36.5285 201.647 36.5858 201.439 36.6838 201.257L36.8743 200.903L37.0384 201.269C37.3986 202.079 37.7114 203.003 37.9658 204.015L38.0275 204.261ZM35.9381 203.868H37.5197C37.3314 203.16 37.1144 202.497 36.8721 201.895C36.8688 201.907 36.8655 201.921 36.8611 201.935C36.8236 202.08 36.784 202.218 36.7333 202.335C36.4756 202.911 36.2146 203.385 35.9381 203.868Z" fill="#5B7D96"/>
<path d="M3.91543 203.758L3.72602 203.476C3.14019 202.605 2.68539 201.786 2.29447 200.896C1.42673 198.48 1.14372 195.657 1.05672 193.712C0.747275 187.649 1.51592 182.689 3.40558 178.549L3.76565 178.712C1.90241 182.792 1.14699 187.693 1.45314 193.693C1.57427 196.444 1.99274 198.885 2.66227 200.75C2.99703 201.509 3.38576 202.227 3.8703 202.974C7.44602 196.091 13.6158 193.581 18.5879 191.559C19.4589 191.203 20.2848 190.869 21.0446 190.528L21.8639 190.158C26.6904 187.988 31.6799 185.74 35.422 178.538L35.7743 178.719C31.9686 186.041 26.9151 188.316 22.0268 190.517L21.2076 190.887C20.44 191.231 19.613 191.566 18.7387 191.922C13.7545 193.95 7.55371 196.473 4.06961 203.453L3.91543 203.758Z" fill="#5B7D96"/>
<path d="M38.7732 204.064C38.4813 202.935 38.1619 201.874 37.7467 200.935C37.5804 200.59 37.2478 200.329 36.859 200.329C36.4702 200.329 36.1232 200.59 35.9713 200.935C35.7774 201.381 35.7213 201.748 35.6662 201.804C35.305 202.638 34.9161 203.35 34.5273 204.064L38.7732 204.064Z" fill="#5B7D96"/>
<path d="M39.0274 204.261H34.1943L34.3518 203.97C34.7318 203.273 35.125 202.551 35.4819 201.724L35.5226 201.663C35.5182 201.656 35.5336 201.597 35.5579 201.515C35.6019 201.356 35.6713 201.116 35.788 200.854C35.9786 200.42 36.4081 200.129 36.8575 200.129C37.2948 200.129 37.7133 200.412 37.9236 200.848C38.2948 201.683 38.6153 202.658 38.9645 204.013L39.0274 204.261ZM34.8575 203.868H38.5165C38.1993 202.661 37.9008 201.774 37.5648 201.016C37.4228 200.719 37.143 200.525 36.8578 200.525C36.5626 200.525 36.2795 200.722 36.1507 201.016C36.0482 201.253 35.9844 201.47 35.9392 201.628C35.8995 201.765 35.8764 201.846 35.8368 201.905C35.524 202.622 35.1868 203.259 34.8575 203.868Z" fill="#5B7D96"/>
<path d="M37.8568 188.09C37.8568 184.65 37.4957 181.281 36.8019 178.631H38.7719C39.4646 181.451 39.7983 184.727 39.7983 188.09C39.7983 193.572 38.9658 199.059 37.467 202.64C37.217 203.163 36.9395 203.587 36.705 204.066H34.4993C34.888 203.352 35.2756 202.647 35.6379 201.834C36.9968 198.727 37.8568 193.33 37.8568 188.09ZM34.5269 178.634H36.802C32.6394 187.068 26.8118 189.293 21.5108 191.61C16.2106 194.052 8.57941 196.003 4.69444 204.069H2.50195C6.6646 194.547 15.572 192.062 20.7202 189.816C25.8958 187.484 30.6972 185.689 34.5272 178.634L34.5269 178.634Z" fill="#5B7D96"/>
<path d="M36.828 204.261H34.1664L34.3801 203.87C34.7412 203.206 35.1157 202.52 35.457 201.751C36.7961 198.695 37.6605 193.329 37.6605 188.086C37.6605 184.826 37.3357 181.693 36.7399 179.19C32.7459 186.937 27.2013 189.346 22.2998 191.476L21.5928 191.783C20.7449 192.175 19.8419 192.551 18.8871 192.948C13.8337 195.053 8.1053 197.44 4.87661 204.146L4.82264 204.258H2.20508L2.32511 203.983C5.99865 195.582 13.2555 192.641 18.5534 190.493C19.2989 190.193 20.0015 189.906 20.6435 189.626L21.5861 189.205C26.3202 187.094 30.7932 185.101 34.3557 178.532L34.413 178.429H38.93L38.9663 178.579C39.6424 181.322 39.9993 184.609 39.9993 188.085C39.9993 193.733 39.1216 199.199 37.6537 202.71C37.515 203.001 37.3729 203.254 37.2319 203.503C37.1119 203.717 36.9952 203.927 36.8851 204.149L36.828 204.261ZM34.8305 203.868H36.5825C36.6783 203.679 36.7818 203.498 36.8842 203.314C37.0196 203.071 37.1584 202.827 37.2883 202.552C38.7342 199.095 39.6008 193.685 39.6008 188.087C39.6008 184.708 39.2595 181.509 38.6153 178.825H37.056C37.7002 181.402 38.0537 184.677 38.0537 188.087C38.0537 193.38 37.176 198.806 35.8171 201.91C35.5022 202.62 35.1619 203.256 34.8305 203.868ZM2.80574 203.868H4.57096C7.87774 197.111 13.8925 194.605 18.7334 192.588C19.6849 192.192 20.5824 191.817 21.4303 191.427L22.1405 191.117C27.26 188.893 32.5537 186.593 36.4849 178.827H34.6459C31.0273 185.43 26.519 187.441 21.7463 189.57L20.8037 189.991C20.1551 190.274 19.4492 190.561 18.6993 190.865C13.5226 192.961 6.45306 195.824 2.80574 203.868Z" fill="#5B7D96"/>
<path d="M4.52716 204.064C4.61085 203.987 4.70666 203.923 4.77713 203.824C8.69086 195.957 16.2649 193.95 21.5109 191.619C26.7549 189.259 32.5693 186.942 36.6899 178.63H34.4974C30.6674 185.643 25.9224 187.422 20.7192 189.797C16.0711 191.894 8.38462 193.922 3.86085 201.409C3.66704 201.097 3.51397 200.759 3.38843 200.433C2.7222 198.583 2.36212 196.082 2.22336 193.646C2.19473 192.792 2.1683 191.972 2.1683 191.217C2.19693 185.807 3.15388 181.787 4.66583 178.631H2.50196C1.08693 181.888 0.198242 185.928 0.198242 191.055V191.218C0.198242 192.03 0.253309 192.877 0.281942 193.732C0.392061 196.326 0.780775 198.953 1.55932 201.141C2.03174 202.215 2.53057 203.104 3.08559 203.924C3.14065 203.989 3.19571 204.023 3.25187 204.066L4.52706 204.067L4.52716 204.064Z" fill="#5B7D96"/>
<path d="M4.60497 204.261H3.18441L3.13265 204.221C3.05226 204.161 2.995 204.12 2.93664 204.053C2.32546 203.153 1.83432 202.257 1.37845 201.219C0.653859 199.177 0.208988 196.596 0.0856531 193.74C0.0757423 193.446 0.063629 193.156 0.0504146 192.867C0.026188 192.321 0.00195312 191.754 0.00195312 191.216V191.053C0.00195312 186.299 0.781604 182.091 2.3211 178.55L2.37286 178.431H4.9794L4.84506 178.713C3.20317 182.141 2.39159 186.232 2.36624 191.216C2.36624 191.935 2.39157 192.707 2.418 193.527L2.4213 193.639C2.53032 195.544 2.81771 198.263 3.57537 200.366C3.66897 200.609 3.76588 200.826 3.86721 201.02C7.70171 194.899 13.7438 192.447 18.1718 190.651C19.0538 190.292 19.8874 189.954 20.6374 189.616L21.634 189.165C26.5377 186.951 30.7717 185.04 34.3254 178.534L34.3805 178.432H37.008L36.867 178.715C32.8873 186.742 27.2382 189.269 22.2563 191.498L21.5912 191.795C20.8115 192.141 19.99 192.477 19.1256 192.83C14.2824 194.808 8.25465 197.271 4.95407 203.909C4.87699 204.024 4.79991 204.088 4.73273 204.144L4.60497 204.261ZM3.31547 203.868H4.45189C4.4596 203.862 4.46951 203.854 4.47832 203.846C4.53338 203.799 4.58073 203.76 4.61377 203.712C7.96706 196.964 14.0698 194.472 18.9744 192.469C19.84 192.115 20.656 191.782 21.429 191.439L22.0941 191.141C27.195 188.86 32.4675 186.5 36.3702 178.826H34.6149C31.0096 185.366 26.5332 187.386 21.798 189.524L20.8014 189.975C20.0448 190.316 19.2068 190.656 18.3214 191.016C13.6282 192.921 7.7874 195.293 4.03126 201.51L3.86499 201.785L3.6943 201.513C3.51701 201.23 3.35843 200.9 3.20536 200.505C2.43011 198.353 2.13608 195.593 2.02597 193.658L2.02267 193.542C1.99624 192.721 1.97091 191.943 1.97091 191.216C1.99624 186.306 2.7759 182.248 4.355 178.826L2.63161 178.828C1.1472 182.296 0.395074 186.408 0.395074 191.056V191.219C0.395074 191.749 0.419299 192.285 0.443526 192.852C0.45564 193.142 0.468854 193.434 0.478765 193.727C0.598796 196.542 1.03708 199.083 1.74295 201.077C2.18453 202.081 2.66355 202.954 3.24719 203.816C3.2604 203.827 3.28574 203.846 3.31547 203.868Z" fill="#5B7D96"/>
<path d="M4.60497 204.261H3.18441L3.13265 204.221C3.05226 204.161 2.995 204.12 2.93664 204.053C2.32546 203.153 1.83432 202.257 1.37845 201.219C0.653859 199.177 0.208988 196.596 0.0856531 193.74C0.0757423 193.446 0.063629 193.156 0.0504146 192.867C0.026188 192.321 0.00195312 191.754 0.00195312 191.216V191.053C0.00195312 186.299 0.781604 182.091 2.3211 178.55L2.37286 178.431H4.9794L4.84506 178.713C3.20317 182.141 2.39159 186.232 2.36624 191.216C2.36624 191.935 2.39157 192.707 2.418 193.527L2.4213 193.639C2.53032 195.544 2.81771 198.263 3.57537 200.366C3.66897 200.609 3.76588 200.826 3.86721 201.02C7.70171 194.899 13.7438 192.447 18.1718 190.651C19.0538 190.292 19.8874 189.954 20.6374 189.616L21.634 189.165C26.5377 186.951 30.7717 185.04 34.3254 178.534L34.3805 178.432H37.008L36.867 178.715C32.8873 186.742 27.2382 189.269 22.2563 191.498L21.5912 191.795C20.8115 192.141 19.99 192.477 19.1256 192.83C14.2824 194.808 8.25465 197.271 4.95407 203.909C4.87699 204.024 4.79991 204.088 4.73273 204.144L4.60497 204.261ZM3.31547 203.868H4.45189C4.4596 203.862 4.46951 203.854 4.47832 203.846C4.53338 203.799 4.58073 203.76 4.61377 203.712C7.96706 196.964 14.0698 194.472 18.9744 192.469C19.84 192.115 20.656 191.782 21.429 191.439L22.0941 191.141C27.195 188.86 32.4675 186.5 36.3702 178.826H34.6149C31.0096 185.366 26.5332 187.386 21.798 189.524L20.8014 189.975C20.0448 190.316 19.2068 190.656 18.3214 191.016C13.6282 192.921 7.7874 195.293 4.03126 201.51L3.86499 201.785L3.6943 201.513C3.51701 201.23 3.35843 200.9 3.20536 200.505C2.43011 198.353 2.13608 195.593 2.02597 193.658L2.02267 193.542C1.99624 192.721 1.97091 191.943 1.97091 191.216C1.99624 186.306 2.7759 182.248 4.355 178.826L2.63161 178.828C1.1472 182.296 0.395074 186.408 0.395074 191.056V191.219C0.395074 191.749 0.419299 192.285 0.443526 192.852C0.45564 193.142 0.468854 193.434 0.478765 193.727C0.598796 196.542 1.03708 199.083 1.74295 201.077C2.18453 202.081 2.66355 202.954 3.24719 203.816C3.2604 203.827 3.28574 203.846 3.31547 203.868Z" fill="#5B7D96"/>
<path d="M37.7731 229.5C37.5231 228.513 37.2169 227.6 36.8579 226.788C36.7048 227.071 36.664 227.437 36.5528 227.692C36.2477 228.37 35.9415 228.907 35.5957 229.499L37.7731 229.5Z" fill="#5B7D96"/>
<path d="M38.0275 229.697H35.252L35.4238 229.401C35.763 228.823 36.0659 228.29 36.3732 227.611C36.4161 227.513 36.447 227.392 36.48 227.267C36.5285 227.083 36.5858 226.876 36.6838 226.693L36.8743 226.339L37.0384 226.705C37.3986 227.515 37.7114 228.439 37.9658 229.449L38.0275 229.697ZM35.9381 229.304H37.5197C37.3314 228.596 37.1144 227.936 36.8721 227.331C36.8688 227.345 36.8655 227.357 36.8611 227.372C36.8236 227.516 36.784 227.655 36.7333 227.771C36.4734 228.35 36.2146 228.825 35.9381 229.304Z" fill="#5B7D96"/>
<path d="M3.91543 229.191L3.72602 228.909C3.13909 228.038 2.68429 227.216 2.29447 226.329C1.42673 223.913 1.14372 221.09 1.05672 219.146C0.747275 213.082 1.51592 208.122 3.40558 203.982L3.76566 204.146C1.90241 208.225 1.14699 213.126 1.45314 219.127C1.57427 221.878 1.99274 224.316 2.66227 226.183C2.99483 226.941 3.38576 227.659 3.8703 228.408C7.44602 221.525 13.617 219.013 18.5901 216.99C19.4634 216.635 20.286 216.301 21.0469 215.96L21.8673 215.591C26.6938 213.42 31.6822 211.172 35.4231 203.972L35.7755 204.153C31.9709 211.475 26.9174 213.75 22.0302 215.95L21.2098 216.319C20.4423 216.663 19.6153 216.999 18.742 217.354C13.7579 219.382 7.55594 221.905 4.07297 228.886L3.91543 229.191Z" fill="#5B7D96"/>
<path d="M38.7732 229.5C38.4813 228.371 38.1619 227.31 37.7467 226.372C37.5804 226.026 37.2478 225.765 36.859 225.765C36.4702 225.765 36.1232 226.026 35.9713 226.372C35.7774 226.817 35.7213 227.184 35.6662 227.24C35.305 228.074 34.9161 228.786 34.5273 229.5L38.7732 229.5Z" fill="#5B7D96"/>
<path d="M39.0274 229.697H34.1943L34.3518 229.406C34.7351 228.703 35.1272 227.984 35.4819 227.163L35.5215 227.104C35.5182 227.097 35.5336 227.036 35.5568 226.955C35.603 226.795 35.6724 226.556 35.7869 226.294C35.9797 225.858 36.4092 225.567 36.8575 225.567C37.2948 225.567 37.7133 225.851 37.9236 226.286C38.2948 227.124 38.6153 228.099 38.9645 229.451L39.0274 229.697ZM34.8575 229.304H38.5165C38.1993 228.099 37.9008 227.211 37.5648 226.452C37.4228 226.156 37.143 225.961 36.8578 225.961C36.5626 225.961 36.2795 226.158 36.1507 226.452C36.0482 226.691 35.9844 226.906 35.937 227.064C35.8995 227.202 35.8753 227.283 35.8379 227.341C35.524 228.059 35.1868 228.694 34.8575 229.304Z" fill="#5B7D96"/>
<path d="M37.8568 213.523C37.8568 210.083 37.4957 206.714 36.8019 204.067H38.7719C39.4646 206.885 39.7983 210.163 39.7983 213.523C39.7983 219.005 38.9658 224.492 37.467 228.074C37.217 228.596 36.9395 229.021 36.705 229.501H34.4993C34.888 228.786 35.2756 228.082 35.6379 227.27C36.9968 224.161 37.8568 218.764 37.8568 213.523ZM34.5269 204.065H36.802C32.6394 212.497 26.8118 214.722 21.5108 217.039C16.2106 219.482 8.57941 221.433 4.69444 229.499H2.50195C6.6646 219.977 15.572 217.492 20.7202 215.245C25.8958 212.914 30.6972 211.121 34.5272 204.065L34.5269 204.065Z" fill="#5B7D96"/>
<path d="M36.828 229.697H34.1664L34.3801 229.305C34.7412 228.641 35.1157 227.956 35.457 227.187C36.7961 224.129 37.6605 218.765 37.6605 213.522C37.6605 210.263 37.3357 207.13 36.7399 204.627C32.7459 212.373 27.2013 214.782 22.2998 216.912L21.5928 217.219C20.7449 217.611 19.8419 217.987 18.8871 218.385C13.8337 220.49 8.1053 222.876 4.87661 229.583L4.82264 229.695H2.20508L2.32511 229.419C5.99865 221.016 13.2578 218.077 18.5568 215.93C19.3001 215.629 20.0027 215.345 20.6436 215.063L21.5873 214.641C26.3214 212.53 30.7921 210.535 34.3557 203.968L34.413 203.866H38.93L38.9664 204.015C39.6425 206.759 39.9993 210.045 39.9993 213.519C39.9993 219.165 39.1216 224.633 37.6537 228.145C37.515 228.436 37.3729 228.689 37.232 228.938C37.1119 229.152 36.9952 229.362 36.8851 229.584L36.828 229.697ZM34.8305 229.304H36.5825C36.6783 229.116 36.7796 228.934 36.882 228.75C37.0196 228.508 37.1584 228.263 37.2872 227.988C38.7331 224.531 39.5997 219.12 39.5997 213.522C39.5997 210.143 39.2584 206.944 38.6142 204.262H37.0549C37.6991 206.839 38.0526 210.114 38.0526 213.522C38.0526 218.815 37.1749 224.241 35.816 227.347C35.5022 228.057 35.1619 228.692 34.8305 229.304ZM2.80574 229.304H4.57096C7.87774 222.547 13.8925 220.041 18.7334 218.024C19.6849 217.628 20.5824 217.254 21.4303 216.863L22.1427 216.553C27.2611 214.329 32.5547 212.03 36.4848 204.263H34.6458C31.0272 210.864 26.5201 212.876 21.7474 215.004L20.8037 215.427C20.155 215.711 19.4503 215.996 18.7026 216.299C13.5236 218.395 6.45306 221.259 2.80574 229.304Z" fill="#5B7D96"/>
<path d="M4.52716 229.5C4.61085 229.423 4.70666 229.359 4.77713 229.26C8.69086 221.392 16.2649 219.386 21.5109 217.054C26.7549 214.695 32.5693 212.378 36.6899 204.066H34.4974C30.6674 211.079 25.9224 212.858 20.7192 215.233C16.0711 217.33 8.38462 219.358 3.86085 226.845C3.66704 226.533 3.51397 226.195 3.38843 225.869C2.7222 224.019 2.36212 221.518 2.22336 219.082C2.19473 218.228 2.1683 217.408 2.1683 216.653C2.19693 211.243 3.15388 207.224 4.66583 204.067H2.50196C1.08693 207.322 0.198242 211.363 0.198242 216.491V216.653C0.198242 217.466 0.253309 218.312 0.281942 219.167C0.392061 221.76 0.780775 224.388 1.55932 226.577C2.03174 227.65 2.53057 228.54 3.08559 229.36C3.14065 229.425 3.19571 229.459 3.25187 229.502L4.52706 229.503L4.52716 229.5Z" fill="#5B7D96"/>
<path d="M4.60497 229.697H3.18441L3.13265 229.656C3.05226 229.597 2.995 229.555 2.93664 229.488C2.33539 228.603 1.82992 227.682 1.37845 226.657C0.65276 224.614 0.206789 222.031 0.0856531 219.176C0.0757423 218.882 0.063629 218.592 0.0504146 218.302C0.026188 217.757 0.00195312 217.192 0.00195312 216.652V216.489C0.00195312 211.735 0.781603 207.528 2.3211 203.986L2.37286 203.868H4.9794L4.84506 204.15C3.20317 207.578 2.39159 211.667 2.36624 216.653C2.36624 217.374 2.39157 218.148 2.418 218.968L2.4213 219.075C2.53032 220.98 2.81771 223.698 3.57537 225.802C3.66897 226.044 3.76588 226.262 3.86721 226.456C7.70171 220.336 13.7438 217.883 18.1729 216.087C19.055 215.728 19.8885 215.39 20.6385 215.052L21.6328 214.602C26.5366 212.388 30.7717 210.476 34.3252 203.971L34.3802 203.869H37.0077L36.8668 204.152C32.8871 212.179 27.2402 214.706 22.2572 216.935L21.5909 217.232C20.8113 217.578 19.9898 217.915 19.122 218.269C14.28 220.247 8.25309 222.71 4.95167 229.347C4.87459 229.462 4.79751 229.526 4.73033 229.582L4.60497 229.697ZM3.31547 229.304H4.45189C4.4596 229.296 4.46951 229.29 4.47832 229.282C4.53338 229.235 4.58073 229.195 4.61377 229.148C7.96593 222.402 14.0687 219.91 18.9724 217.907C19.838 217.553 20.6551 217.22 21.4292 216.876L22.0955 216.577C27.1952 214.296 32.4677 211.936 36.3704 204.263H34.6151C31.0098 210.802 26.5322 212.823 21.7959 214.961L20.8015 215.411C20.045 215.752 19.207 216.092 18.3216 216.452C13.6284 218.357 7.78757 220.729 4.0303 226.946L3.86402 227.221L3.69334 226.949C3.51604 226.666 3.35747 226.337 3.20439 225.94C2.42915 223.788 2.13512 221.028 2.02501 219.094L2.0217 218.982C1.99527 218.157 1.96995 217.381 1.96995 216.653C1.99527 211.743 2.77493 207.687 4.35404 204.263L2.63175 204.264C1.14734 207.73 0.395211 211.843 0.395211 216.491V216.654C0.395211 217.184 0.419436 217.72 0.443664 218.287C0.455777 218.576 0.468992 218.868 0.478902 219.161C0.598933 221.976 1.03722 224.518 1.74309 226.512C2.18467 227.517 2.66479 228.391 3.24732 229.249C3.26054 229.263 3.28574 229.28 3.31547 229.304Z" fill="#5B7D96"/>
<path d="M37.7731 254.934C37.5231 253.944 37.2169 253.033 36.8579 252.22C36.7048 252.503 36.664 252.869 36.5528 253.124C36.2477 253.802 35.9415 254.337 35.5957 254.931L37.7732 254.933L37.7731 254.934Z" fill="#5B7D96"/>
<path d="M38.0264 255.13H35.252L35.4227 254.834C35.7641 254.25 36.0681 253.713 36.3721 253.044C36.415 252.945 36.4459 252.823 36.4789 252.699C36.5274 252.517 36.5835 252.308 36.6827 252.125L36.8732 251.771L37.0373 252.137C37.3975 252.949 37.7103 253.872 37.9647 254.883L38.0264 255.13ZM35.937 254.737H37.5186C37.3303 254.029 37.1133 253.369 36.871 252.763C36.8677 252.777 36.8644 252.792 36.86 252.804C36.8225 252.948 36.7829 253.087 36.7322 253.203C36.4756 253.779 36.2157 254.252 35.937 254.737Z" fill="#5B7D96"/>
<path d="M38.7732 254.934C38.4813 253.803 38.1619 252.743 37.7467 251.805C37.5804 251.459 37.2478 251.198 36.859 251.198C36.4702 251.198 36.1232 251.459 35.9713 251.805C35.7774 252.251 35.7213 252.618 35.6662 252.675C35.305 253.507 34.9161 254.221 34.5273 254.936H38.7733L38.7732 254.934Z" fill="#5B7D96"/>
<path d="M39.0274 255.13H34.1943L34.3518 254.84C34.7384 254.128 35.1283 253.413 35.4819 252.594L35.5215 252.536C35.5182 252.528 35.5336 252.468 35.5568 252.387C35.603 252.227 35.6724 251.987 35.7869 251.724C35.9775 251.289 36.407 250.999 36.8564 250.999C37.2937 250.999 37.7122 251.282 37.9225 251.717C38.2948 252.556 38.6142 253.53 38.9634 254.882L39.0274 255.13ZM34.8575 254.737H38.5165C38.1993 253.534 37.9019 252.647 37.5648 251.885C37.4228 251.589 37.143 251.395 36.8578 251.395C36.5626 251.395 36.2795 251.591 36.1507 251.885C36.0482 252.122 35.9844 252.34 35.9392 252.498C35.8995 252.636 35.8764 252.718 35.8379 252.776C35.524 253.492 35.1868 254.127 34.8575 254.737Z" fill="#5B7D96"/>
<path d="M37.8568 238.959C37.8568 235.519 37.4957 232.15 36.8019 229.5H38.7719C39.4646 232.319 39.7983 235.595 39.7983 238.959C39.7983 244.439 38.9658 249.928 37.467 253.509C37.217 254.031 36.9395 254.456 36.705 254.935H34.4993C34.888 254.221 35.2756 253.516 35.6379 252.703C36.9968 249.594 37.8568 244.199 37.8568 238.959ZM34.5269 229.5H36.8019C32.6392 237.933 26.8118 240.158 21.5108 242.475C16.2106 244.92 8.57941 246.87 4.69444 254.936H2.50195C6.6646 245.414 15.572 242.927 20.7202 240.68C25.8958 238.35 30.6972 236.557 34.5272 229.501L34.5269 229.5Z" fill="#5B7D96"/>
<path d="M36.8284 255.131H34.1668L34.3892 254.721C34.7493 254.064 35.1182 253.381 35.4563 252.621C36.7954 249.562 37.6598 244.198 37.6598 238.956C37.6598 235.696 37.335 232.563 36.7392 230.06C32.7451 237.807 27.2006 240.215 22.299 242.345L21.5921 242.653C20.7442 243.044 19.8412 243.421 18.8842 243.818C13.8307 245.925 8.1035 248.311 4.87368 255.016L4.81972 255.128H2.20215L2.32218 254.853C5.99572 246.45 13.2526 243.51 18.5527 241.363C19.296 241.062 20.0008 240.776 20.6417 240.496L21.5855 240.072C26.3195 237.961 30.7903 235.968 34.3539 229.401L34.4112 229.299H38.9282L38.9645 229.448C39.6406 232.192 39.9975 235.479 39.9975 238.954C39.9975 244.601 39.1198 250.068 37.6519 253.58C37.5131 253.871 37.3711 254.124 37.2323 254.371C37.1123 254.585 36.9945 254.796 36.8833 255.017L36.8284 255.131ZM34.8308 254.738H36.5828C36.6808 254.549 36.7821 254.367 36.8845 254.181C37.02 253.941 37.1587 253.694 37.2887 253.423C38.7346 249.966 39.6012 244.555 39.6012 238.958C39.6012 235.579 39.2598 232.379 38.6156 229.696H37.0563C37.7005 232.272 38.054 235.548 38.054 238.958C38.054 244.249 37.1764 249.675 35.8175 252.781C35.5025 253.49 35.1623 254.125 34.8308 254.738ZM2.8061 254.738H4.57132C7.87809 247.981 13.8929 245.474 18.7315 243.457C19.683 243.061 20.5816 242.687 21.4284 242.296L22.1408 241.987C27.2592 239.763 32.5528 237.465 36.4829 229.697H34.6439C31.0253 236.298 26.5182 238.31 21.7455 240.437L20.8018 240.861C20.1531 241.144 19.4473 241.429 18.7007 241.732C13.5229 243.827 6.45342 246.692 2.8061 254.738Z" fill="#5B7D96"/>
<path d="M4.52729 254.934C4.61098 254.855 4.70678 254.792 4.77726 254.693C8.69098 246.826 16.265 244.82 21.511 242.488C26.7551 240.13 32.5694 237.812 36.69 229.499H34.4976C30.6676 236.513 25.9225 238.294 20.7193 240.666C16.0712 242.765 8.38474 244.792 3.86097 252.278C3.66716 251.969 3.51409 251.628 3.38856 251.305C2.72232 249.453 2.36224 246.954 2.22349 244.517C2.19485 243.661 2.16843 242.844 2.16843 242.086C2.19706 236.677 3.154 232.658 4.66596 229.5H2.50209C1.08705 232.755 0.198367 236.797 0.198367 241.924L0.197266 242.085C0.197266 242.899 0.252332 243.747 0.280966 244.601C0.391084 247.192 0.779798 249.819 1.55834 252.009C2.03076 253.084 2.5296 253.973 3.08462 254.794C3.13968 254.856 3.19474 254.891 3.2509 254.935L4.52718 254.936L4.52729 254.934Z" fill="#5B7D96"/>
<path d="M4.60631 255.13H3.18355L3.12959 255.09C3.047 255.028 2.99414 254.989 2.93578 254.923C2.3235 254.022 1.83237 253.126 1.37649 252.088C0.651906 250.046 0.207026 247.466 0.0836914 244.609C0.0737806 244.316 0.0616673 244.025 0.0484529 243.738C0.0242266 243.19 0 242.625 0 242.086V241.924C0 237.17 0.779642 232.963 2.31914 229.421L2.3709 229.302H4.97744L4.84309 229.584C3.20121 233.013 2.38962 237.102 2.36428 242.087C2.36428 242.805 2.38961 243.578 2.41604 244.397L2.41934 244.511C2.52836 246.416 2.81576 249.133 3.57342 251.238C3.66812 251.48 3.76392 251.699 3.86524 251.892C7.69975 245.771 13.7396 243.321 18.1676 241.522C19.0518 241.162 19.8854 240.825 20.6353 240.485L21.6264 240.036C26.531 237.824 30.7687 235.913 34.3221 229.404L34.3772 229.302H37.0047L36.8637 229.586C32.884 237.614 27.2337 240.139 22.2519 242.368L21.5889 242.666C20.8093 243.011 19.99 243.347 19.1233 243.699C14.2802 245.678 8.25241 248.14 4.94986 254.778C4.87278 254.893 4.79679 254.956 4.73072 255.011C4.70539 255.033 4.68227 255.051 4.65914 255.073L4.60631 255.13ZM3.3179 254.737H4.45324C4.46315 254.73 4.47196 254.722 4.48187 254.713C4.53693 254.667 4.58318 254.627 4.61621 254.579C7.96951 247.833 14.0722 245.339 18.9769 243.336C19.8402 242.984 20.6584 242.65 21.4303 242.307L22.0933 242.01C27.1941 239.729 32.4666 237.369 36.3705 229.695H34.6152C31.0076 236.237 26.5312 238.257 21.7917 240.396L20.8018 240.843C20.0452 241.186 19.2061 241.528 18.3197 241.885C13.6265 243.79 7.78674 246.162 4.03032 252.378L3.86404 252.653L3.69335 252.381C3.51826 252.099 3.35859 251.771 3.20441 251.373C2.42917 249.221 2.13514 246.461 2.02502 244.525L2.02172 244.406C1.99529 243.585 1.96996 242.807 1.96996 242.083C1.99529 237.173 2.77495 233.117 4.35406 229.693L2.63287 229.695C1.14846 233.161 0.396329 237.274 0.396329 241.923V242.085C0.396329 242.615 0.420555 243.152 0.444782 243.718C0.456896 244.009 0.47011 244.3 0.480021 244.595C0.600051 247.41 1.03834 249.95 1.74421 251.943C2.18469 252.947 2.66481 253.82 3.24844 254.682C3.25945 254.694 3.28699 254.714 3.31782 254.737L3.3179 254.737Z" fill="#5B7D96"/>
<path d="M37.7731 280.37C37.5231 279.382 37.2169 278.471 36.8579 277.657C36.7048 277.94 36.664 278.307 36.5528 278.56C36.2477 279.24 35.9415 279.775 35.5957 280.368H37.7732L37.7731 280.37Z" fill="#5B7D96"/>
<path d="M38.0275 280.564H35.252L35.4238 280.267C35.763 279.688 36.0681 279.154 36.3732 278.477C36.4161 278.38 36.447 278.259 36.48 278.134C36.5285 277.95 36.5858 277.742 36.6838 277.56L36.8743 277.206L37.0384 277.572C37.3986 278.382 37.7092 279.306 37.9658 280.316L38.0275 280.564ZM35.9381 280.171H37.5197C37.3314 279.463 37.1144 278.802 36.8721 278.198C36.8688 278.212 36.8655 278.224 36.8611 278.237C36.8236 278.382 36.784 278.52 36.7333 278.637C36.4756 279.215 36.2146 279.689 35.9381 280.171Z" fill="#5B7D96"/>
<path d="M38.7732 280.37C38.4813 279.24 38.1619 278.179 37.7467 277.242C37.5804 276.896 37.2478 276.633 36.859 276.633C36.4702 276.633 36.1232 276.895 35.9713 277.242C35.7774 277.685 35.7213 278.054 35.6662 278.11C35.305 278.944 34.9161 279.656 34.5273 280.371H38.7733L38.7732 280.37Z" fill="#5B7D96"/>
<path d="M39.0274 280.564H34.1943L34.354 280.273C34.7329 279.576 35.1261 278.855 35.483 278.028L35.5226 277.97C35.5193 277.962 35.5347 277.902 35.5579 277.82C35.6041 277.661 35.6735 277.422 35.788 277.16C35.9786 276.725 36.4103 276.433 36.8575 276.433C37.2937 276.433 37.7133 276.716 37.9237 277.154C38.2948 277.988 38.6153 278.962 38.9645 280.318L39.0274 280.564ZM34.8575 280.171H38.5165C38.1971 278.964 37.9008 278.077 37.5648 277.32C37.4217 277.024 37.143 276.83 36.8578 276.83C36.5637 276.83 36.2795 277.026 36.1507 277.32C36.046 277.557 35.9844 277.773 35.937 277.932C35.8995 278.07 35.8742 278.151 35.8379 278.209C35.524 278.925 35.1868 279.56 34.8575 280.171Z" fill="#5B7D96"/>
<path d="M37.8568 264.393C37.8568 260.954 37.4957 257.586 36.8019 254.937H38.7719C39.4646 257.755 39.7983 261.032 39.7983 264.393C39.7983 269.875 38.9658 275.363 37.467 278.944C37.217 279.466 36.9395 279.891 36.705 280.369H34.4993C34.888 279.657 35.2756 278.95 35.6379 278.138C36.9968 275.029 37.8568 269.634 37.8568 264.393ZM34.5269 254.935H36.802C32.6394 263.368 26.8118 265.593 21.5108 267.91C16.2106 270.353 8.57941 272.303 4.69444 280.369H2.50195C6.6646 270.848 15.572 268.363 20.7202 266.116C25.8958 263.785 30.6972 261.99 34.5272 254.936L34.5269 254.935Z" fill="#5B7D96"/>
<path d="M36.8284 280.564H34.1668L34.3695 280.193C34.734 279.522 35.1128 278.831 35.4553 278.058C36.7943 275 37.6588 269.636 37.6588 264.391C37.6588 261.133 37.3339 258.001 36.7382 255.498C32.7441 263.244 27.1995 265.653 22.298 267.783L21.591 268.09C20.7431 268.482 19.8423 268.856 18.8865 269.255C13.8319 271.362 8.10237 273.746 4.87368 280.453L4.81972 280.565H2.20215L2.32218 280.289C5.99572 271.889 13.2517 268.947 18.5505 266.802C19.2971 266.501 19.9986 266.217 20.6406 265.935L21.581 265.514C26.3151 263.402 30.7881 261.407 34.3528 254.84L34.4101 254.738H38.9271L38.9634 254.887C39.6396 257.631 39.9964 260.918 39.9964 264.391C39.9964 270.039 39.1187 275.505 37.6508 279.017C37.5121 279.31 37.3678 279.565 37.2279 279.813C37.109 280.026 36.9912 280.234 36.8822 280.453L36.8284 280.564ZM34.8309 280.171H36.5829C36.6787 279.983 36.78 279.804 36.8824 279.62C37.0178 279.377 37.1566 279.129 37.2876 278.857C38.7335 275.4 39.6002 269.989 39.6002 264.391C39.6002 261.012 39.2588 257.813 38.6146 255.131H37.0553C37.6995 257.708 38.053 260.982 38.053 264.391C38.053 269.684 37.1753 275.109 35.8164 278.215C35.5026 278.923 35.1623 279.558 34.8309 280.171ZM2.80616 280.171H4.57138C7.87815 273.414 13.8952 270.906 18.735 268.89C19.6853 268.494 20.5817 268.121 21.4296 267.731L22.1421 267.421C27.2604 265.198 32.5541 262.9 36.4841 255.131H34.6451C31.0266 261.732 26.5183 263.745 21.7445 265.874L20.8041 266.295C20.1555 266.578 19.4496 266.863 18.6997 267.166C13.523 269.261 6.45348 272.127 2.80616 280.171Z" fill="#5B7D96"/>
<path d="M4.52716 280.37C4.61085 280.293 4.70666 280.228 4.77713 280.131C8.69086 272.263 16.2649 270.257 21.5109 267.925C26.7549 265.567 32.5693 263.249 36.6899 254.936H34.4974C30.6674 261.95 25.9224 263.729 20.7192 266.104C16.0711 268.201 8.38462 270.229 3.86085 277.716C3.66704 277.404 3.51397 277.066 3.38843 276.74C2.7222 274.89 2.36212 272.389 2.22336 269.952C2.19473 269.099 2.1683 268.28 2.1683 267.524C2.19693 262.114 3.15388 258.095 4.66583 254.937H2.50196C1.08693 258.192 0.198242 262.234 0.198242 267.36V267.524C0.198242 268.337 0.253309 269.183 0.281942 270.039C0.392061 272.63 0.780775 275.257 1.55932 277.448C2.03174 278.522 2.53057 279.411 3.08559 280.231C3.14065 280.296 3.19571 280.33 3.25187 280.372L4.52706 280.373L4.52716 280.37Z" fill="#5B7D96"/>
<path d="M4.60522 280.564H3.18576L3.13179 280.524C3.05581 280.469 2.99414 280.425 2.93468 280.354C2.3235 279.458 1.83459 278.562 1.37649 277.523C0.651906 275.481 0.207026 272.901 0.0836913 270.044C0.0737806 269.75 0.0616673 269.459 0.0484529 269.169C0.0242266 268.624 0 268.06 0 267.521V267.357C0 262.603 0.779642 258.398 2.31914 254.857L2.3709 254.738H4.97744L4.84309 255.02C3.20121 258.449 2.38962 262.538 2.36428 267.523C2.36428 268.242 2.38961 269.015 2.41604 269.836L2.41934 269.944C2.52836 271.851 2.81576 274.57 3.57342 276.671C3.66702 276.914 3.76282 277.131 3.86524 277.325C7.70173 271.204 13.743 268.752 18.1732 266.955C19.0552 266.596 19.8878 266.259 20.6355 265.921L21.6332 265.47C26.5347 263.257 30.7709 261.347 34.3224 254.841L34.3775 254.739H37.0049L36.864 255.024C32.8843 263.052 27.234 265.577 22.2521 267.806L21.5892 268.104C20.8096 268.449 19.9903 268.785 19.1236 269.137C14.2804 271.116 8.25269 273.578 4.95014 280.216C4.87086 280.331 4.79377 280.395 4.7277 280.452L4.60522 280.564ZM3.31681 280.171H4.45547C4.46318 280.164 4.47089 280.157 4.4797 280.15C4.53366 280.106 4.58431 280.062 4.61845 280.013C7.97061 273.268 14.0745 270.775 18.9791 268.77C19.8424 268.417 20.6606 268.084 21.4326 267.74L22.0955 267.444C27.1964 265.162 32.4689 262.803 36.3727 255.129H34.6174C31.0121 261.667 26.5379 263.688 21.8016 265.826L20.8039 266.276C20.0474 266.62 19.2105 266.958 18.3273 267.317C13.6341 269.222 7.79098 271.593 4.03371 277.812L3.86743 278.088L3.69895 277.816C3.52055 277.529 3.36088 277.199 3.21 276.806C2.43696 274.655 2.14293 271.896 2.03062 269.958L2.02731 269.845C2.00088 269.024 1.97556 268.245 1.97556 267.518C2.00088 262.608 2.78054 258.553 4.35965 255.128H2.63297C1.14855 258.594 0.396424 262.707 0.396424 267.355V267.518C0.396424 268.049 0.42065 268.584 0.443776 269.15C0.455889 269.441 0.470205 269.734 0.479014 270.028C0.599045 272.843 1.03733 275.384 1.7432 277.377C2.18478 278.382 2.6638 279.255 3.24744 280.113C3.26175 280.131 3.28708 280.149 3.31681 280.171V280.171Z" fill="#5B7D96"/>
<path d="M37.7731 305.804C37.5231 304.814 37.2169 303.903 36.8579 303.091C36.7048 303.374 36.664 303.74 36.5528 303.994C36.2477 304.672 35.9415 305.209 35.5957 305.801H37.7732L37.7731 305.804Z" fill="#5B7D96"/>
<path d="M38.0275 306H35.252L35.4238 305.704C35.7619 305.128 36.0648 304.594 36.3732 303.914C36.4161 303.816 36.447 303.696 36.48 303.571C36.5285 303.386 36.5858 303.179 36.6838 302.997L36.8743 302.642L37.0384 303.009C37.3986 303.817 37.7092 304.74 37.9658 305.752L38.0275 306ZM35.9381 305.607H37.5197C37.3314 304.9 37.1144 304.237 36.8743 303.634C36.8699 303.646 36.8666 303.661 36.8622 303.674C36.8247 303.819 36.7851 303.957 36.7344 304.073C36.4734 304.652 36.208 305.137 35.9381 305.607Z" fill="#5B7D96"/>
<path d="M3.91543 305.494L3.72602 305.212C3.14239 304.344 2.68539 303.525 2.29447 302.63C1.42673 300.217 1.14372 297.393 1.05672 295.45C0.747275 289.386 1.51592 284.424 3.40558 280.285L3.76566 280.449C1.90241 284.53 1.14699 289.43 1.45314 295.431C1.57427 298.181 1.99274 300.621 2.66227 302.485C2.99703 303.247 3.38576 303.964 3.8703 304.709C7.44602 297.828 13.6159 295.316 18.5879 293.295C19.4611 292.94 20.2837 292.605 21.0458 292.265L21.8639 291.897C26.6916 289.724 31.6822 287.478 35.4231 280.275L35.7755 280.456C31.9698 287.779 26.9163 290.054 22.0269 292.255L21.2087 292.625C20.4411 292.968 19.6142 293.304 18.7398 293.659C13.7557 295.685 7.55484 298.209 4.07074 305.188L3.91543 305.494Z" fill="#5B7D96"/>
<path d="M38.7732 305.803C38.4813 304.672 38.1619 303.613 37.7467 302.674C37.5804 302.329 37.2478 302.067 36.859 302.067C36.4702 302.067 36.1232 302.329 35.9713 302.674C35.7774 303.12 35.7213 303.487 35.6662 303.545C35.305 304.376 34.9161 305.091 34.5273 305.805L38.7733 305.804L38.7732 305.803Z" fill="#5B7D96"/>
<path d="M39.0274 306H34.1943L34.354 305.709C34.7318 305.016 35.1228 304.298 35.483 303.464L35.5226 303.406C35.5193 303.398 35.5347 303.338 35.5579 303.256C35.6041 303.096 35.6735 302.857 35.788 302.594C35.9786 302.159 36.4081 301.868 36.8575 301.868C37.2948 301.868 37.7133 302.151 37.9237 302.587C38.2959 303.425 38.6153 304.4 38.9645 305.752L39.0274 306ZM34.8575 305.607H38.5165C38.1993 304.403 37.9019 303.517 37.5648 302.755C37.4228 302.459 37.143 302.264 36.8578 302.264C36.5626 302.264 36.2795 302.461 36.1507 302.755C36.0482 302.992 35.9844 303.209 35.9392 303.367C35.8995 303.506 35.8764 303.588 35.8379 303.646C35.5218 304.365 35.1868 304.999 34.8575 305.607Z" fill="#5B7D96"/>
<path d="M37.8568 289.826C37.8568 286.386 37.4957 283.017 36.8019 280.368H38.7719C39.4646 283.187 39.7983 286.464 39.7983 289.826C39.7983 295.306 38.9658 300.796 37.467 304.376C37.217 304.899 36.9395 305.323 36.705 305.802H34.4993C34.888 305.09 35.2756 304.383 35.6379 303.57C36.9968 300.461 37.8568 295.066 37.8568 289.826ZM34.5269 280.368H36.8019C32.6392 288.8 26.8118 291.027 21.5108 293.342C16.2106 295.787 8.57941 297.737 4.69444 305.803H2.50195C6.6646 296.281 15.572 293.796 20.7202 291.549C25.8958 289.219 30.6972 287.423 34.5272 280.368L34.5269 280.368Z" fill="#5B7D96"/>
<path d="M36.8295 306H34.1679L34.3705 305.629C34.735 304.958 35.1138 304.267 35.4563 303.492C36.7954 300.433 37.6598 295.069 37.6598 289.827C37.6598 286.567 37.335 283.434 36.7392 280.931C32.744 288.681 27.1961 291.09 22.2926 293.22L21.5911 293.524C20.7432 293.916 19.8402 294.292 18.8832 294.69C13.8298 296.797 8.10252 299.182 4.8727 305.887L4.81875 305.999H2.20117L2.3212 305.724C5.99474 297.323 13.2508 294.382 18.5495 292.237C19.2961 291.936 19.9976 291.652 20.6396 291.37L21.58 290.948C26.3141 288.837 30.7871 286.842 34.3518 280.274L34.4091 280.172H38.9261L38.9624 280.323C39.6386 283.067 39.9954 286.353 39.9954 289.827C39.9954 295.475 39.1177 300.941 37.6498 304.452C37.5111 304.745 37.3668 305 37.227 305.248C37.108 305.461 36.9902 305.669 36.8812 305.89L36.8295 306ZM34.8319 305.607H36.5839C36.6797 305.419 36.781 305.239 36.8834 305.055C37.0189 304.812 37.1576 304.565 37.2887 304.292C38.7346 300.837 39.6012 295.425 39.6012 289.827C39.6012 286.449 39.2598 283.249 38.6156 280.565H37.0563C37.7006 283.142 38.054 286.417 38.054 289.827C38.054 295.118 37.1764 300.544 35.8175 303.65C35.5037 304.359 35.1634 304.994 34.8319 305.607ZM2.80721 305.607H4.57243C7.87921 298.85 13.894 296.343 18.7327 294.327C19.6841 293.93 20.5827 293.556 21.4295 293.165L22.1332 292.858C27.256 290.635 32.5494 288.337 36.4828 280.566H34.6438C31.0253 287.169 26.5147 289.181 21.7409 291.31L20.8016 291.731C20.153 292.014 19.4471 292.299 18.6972 292.602C13.5236 294.698 6.45397 297.563 2.80693 305.607H2.80721Z" fill="#5B7D96"/>
<path d="M4.52716 305.803C4.61085 305.724 4.70666 305.661 4.77713 305.564C8.69086 297.694 16.2649 295.69 21.5109 293.358C26.7549 290.999 32.5693 288.681 36.6899 280.368H34.4974C30.6674 287.382 25.9224 289.163 20.7192 291.536C16.0711 293.634 8.38462 295.66 3.86085 303.147C3.66704 302.838 3.51397 302.497 3.38843 302.174C2.7222 300.324 2.36212 297.823 2.22336 295.386C2.19473 294.532 2.1683 293.714 2.1683 292.958C2.19693 287.547 3.15388 283.528 4.66583 280.37H2.50196C1.08693 283.627 0.198242 287.667 0.198242 292.794V292.958C0.198242 293.77 0.253309 294.617 0.281942 295.472C0.392061 298.063 0.780775 300.692 1.55932 302.882C2.03174 303.956 2.53057 304.845 3.08559 305.665C3.14065 305.727 3.19571 305.762 3.25187 305.806H4.52706L4.52716 305.803Z" fill="#5B7D96"/>
<path d="M4.60631 306H3.18355L3.12959 305.959C3.047 305.898 2.99414 305.858 2.93578 305.792C2.3235 304.894 1.83347 303.999 1.37649 302.959C0.651906 300.917 0.207026 298.337 0.0836914 295.478C0.0737806 295.184 0.0616673 294.894 0.0484529 294.604C0.0242266 294.059 0 293.494 0 292.956V292.792C0 288.039 0.779642 283.833 2.31914 280.289L2.3709 280.171H4.97744L4.84309 280.453C3.20121 283.881 2.38962 287.97 2.36428 292.957C2.36428 293.676 2.38961 294.448 2.41604 295.269L2.41934 295.378C2.52836 297.285 2.81576 300.004 3.57342 302.105C3.66812 302.347 3.76392 302.566 3.86524 302.759C7.69975 296.638 13.7419 294.186 18.1709 292.388C19.053 292.032 19.8855 291.693 20.6354 291.355L21.6298 290.905C26.5336 288.691 30.7687 286.779 34.3221 280.273L34.3772 280.171H37.0047L36.8637 280.455C32.884 288.481 27.2371 291.009 22.2541 293.238L21.5879 293.536C20.8082 293.882 19.9867 294.218 19.1201 294.571C14.2769 296.549 8.25114 299.009 4.9486 305.649C4.87151 305.762 4.79662 305.825 4.73055 305.88C4.70522 305.901 4.6799 305.921 4.65788 305.943L4.60631 306ZM3.3179 305.607H4.45324C4.46315 305.599 4.47196 305.589 4.48297 305.582C4.53693 305.536 4.58428 305.497 4.61731 305.45C7.96948 298.704 14.0722 296.212 18.9771 294.209C19.8427 293.855 20.6598 293.522 21.4317 293.179L22.0979 292.881C27.1976 290.599 32.4702 288.238 36.3729 280.566H34.6176C31.0122 287.105 26.5347 289.126 21.7984 291.267L20.804 291.716C20.0475 292.059 19.2106 292.398 18.3252 292.757C13.632 294.661 7.79114 297.032 4.03387 303.25L3.86759 303.525L3.69691 303.253C3.52182 302.971 3.36215 302.643 3.20797 302.245C2.43493 300.094 2.14089 297.335 2.02858 295.397L2.02527 295.284C1.99885 294.463 1.97352 293.684 1.97352 292.957C1.99885 288.047 2.77851 283.989 4.35761 280.566L2.63313 280.564C1.14872 284.032 0.396588 288.144 0.396588 292.791V292.955C0.396588 293.485 0.420814 294.02 0.443939 294.587C0.456053 294.878 0.470368 295.168 0.479178 295.464C0.599208 298.279 1.0375 300.82 1.74337 302.814C2.18495 303.819 2.66396 304.693 3.24759 305.551C3.2597 305.564 3.28707 305.583 3.3179 305.607Z" fill="#5B7D96"/>
<path d="M37.7731 25.6324C37.5231 24.6447 37.2169 23.7316 36.8579 22.9196C36.7048 23.2016 36.664 23.5692 36.5528 23.8238C36.2477 24.5021 35.9415 25.0387 35.5957 25.6313L37.7731 25.6324Z" fill="#5B7D96"/>
<path d="M38.0275 25.8282H35.252L35.4238 25.5319C35.7619 24.9547 36.0659 24.4213 36.3732 23.7431C36.4161 23.6455 36.447 23.5247 36.48 23.3996C36.5285 23.2153 36.5858 23.0068 36.6838 22.8257L36.8743 22.4734L37.0384 22.8399C37.3986 23.6487 37.7092 24.5717 37.9658 25.5835L38.0275 25.8282ZM35.9381 25.4343H37.5197C37.3314 24.7264 37.1144 24.0636 36.8721 23.4611C36.8688 23.4732 36.8655 23.4875 36.8611 23.5017C36.8236 23.6466 36.784 23.7848 36.7333 23.9012C36.4734 24.4817 36.2146 24.9536 35.9381 25.4343Z" fill="#5B7D96"/>
<path d="M38.7732 25.6322C38.4813 24.503 38.1619 23.4417 37.7467 22.5034C37.5804 22.1577 37.2478 21.8965 36.859 21.8965C36.4702 21.8965 36.1232 22.1588 35.9713 22.5034C35.7774 22.9489 35.7213 23.3165 35.6662 23.3714C35.305 24.2055 34.9161 24.9177 34.5273 25.6321L38.7732 25.6322Z" fill="#5B7D96"/>
<path d="M39.0274 25.8289H34.1943L34.354 25.5381C34.7318 24.8423 35.125 24.1235 35.483 23.295L35.5237 23.2335C35.5193 23.2291 35.5347 23.1677 35.559 23.0854C35.603 22.9263 35.6724 22.687 35.7892 22.4247C35.9797 21.9901 36.4114 21.6993 36.8586 21.6993C37.2959 21.6993 37.7144 21.9814 37.9248 22.4182C38.2959 23.2555 38.6164 24.2311 38.9656 25.5832L39.0274 25.8289ZM34.8575 25.435H38.5165C38.1993 24.23 37.9008 23.3422 37.5648 22.5829C37.4217 22.2866 37.143 22.0923 36.8578 22.0923C36.5637 22.0923 36.2795 22.2888 36.1507 22.5829C36.0482 22.8199 35.9844 23.0372 35.9392 23.1953C35.8995 23.3324 35.8764 23.4136 35.8368 23.4718C35.5218 24.1906 35.1868 24.827 34.8575 25.435Z" fill="#5B7D96"/>
<path d="M37.8568 9.65417C37.8568 6.21491 37.4957 2.84476 36.8019 0.197754H38.7719C39.4646 3.01698 39.7983 6.29385 39.7983 9.65417C39.7983 15.1359 38.9658 20.6229 37.467 24.2048C37.217 24.7272 36.9395 25.1519 36.705 25.6315H34.4993C34.888 24.9193 35.2756 24.2125 35.6379 23.4004C36.9968 20.2916 37.8568 14.8965 37.8568 9.65417ZM34.5269 0.197754H36.8019C32.6392 8.63042 26.8118 10.8549 21.5108 13.1726C16.2106 15.6177 8.57941 17.5657 4.69444 25.6317H2.50195C6.6646 16.1104 15.572 13.625 20.7202 11.3786C25.8958 9.04765 30.6972 7.25326 34.5272 0.198035L34.5269 0.197754Z" fill="#5B7D96"/>
<path d="M36.8284 25.8291H34.1668L34.3694 25.4582C34.7339 24.7876 35.1127 24.0962 35.4552 23.3215C36.7942 20.2629 37.6587 14.8989 37.6587 9.6563C37.6587 6.39685 37.3338 3.26381 36.7381 0.760645C32.744 8.50726 27.1994 10.916 22.2979 13.0461L21.591 13.3534C20.7419 13.7463 19.84 14.1227 18.8831 14.521C13.8296 16.6281 8.10237 19.0138 4.87368 25.719L4.81972 25.8309H2.20215L2.32218 25.5555C5.99572 17.1548 13.2517 14.2159 18.5505 12.0682C19.2971 11.7675 19.9986 11.4811 20.6406 11.2012L21.581 10.7798C26.3151 8.66837 30.7881 6.67331 34.3528 0.105233L34.4101 0.00317383H38.9271L38.9634 0.152423C39.6396 2.89596 39.9964 6.18278 39.9964 9.65603C39.9964 15.3024 39.1187 20.7705 37.6508 24.2823C37.512 24.5731 37.37 24.8266 37.229 25.0757C37.109 25.2897 36.9923 25.4993 36.8822 25.721L36.8284 25.8291ZM34.8308 25.4351H36.5828C36.6786 25.2464 36.7799 25.0653 36.8823 24.8809C37.02 24.6384 37.1587 24.3936 37.2875 24.1193C38.7334 20.6623 39.6001 15.2512 39.6001 9.65318C39.6001 6.27433 39.2587 3.07527 38.6145 0.393148H37.0552C37.6994 2.96989 38.0529 6.24455 38.0529 9.65318C38.0529 14.9461 37.1752 20.3716 35.8164 23.4774C35.5025 24.1863 35.1623 24.8217 34.8308 25.4351ZM2.80607 25.4351H4.57129C7.87722 18.6794 13.8917 16.1728 18.7307 14.1568C19.6821 13.7606 20.5829 13.3842 21.4286 12.9946L22.1411 12.6852C27.2594 10.4607 32.5531 8.16148 36.4831 0.395199H34.6441C31.0256 6.99839 26.5173 9.00992 21.7435 11.1389L20.8031 11.5592C20.1544 11.8423 19.4486 12.1287 18.6987 12.4327C13.5231 14.5266 6.45311 17.3901 2.80607 25.4351Z" fill="#5B7D96"/>
<path d="M36.8284 25.8291H34.1668L34.3694 25.4582C34.7339 24.7876 35.1127 24.0962 35.4552 23.3215C36.7942 20.2629 37.6587 14.8989 37.6587 9.6563C37.6587 6.39685 37.3338 3.26381 36.7381 0.760645C32.744 8.50726 27.1994 10.916 22.2979 13.0461L21.591 13.3534C20.7419 13.7463 19.84 14.1227 18.8831 14.521C13.8296 16.6281 8.10237 19.0138 4.87368 25.719L4.81972 25.8309H2.20215L2.32218 25.5555C5.99572 17.1548 13.2517 14.2159 18.5505 12.0682C19.2971 11.7675 19.9986 11.4811 20.6406 11.2012L21.581 10.7798C26.3151 8.66837 30.7881 6.67331 34.3528 0.105233L34.4101 0.00317383H38.9271L38.9634 0.152423C39.6396 2.89596 39.9964 6.18278 39.9964 9.65603C39.9964 15.3024 39.1187 20.7705 37.6508 24.2823C37.512 24.5731 37.37 24.8266 37.229 25.0757C37.109 25.2897 36.9923 25.4993 36.8822 25.721L36.8284 25.8291ZM34.8308 25.4351H36.5828C36.6786 25.2464 36.7799 25.0653 36.8823 24.8809C37.02 24.6384 37.1587 24.3936 37.2875 24.1193C38.7334 20.6623 39.6001 15.2512 39.6001 9.65318C39.6001 6.27433 39.2587 3.07527 38.6145 0.393148H37.0552C37.6994 2.96989 38.0529 6.24455 38.0529 9.65318C38.0529 14.9461 37.1752 20.3716 35.8164 23.4774C35.5025 24.1863 35.1623 24.8217 34.8308 25.4351ZM2.80607 25.4351H4.57129C7.87722 18.6794 13.8917 16.1728 18.7307 14.1568C19.6821 13.7606 20.5829 13.3842 21.4286 12.9946L22.1411 12.6852C27.2594 10.4607 32.5531 8.16148 36.4831 0.395199H34.6441C31.0256 6.99839 26.5173 9.00992 21.7435 11.1389L20.8031 11.5592C20.1544 11.8423 19.4486 12.1287 18.6987 12.4327C13.5231 14.5266 6.45311 17.3901 2.80607 25.4351Z" fill="#5B7D96"/>
<path d="M4.52716 25.6325C4.61085 25.5556 4.70666 25.4909 4.77713 25.3932C8.69086 17.5258 16.2649 15.5196 21.5109 13.1878C26.7549 10.8284 32.5693 8.51158 36.6899 0.198875H34.4974C30.6674 7.21252 25.9224 8.99143 20.7192 11.3662C16.0711 13.4634 8.38462 15.4915 3.86085 22.978C3.66704 22.6685 3.51397 22.3283 3.38843 22.0024C2.7222 20.1521 2.36212 17.6523 2.22336 15.2149C2.19693 14.3578 2.1694 13.5391 2.1694 12.783C2.19803 7.37268 3.15498 3.35301 4.66694 0.196655H2.50307C1.08803 3.45386 0.199343 7.49349 0.199343 12.6206L0.198242 12.783C0.198242 13.5951 0.2533 14.4423 0.281934 15.2972C0.392052 17.8882 0.780775 20.5154 1.55932 22.7059C2.03174 23.7791 2.53057 24.6692 3.08559 25.4889C3.14065 25.5537 3.19571 25.5877 3.25187 25.6305H4.52706L4.52716 25.6325Z" fill="#5B7D96"/>
<path d="M4.60618 25.8288H3.18563L3.13387 25.7882C3.05348 25.7289 2.99622 25.6872 2.93786 25.6203C2.3366 24.7347 1.83114 23.8139 1.37966 22.789C0.653977 20.7456 0.208006 18.1633 0.0868703 15.3101C0.0769595 15.016 0.0648462 14.7252 0.0516318 14.4355C0.0263041 13.8857 0.000976562 13.3227 0.000976562 12.7828V12.6214C0.000976562 7.86738 0.780618 3.66004 2.32012 0.11852L2.37187 0H4.97842L4.84407 0.282035C3.20218 3.71034 2.3906 7.80053 2.36526 12.785C2.36526 13.5038 2.39058 14.2774 2.41701 15.0972L2.42032 15.207C2.52934 17.1121 2.81673 19.8304 3.57438 21.9341C3.66909 22.1777 3.7649 22.395 3.86622 22.5881C7.70073 16.4678 13.7429 14.015 18.1719 12.2186C19.054 11.8598 19.8876 11.5218 20.6375 11.1838L21.6319 10.7338C26.5357 8.52033 30.7707 6.60851 34.3242 0.103082L34.3792 0.00102253H37.0067L36.8658 0.284153C32.8861 8.31059 27.2369 10.8379 22.2551 13.0669L21.5932 13.3654C20.8136 13.7111 19.9921 14.0469 19.1276 14.4003C14.2845 16.3778 8.25671 18.8405 4.95613 25.4788C4.87905 25.594 4.80307 25.6566 4.73479 25.7115C4.71057 25.7323 4.68744 25.7521 4.66321 25.774L4.60618 25.8288ZM3.31669 25.4349H4.45311C4.46302 25.4272 4.47073 25.4195 4.47954 25.4129C4.5346 25.3657 4.58195 25.3262 4.61498 25.279C7.96715 18.5331 14.0699 16.0409 18.9748 14.0358C19.8403 13.6814 20.6563 13.3489 21.4294 13.0053L22.0945 12.7079C27.1953 10.4264 32.4678 8.06683 36.3706 0.392695H34.6152C31.0099 6.93212 26.5324 8.95263 21.7961 11.0903L20.8017 11.5402C20.0452 11.8815 19.2072 12.2218 18.3218 12.5817C13.6286 14.4868 7.78774 16.8584 4.03048 23.0753L3.8642 23.3508L3.69351 23.0786C3.51622 22.7966 3.35765 22.4663 3.20457 22.0701C2.42932 19.9181 2.1353 17.1601 2.02518 15.2233L2.02188 15.1081C1.99655 14.2872 1.97122 13.5103 1.97122 12.7827C1.99655 7.87272 2.77621 3.81455 4.35532 0.392712L2.63303 0.39381C1.14862 3.86172 0.396489 7.97355 0.396489 12.6211V12.7824C0.396489 13.3125 0.420715 13.848 0.44384 14.4143C0.455954 14.7051 0.470269 14.9981 0.479079 15.2911C0.599109 18.1062 1.0374 20.6475 1.74327 22.6416C2.18485 23.6469 2.66496 24.5204 3.24749 25.3786C3.26181 25.3929 3.28713 25.4115 3.31687 25.4346L3.31669 25.4349Z" fill="#5B7D96"/>
<path d="M4.60618 25.8288H3.18563L3.13387 25.7882C3.05348 25.7289 2.99622 25.6872 2.93786 25.6203C2.3366 24.7347 1.83114 23.8139 1.37966 22.789C0.653977 20.7456 0.208006 18.1633 0.0868703 15.3101C0.0769595 15.016 0.0648462 14.7252 0.0516318 14.4355C0.0263041 13.8857 0.000976562 13.3227 0.000976562 12.7828V12.6214C0.000976562 7.86738 0.780618 3.66004 2.32012 0.11852L2.37187 0H4.97842L4.84407 0.282035C3.20218 3.71034 2.3906 7.80053 2.36526 12.785C2.36526 13.5038 2.39058 14.2774 2.41701 15.0972L2.42032 15.207C2.52934 17.1121 2.81673 19.8304 3.57438 21.9341C3.66909 22.1777 3.7649 22.395 3.86622 22.5881C7.70073 16.4678 13.7429 14.015 18.1719 12.2186C19.054 11.8598 19.8876 11.5218 20.6375 11.1838L21.6319 10.7338C26.5357 8.52033 30.7707 6.60851 34.3242 0.103082L34.3792 0.00102253H37.0067L36.8658 0.284153C32.8861 8.31059 27.2369 10.8379 22.2551 13.0669L21.5932 13.3654C20.8136 13.7111 19.9921 14.0469 19.1276 14.4003C14.2845 16.3778 8.25671 18.8405 4.95613 25.4788C4.87905 25.594 4.80307 25.6566 4.73479 25.7115C4.71057 25.7323 4.68744 25.7521 4.66321 25.774L4.60618 25.8288ZM3.31669 25.4349H4.45311C4.46302 25.4272 4.47073 25.4195 4.47954 25.4129C4.5346 25.3657 4.58195 25.3262 4.61498 25.279C7.96715 18.5331 14.0699 16.0409 18.9748 14.0358C19.8403 13.6814 20.6563 13.3489 21.4294 13.0053L22.0945 12.7079C27.1953 10.4264 32.4678 8.06683 36.3706 0.392695H34.6152C31.0099 6.93212 26.5324 8.95263 21.7961 11.0903L20.8017 11.5402C20.0452 11.8815 19.2072 12.2218 18.3218 12.5817C13.6286 14.4868 7.78774 16.8584 4.03048 23.0753L3.8642 23.3508L3.69351 23.0786C3.51622 22.7966 3.35765 22.4663 3.20457 22.0701C2.42932 19.9181 2.1353 17.1601 2.02518 15.2233L2.02188 15.1081C1.99655 14.2872 1.97122 13.5103 1.97122 12.7827C1.99655 7.87272 2.77621 3.81455 4.35532 0.392712L2.63303 0.39381C1.14862 3.86172 0.396489 7.97355 0.396489 12.6211V12.7824C0.396489 13.3125 0.420715 13.848 0.44384 14.4143C0.455954 14.7051 0.470269 14.9981 0.479079 15.2911C0.599109 18.1062 1.0374 20.6475 1.74327 22.6416C2.18485 23.6469 2.66496 24.5204 3.24749 25.3786C3.26181 25.3929 3.28713 25.4115 3.31687 25.4346L3.31669 25.4349Z" fill="#5B7D96"/>
<path d="M37.7731 51.0639C37.5231 50.074 37.2169 49.1632 36.8579 48.3511C36.7048 48.6342 36.664 49.0007 36.5528 49.2554C36.2477 49.9336 35.9415 50.4702 35.5957 51.0628L37.7731 51.0639Z" fill="#5B7D96"/>
<path d="M38.0275 51.261H35.252L35.4238 50.9646C35.763 50.3841 36.0692 49.8497 36.3732 49.1748C36.4161 49.0771 36.447 48.9564 36.48 48.8313C36.5285 48.6469 36.5858 48.4395 36.6838 48.2573L36.8743 47.9028L37.0384 48.2694C37.3986 49.0793 37.7114 50.0033 37.9658 51.0151L38.0275 51.261ZM35.9381 50.8681H37.5197C37.3314 50.1603 37.1144 49.4974 36.8721 48.8949C36.8688 48.907 36.8655 48.9213 36.8611 48.9355C36.8236 49.0804 36.784 49.2187 36.7333 49.335C36.4756 49.9112 36.2146 50.3852 35.9381 50.8681Z" fill="#5B7D96"/>
<path d="M3.91543 50.7577L3.72602 50.4757C3.14019 49.6054 2.68539 48.7857 2.29447 47.8956C1.42673 45.4802 1.14372 42.6567 1.05672 40.712C0.747275 34.6488 1.51592 29.6885 3.40558 25.5489L3.76565 25.7124C1.90241 29.7917 1.14699 34.6926 1.45314 40.6932C1.57427 43.4445 1.99274 45.885 2.66227 47.7496C2.99703 48.509 3.38576 49.2267 3.8703 49.974C7.44602 43.091 13.6158 40.5811 18.5879 38.5586C19.4589 38.2031 20.2848 37.8695 21.0446 37.5282L21.8639 37.1583C26.6904 34.9876 31.6799 32.74 35.422 25.5378L35.7743 25.7189C31.9686 33.0408 26.9151 35.3158 22.0268 37.5172L21.2076 37.8871C20.44 38.2306 19.613 38.5664 18.7387 38.9219C13.7545 40.95 7.55371 43.4729 4.06961 50.4525L3.91543 50.7577Z" fill="#5B7D96"/>
<path d="M38.7732 51.0638C38.4813 49.9346 38.1619 48.8734 37.7467 47.935C37.5804 47.5893 37.2478 47.3281 36.859 47.3281C36.4702 47.3281 36.1232 47.5893 35.9713 47.935C35.7774 48.3806 35.7213 48.7471 35.6662 48.8031C35.305 49.6371 34.9161 50.3493 34.5273 51.0637L38.7732 51.0638Z" fill="#5B7D96"/>
<path d="M39.0274 51.2605H34.1943L34.3518 50.9696C34.7318 50.2728 35.125 49.5507 35.4819 48.7243L35.5226 48.6629C35.5182 48.6563 35.5336 48.597 35.5579 48.5147C35.6019 48.3556 35.6713 48.1163 35.788 47.854C35.9786 47.4195 36.4081 47.1287 36.8575 47.1287C37.2948 47.1287 37.7133 47.4118 37.9236 47.8475C38.2948 48.6826 38.6153 49.6582 38.9645 51.0125L39.0274 51.2605ZM34.8575 50.8676H38.5165C38.1993 49.6604 37.9008 48.7737 37.5648 48.0155C37.4228 47.7192 37.143 47.525 36.8578 47.525C36.5626 47.525 36.2795 47.7214 36.1507 48.0155C36.0482 48.2525 35.9844 48.4698 35.9392 48.6279C35.8995 48.765 35.8764 48.8462 35.8368 48.9044C35.524 49.6221 35.1868 50.2585 34.8575 50.8676Z" fill="#5B7D96"/>
<path d="M37.8568 35.0898C37.8568 31.6494 37.4957 28.2804 36.8019 25.6311H38.7719C39.4646 28.4503 39.7983 31.7272 39.7983 35.0898C39.7983 40.5714 38.9658 46.0585 37.467 49.6393C37.217 50.1628 36.9395 50.5864 36.705 51.066H34.4993C34.888 50.3515 35.2756 49.647 35.6379 48.8338C36.9968 45.7269 37.8568 40.3298 37.8568 35.0898ZM34.5269 25.6333H36.802C32.6394 34.068 26.8118 36.2925 21.5108 38.6094C16.2106 41.0522 8.57941 43.0024 4.69444 51.0685H2.50195C6.6646 41.5471 15.572 39.0617 20.7202 36.8153C25.8958 34.4833 30.6972 32.6889 34.5272 25.6336L34.5269 25.6333Z" fill="#5B7D96"/>
<path d="M36.828 51.2604H34.1664L34.3801 50.8697C34.7412 50.2057 35.1157 49.5199 35.457 48.7506C36.7961 45.6942 37.6605 40.3288 37.6605 35.0854C37.6605 31.8259 37.3357 28.6929 36.7399 26.1897C32.7459 33.9364 27.2013 36.3451 22.2998 38.4752L21.5928 38.7825C20.7449 39.1743 19.8419 39.5507 18.8871 39.948C13.8337 42.0528 8.1053 44.4396 4.87661 51.1459L4.82264 51.2578H2.20508L2.32511 50.9824C5.99865 42.5817 13.2555 39.6406 18.5534 37.4928C19.2989 37.1921 20.0015 36.9057 20.6435 36.6259L21.5861 36.2045C26.3202 34.093 30.7932 32.1002 34.3557 25.531L34.413 25.429H38.93L38.9663 25.5782C39.6424 28.3217 39.9993 31.6086 39.9993 35.0841C39.9993 40.7323 39.1216 46.1986 37.6537 49.7095C37.515 50.0003 37.3729 50.2538 37.2319 50.5029C37.1119 50.7169 36.9952 50.9265 36.8851 51.1482L36.828 51.2604ZM34.8305 50.8675H36.5825C36.6783 50.6787 36.7818 50.4977 36.8842 50.3133C37.0196 50.0708 37.1584 49.826 37.2883 49.5517C38.7342 46.0947 39.6008 40.6847 39.6008 35.0867C39.6008 31.7078 39.2595 28.5088 38.6153 25.8244H37.056C37.7002 28.4012 38.0537 31.6769 38.0537 35.0867C38.0537 40.3796 37.176 45.8051 35.8171 48.9097C35.5022 49.6198 35.1619 50.2551 34.8305 50.8675ZM2.80574 50.8675H4.57096C7.87774 44.1106 13.8925 41.6041 18.7334 39.5872C19.6849 39.191 20.5824 38.8168 21.4303 38.4262L22.1405 38.1167C27.26 35.8922 32.5537 33.593 36.4849 25.8267H34.6459C31.0273 32.4299 26.519 34.4403 21.7463 36.5693L20.8037 36.9907C20.1551 37.2738 19.4492 37.5602 18.6993 37.8642C13.5226 39.9603 6.45306 42.8234 2.80574 50.8675Z" fill="#5B7D96"/>
<path d="M4.52716 51.0643C4.61085 50.9875 4.70666 50.9228 4.77713 50.824C8.69086 42.9566 16.2649 40.9504 21.5109 38.6186C26.7549 36.2591 32.5693 33.9423 36.6899 25.6296H34.4974C30.6674 32.6433 25.9224 34.4222 20.7192 36.797C16.0711 38.8941 8.38462 40.9223 3.86085 48.4088C3.66704 48.0971 3.51397 47.7591 3.38843 47.4331C2.7222 45.5829 2.36212 43.0819 2.22336 40.6456C2.19473 39.7918 2.1683 38.9721 2.1683 38.2171C2.19693 32.8067 3.15388 28.7871 4.66583 25.6307H2.50196C1.08693 28.8879 0.198242 32.9275 0.198242 38.0547V38.2182C0.198242 39.0303 0.253309 39.8775 0.281942 40.7324C0.392061 43.3256 0.780775 45.9528 1.55932 48.141C2.03174 49.2154 2.53057 50.1043 3.08559 50.9241C3.14065 50.9888 3.19571 51.0228 3.25187 51.0656L4.52706 51.0667L4.52716 51.0643Z" fill="#5B7D96"/>
<path d="M4.60497 51.2606H3.18441L3.13265 51.22C3.05226 51.1608 2.995 51.1191 2.93664 51.0521C2.32546 50.1522 1.83432 49.2568 1.37845 48.2186C0.653859 46.1763 0.208988 43.5952 0.0856531 40.7397C0.0757423 40.4456 0.063629 40.1559 0.0504146 39.8661C0.026188 39.3207 0.00195312 38.7534 0.00195312 38.2156V38.0521C0.00195312 33.298 0.781604 29.0907 2.3211 25.5492L2.37286 25.4307H4.9794L4.84506 25.7127C3.20317 29.141 2.39159 33.2312 2.36624 38.2156C2.36624 38.9344 2.39157 39.707 2.418 40.5268L2.4213 40.6387C2.53032 42.5438 2.81771 45.2621 3.57537 47.3658C3.66897 47.6083 3.76588 47.8256 3.86721 48.0199C7.70171 41.8985 13.7438 39.4467 18.1718 37.6504C19.0538 37.2916 19.8874 36.9535 20.6374 36.6155L21.634 36.1645C26.5377 33.951 30.7717 32.0392 34.3254 25.5338L34.3805 25.4317H37.008L36.867 25.7148C32.8873 33.7413 27.2382 36.2686 22.2563 38.4976L21.5912 38.795C20.8115 39.1407 19.99 39.4765 19.1256 39.8298C14.2824 41.8074 8.25465 44.2701 4.95407 50.9084C4.87699 51.0236 4.79991 51.0873 4.73273 51.1432L4.60497 51.2606ZM3.31547 50.8678H4.45189C4.4596 50.8612 4.46951 50.8535 4.47832 50.8458C4.53338 50.7986 4.58073 50.7591 4.61377 50.7119C7.96706 43.9638 14.0698 41.4716 18.9744 39.4688C19.84 39.1143 20.656 38.7818 21.429 38.4383L22.0941 38.1409C27.195 35.8593 32.4675 33.4997 36.3702 25.8256H34.6149C31.0096 32.365 26.5332 34.3855 21.798 36.5232L20.8014 36.9743C20.0448 37.3155 19.2068 37.6558 18.3214 38.0157C13.6282 39.9208 7.7874 42.2924 4.03126 48.5093L3.86499 48.7848L3.6943 48.5126C3.51701 48.2295 3.35843 47.8992 3.20536 47.5041C2.43011 45.3521 2.13608 42.5922 2.02597 40.6574L2.02267 40.541C1.99624 39.7201 1.97091 38.9421 1.97091 38.2156C1.99624 33.3056 2.7759 29.2475 4.355 25.8256L2.63161 25.8278C1.1472 29.2957 0.395074 33.4076 0.395074 38.0551V38.2187C0.395074 38.7487 0.419299 39.2843 0.443526 39.8516C0.45564 40.1413 0.468854 40.4332 0.478765 40.7263C0.598796 43.5413 1.03708 46.0827 1.74295 48.0768C2.18453 49.0809 2.66355 49.9533 3.24719 50.8159C3.2604 50.8269 3.28574 50.8458 3.31547 50.8678Z" fill="#5B7D96"/>
<path d="M4.60497 51.2606H3.18441L3.13265 51.22C3.05226 51.1608 2.995 51.1191 2.93664 51.0521C2.32546 50.1522 1.83432 49.2568 1.37845 48.2186C0.653859 46.1763 0.208988 43.5952 0.0856531 40.7397C0.0757423 40.4456 0.063629 40.1559 0.0504146 39.8661C0.026188 39.3207 0.00195312 38.7534 0.00195312 38.2156V38.0521C0.00195312 33.298 0.781604 29.0907 2.3211 25.5492L2.37286 25.4307H4.9794L4.84506 25.7127C3.20317 29.141 2.39159 33.2312 2.36624 38.2156C2.36624 38.9344 2.39157 39.707 2.418 40.5268L2.4213 40.6387C2.53032 42.5438 2.81771 45.2621 3.57537 47.3658C3.66897 47.6083 3.76588 47.8256 3.86721 48.0199C7.70171 41.8985 13.7438 39.4467 18.1718 37.6504C19.0538 37.2916 19.8874 36.9535 20.6374 36.6155L21.634 36.1645C26.5377 33.951 30.7717 32.0392 34.3254 25.5338L34.3805 25.4317H37.008L36.867 25.7148C32.8873 33.7413 27.2382 36.2686 22.2563 38.4976L21.5912 38.795C20.8115 39.1407 19.99 39.4765 19.1256 39.8298C14.2824 41.8074 8.25465 44.2701 4.95407 50.9084C4.87699 51.0236 4.79991 51.0873 4.73273 51.1432L4.60497 51.2606ZM3.31547 50.8678H4.45189C4.4596 50.8612 4.46951 50.8535 4.47832 50.8458C4.53338 50.7986 4.58073 50.7591 4.61377 50.7119C7.96706 43.9638 14.0698 41.4716 18.9744 39.4688C19.84 39.1143 20.656 38.7818 21.429 38.4383L22.0941 38.1409C27.195 35.8593 32.4675 33.4997 36.3702 25.8256H34.6149C31.0096 32.365 26.5332 34.3855 21.798 36.5232L20.8014 36.9743C20.0448 37.3155 19.2068 37.6558 18.3214 38.0157C13.6282 39.9208 7.7874 42.2924 4.03126 48.5093L3.86499 48.7848L3.6943 48.5126C3.51701 48.2295 3.35843 47.8992 3.20536 47.5041C2.43011 45.3521 2.13608 42.5922 2.02597 40.6574L2.02267 40.541C1.99624 39.7201 1.97091 38.9421 1.97091 38.2156C1.99624 33.3056 2.7759 29.2475 4.355 25.8256L2.63161 25.8278C1.1472 29.2957 0.395074 33.4076 0.395074 38.0551V38.2187C0.395074 38.7487 0.419299 39.2843 0.443526 39.8516C0.45564 40.1413 0.468854 40.4332 0.478765 40.7263C0.598796 43.5413 1.03708 46.0827 1.74295 48.0768C2.18453 49.0809 2.66355 49.9533 3.24719 50.8159C3.2604 50.8269 3.28574 50.8458 3.31547 50.8678Z" fill="#5B7D96"/>
<path d="M37.7731 76.5003C37.5231 75.5126 37.2169 74.5996 36.8579 73.7875C36.7048 74.0706 36.664 74.4372 36.5528 74.6918C36.2477 75.37 35.9415 75.9066 35.5957 76.4992L37.7731 76.5003Z" fill="#5B7D96"/>
<path d="M38.0275 76.697H35.252L35.4238 76.4007C35.763 75.8234 36.0659 75.2901 36.3732 74.6108C36.4161 74.5131 36.447 74.3924 36.48 74.2673C36.5285 74.0829 36.5858 73.8755 36.6838 73.6933L36.8743 73.3389L37.0384 73.7054C37.3986 74.5153 37.7114 75.4393 37.9658 76.4489L38.0275 76.697ZM35.9381 76.3041H37.5197C37.3314 75.5963 37.1144 74.9356 36.8721 74.331C36.8688 74.3452 36.8655 74.3573 36.8611 74.3716C36.8236 74.5164 36.784 74.6547 36.7333 74.771C36.4734 75.3505 36.2146 75.8246 35.9381 76.3041Z" fill="#5B7D96"/>
<path d="M3.91543 76.1909L3.72602 75.9089C3.13909 75.0376 2.68429 74.2156 2.29447 73.3289C1.42673 70.9124 1.14372 68.0899 1.05672 66.1453C0.747275 60.082 1.51592 55.1218 3.40558 50.9821L3.76566 51.1456C1.90241 55.2249 1.14699 60.1259 1.45314 66.1264C1.57427 68.8777 1.99274 71.3162 2.66227 73.1828C2.99483 73.9411 3.38576 74.6588 3.8703 75.4073C7.44602 68.5243 13.617 66.0132 18.5901 63.9896C19.4634 63.6352 20.286 63.3005 21.0469 62.9602L21.8673 62.5904C26.6938 60.4197 31.6822 58.1721 35.4231 50.9722L35.7755 51.1532C31.9709 58.4751 26.9174 60.7501 22.0302 62.9493L21.2098 63.3191C20.4423 63.6626 19.6153 63.9985 18.742 64.354C13.7579 66.3821 7.55594 68.9049 4.07297 75.8857L3.91543 76.1909Z" fill="#5B7D96"/>
<path d="M38.7732 76.5004C38.4813 75.3711 38.1619 74.3099 37.7467 73.3715C37.5804 73.0258 37.2478 72.7646 36.859 72.7646C36.4702 72.7646 36.1232 73.0258 35.9713 73.3715C35.7774 73.8171 35.7213 74.1836 35.6662 74.2396C35.305 75.0736 34.9161 75.7858 34.5273 76.5003L38.7732 76.5004Z" fill="#5B7D96"/>
<path d="M39.0274 76.6966H34.1943L34.3518 76.4058C34.7351 75.7024 35.1272 74.9835 35.4819 74.1627L35.5215 74.1034C35.5182 74.0968 35.5336 74.0354 35.5568 73.9542C35.603 73.795 35.6724 73.5558 35.7869 73.2935C35.9797 72.8578 36.4092 72.567 36.8575 72.567C37.2948 72.567 37.7133 72.8501 37.9236 73.2858C38.2948 74.1232 38.6153 75.0988 38.9645 76.4509L39.0274 76.6966ZM34.8575 76.3038H38.5165C38.1993 75.0988 37.9008 74.211 37.5648 73.4517C37.4228 73.1554 37.143 72.9611 36.8578 72.9611C36.5626 72.9611 36.2795 73.1576 36.1507 73.4517C36.0482 73.6909 35.9844 73.906 35.937 74.064C35.8995 74.2012 35.8753 74.2824 35.8379 74.3406C35.524 75.0583 35.1868 75.6936 34.8575 76.3038Z" fill="#5B7D96"/>
<path d="M37.8568 60.5231C37.8568 57.0827 37.4957 53.7137 36.8019 51.0667H38.7719C39.4646 53.8848 39.7983 57.1628 39.7983 60.5231C39.7983 66.0048 38.9658 71.4918 37.467 75.0738C37.217 75.5962 36.9395 76.0209 36.705 76.5004H34.4993C34.888 75.786 35.2756 75.0815 35.6379 74.2694C36.9968 71.1605 37.8568 65.7635 37.8568 60.5231ZM34.5269 51.0645H36.802C32.6394 59.4971 26.8118 61.7216 21.5108 64.0393C16.2106 66.4822 8.57941 68.4324 4.69444 76.4984H2.50195C6.6646 66.9771 15.572 64.4917 20.7202 62.2453C25.8958 59.9143 30.6972 58.1211 34.5272 51.0647L34.5269 51.0645Z" fill="#5B7D96"/>
<path d="M36.828 76.6966H34.1664L34.3801 76.3049C34.7412 75.6409 35.1157 74.955 35.457 74.1868C36.7961 71.1283 37.6605 65.7643 37.6605 60.5217C37.6605 57.2622 37.3357 54.1292 36.7399 51.626C32.7459 59.3726 27.2013 61.7814 22.2998 63.9115L21.5928 64.2188C20.7449 64.6106 19.8419 64.987 18.8871 65.3842C13.8337 67.4891 8.1053 69.8759 4.87661 76.5822L4.82264 76.6941H2.20508L2.32511 76.4187C5.99865 68.0158 13.2578 65.0769 18.5568 62.9291C19.3001 62.6284 20.0027 62.3442 20.6436 62.0621L21.5873 61.6407C26.3214 59.5293 30.7921 57.5342 34.3557 50.9673L34.413 50.8652H38.93L38.9664 51.0145C39.6425 53.758 39.9993 57.0448 39.9993 60.5181C39.9993 66.1644 39.1216 71.6326 37.6537 75.1444C37.515 75.4352 37.3729 75.6887 37.232 75.9378C37.1119 76.1518 36.9952 76.3614 36.8851 76.5831L36.828 76.6966ZM34.8305 76.3038H36.5825C36.6783 76.115 36.7796 75.9339 36.882 75.7496C37.0196 75.507 37.1584 75.2623 37.2872 74.988C38.7331 71.531 39.5997 66.1198 39.5997 60.5219C39.5997 57.143 39.2584 53.9439 38.6142 51.2618H37.0549C37.6991 53.8386 38.0526 57.1132 38.0526 60.5219C38.0526 65.8147 37.1749 71.2402 35.816 74.346C35.5022 75.056 35.1619 75.6914 34.8305 76.3038ZM2.80574 76.3038H4.57096C7.87774 69.5469 13.8925 67.0404 18.7334 65.0235C19.6849 64.6273 20.5824 64.2531 21.4303 63.8624L22.1427 63.553C27.2611 61.3285 32.5547 59.0293 36.4848 51.263H34.6458C31.0272 57.8639 26.5201 59.8755 21.7474 62.0033L20.8037 62.4269C20.155 62.71 19.4503 62.9954 18.7026 63.2983C13.5236 65.3943 6.45306 68.2585 2.80574 76.3038Z" fill="#5B7D96"/>
<path d="M4.52716 76.5001C4.61085 76.4233 4.70666 76.3585 4.77713 76.2598C8.69086 68.3924 16.2649 66.3862 21.5109 64.0544C26.7549 61.6949 32.5693 59.3781 36.6899 51.0654H34.4974C30.6674 58.0791 25.9224 59.858 20.7192 62.2328C16.0711 64.3299 8.38462 66.3581 3.86085 73.8445C3.66704 73.5329 3.51397 73.1949 3.38843 72.8689C2.7222 71.0187 2.36212 68.5177 2.22336 66.0814C2.19473 65.2276 2.1683 64.4079 2.1683 63.6529C2.19693 58.2425 3.15388 54.224 4.66583 51.0665H2.50196C1.08693 54.3215 0.198242 58.3633 0.198242 63.4905V63.6529C0.198242 64.4661 0.253309 65.3122 0.281942 66.1671C0.392061 68.7603 0.780775 71.3875 1.55932 73.5768C2.03174 74.6501 2.53057 75.5401 3.08559 76.3599C3.14065 76.4246 3.19571 76.4586 3.25187 76.5014L4.52706 76.5025L4.52716 76.5001Z" fill="#5B7D96"/>
<path d="M4.60497 76.6965H3.18441L3.13265 76.6559C3.05226 76.5967 2.995 76.555 2.93664 76.488C2.33539 75.6024 1.82992 74.6817 1.37845 73.6567C0.65276 71.6133 0.206789 69.0311 0.0856531 66.1756C0.0757423 65.8815 0.063629 65.5918 0.0504146 65.302C0.026188 64.7566 0.00195312 64.1915 0.00195312 63.6515V63.4891C0.00195312 58.7351 0.781603 54.5277 2.3211 50.9862L2.37286 50.8677H4.9794L4.84506 51.1497C3.20317 54.578 2.39159 58.6671 2.36624 63.6526C2.36624 64.3736 2.39157 65.1473 2.418 65.9682L2.4213 66.0746C2.53032 67.9797 2.81771 70.6981 3.57537 72.8017C3.66897 73.0443 3.76588 73.2615 3.86721 73.4558C7.70171 67.3355 13.7438 64.8826 18.1729 63.0863C19.055 62.7275 19.8885 62.3894 20.6385 62.0514L21.6328 61.6015C26.5366 59.388 30.7717 57.4762 34.3252 50.9708L34.3802 50.8687H37.0077L36.8668 51.1518C32.8871 59.1783 27.2402 61.7056 22.2572 63.9346L21.5909 64.232C20.8113 64.5777 19.9898 64.9146 19.122 65.269C14.28 67.2466 8.25309 69.7093 4.95167 76.3464C4.87459 76.4617 4.79751 76.5253 4.73033 76.5813L4.60497 76.6965ZM3.31547 76.3037H4.45189C4.4596 76.296 4.46951 76.2894 4.47832 76.2817C4.53338 76.2345 4.58073 76.195 4.61377 76.1479C7.96593 69.4019 14.0687 66.9097 18.9724 64.9069C19.838 64.5524 20.6551 64.2199 21.4292 63.8753L22.0955 63.5768C27.1952 61.2953 32.4677 58.9357 36.3704 51.2627H34.6151C31.0098 57.8021 26.5322 59.8226 21.7959 61.9603L20.8015 62.4103C20.045 62.7515 19.207 63.0918 18.3216 63.4517C13.6284 65.3568 7.78757 67.7284 4.0303 73.9453L3.86402 74.2208L3.69334 73.9486C3.51604 73.6655 3.35747 73.3363 3.20439 72.9401C2.42915 70.7881 2.13512 68.0282 2.02501 66.0933L2.0217 65.9814C1.99527 65.1572 1.96995 64.3803 1.96995 63.6527C1.99527 58.7427 2.77493 54.6868 4.35404 51.2627L2.63175 51.2638C1.14734 54.7295 0.395211 58.8427 0.395211 63.4911V63.6535C0.395211 64.1836 0.419436 64.7202 0.443664 65.2865C0.455777 65.5762 0.468992 65.8681 0.478902 66.1611C0.598933 68.9761 1.03722 71.5175 1.74309 73.5116C2.18467 74.5169 2.66479 75.3904 3.24732 76.2486C3.26054 76.2629 3.28574 76.2795 3.31547 76.3037Z" fill="#5B7D96"/>
<path d="M37.7731 101.933C37.5231 100.944 37.2169 100.033 36.8579 99.2195C36.7048 99.5026 36.664 99.8692 36.5528 100.124C36.2477 100.802 35.9415 101.336 35.5957 101.931L37.7732 101.932L37.7731 101.933Z" fill="#5B7D96"/>
<path d="M38.0264 102.13H35.252L35.4227 101.834C35.7641 101.25 36.0681 100.713 36.3721 100.044C36.415 99.9451 36.4459 99.8233 36.4789 99.6993C36.5274 99.5171 36.5835 99.3075 36.6827 99.1253L36.8732 98.7709L37.0373 99.1374C37.3975 99.9495 37.7103 100.872 37.9647 101.883L38.0264 102.13ZM35.937 101.737H37.5186C37.3303 101.029 37.1133 100.369 36.871 99.763C36.8677 99.7773 36.8644 99.7915 36.86 99.8036C36.8225 99.9484 36.7829 100.087 36.7322 100.203C36.4756 100.779 36.2157 101.252 35.937 101.737Z" fill="#5B7D96"/>
<path d="M38.7732 101.934C38.4813 100.802 38.1619 99.7432 37.7467 98.8049C37.5804 98.4592 37.2478 98.198 36.859 98.198C36.4702 98.198 36.1232 98.4592 35.9713 98.8049C35.7774 99.2504 35.7213 99.6181 35.6662 99.6751C35.305 100.507 34.9161 101.22 34.5273 101.936H38.7733L38.7732 101.934Z" fill="#5B7D96"/>
<path d="M39.0274 102.13H34.1943L34.3518 101.84C34.7384 101.128 35.1283 100.413 35.4819 99.5942L35.5215 99.536C35.5182 99.5283 35.5336 99.468 35.5568 99.3868C35.603 99.2265 35.6724 98.9873 35.7869 98.7239C35.9775 98.2893 36.407 97.9985 36.8564 97.9985C37.2937 97.9985 37.7122 98.2817 37.9225 98.7173C38.2948 99.5558 38.6142 100.53 38.9634 101.882L39.0274 102.13ZM34.8575 101.737H38.5165C38.1993 100.534 37.9019 99.6469 37.5648 98.8854C37.4228 98.5891 37.143 98.3948 36.8578 98.3948C36.5626 98.3948 36.2795 98.5913 36.1507 98.8854C36.0482 99.1224 35.9844 99.3397 35.9392 99.4977C35.8995 99.636 35.8764 99.7183 35.8379 99.7765C35.524 100.492 35.1868 101.127 34.8575 101.737Z" fill="#5B7D96"/>
<path d="M37.8568 85.9593C37.8568 82.5189 37.4957 79.1499 36.8019 76.5006H38.7719C39.4646 79.3187 39.7983 82.5956 39.7983 85.9593C39.7983 91.4387 38.9658 96.928 37.467 100.509C37.217 101.031 36.9395 101.456 36.705 101.935H34.4993C34.888 101.221 35.2756 100.517 35.6379 99.7033C36.9968 96.5945 37.8568 91.1993 37.8568 85.9593ZM34.5269 76.5006H36.8019C32.6392 84.9333 26.8118 87.1578 21.5108 89.4755C16.2106 91.9205 8.57941 93.8697 4.69444 101.936H2.50195C6.6646 92.4144 15.572 89.9267 20.7202 87.6803C25.8958 85.3505 30.6972 83.5572 34.5272 76.5009L34.5269 76.5006Z" fill="#5B7D96"/>
<path d="M36.8284 102.13H34.1668L34.3892 101.721C34.7493 101.064 35.1182 100.381 35.4563 99.6205C36.7954 96.5619 37.6598 91.1979 37.6598 85.9553C37.6598 82.6959 37.335 79.5629 36.7392 77.0597C32.7451 84.8063 27.2006 87.2151 22.299 89.3451L21.5921 89.6524C20.7442 90.0442 19.8412 90.4206 18.8842 90.8179C13.8307 92.9249 8.1035 95.3107 4.87368 102.016L4.81972 102.128H2.20215L2.32218 101.852C5.99572 93.4494 13.2526 90.5094 18.5527 88.3628C19.296 88.0621 20.0008 87.7757 20.6417 87.4958L21.5855 87.0722C26.3195 84.9608 30.7903 82.968 34.3539 76.401L34.4112 76.299H38.9282L38.9645 76.4482C39.6406 79.1917 39.9975 82.4786 39.9975 85.9541C39.9975 91.6004 39.1198 97.0677 37.6519 100.579C37.5131 100.87 37.3711 101.124 37.2323 101.371C37.1123 101.585 36.9945 101.795 36.8833 102.017L36.8284 102.13ZM34.8308 101.737H36.5828C36.6808 101.549 36.7821 101.367 36.8845 101.181C37.02 100.941 37.1587 100.694 37.2887 100.423C38.7346 96.9658 39.6012 91.5546 39.6012 85.9577C39.6012 82.5789 39.2598 79.3787 38.6156 76.6954H37.0563C37.7005 79.2722 38.054 82.548 38.054 85.9577C38.054 91.2484 37.1764 96.675 35.8175 99.7808C35.5025 100.49 35.1623 101.125 34.8308 101.737ZM2.8061 101.737H4.57132C7.87809 94.9806 13.8929 92.474 18.7315 90.4572C19.683 90.061 20.5816 89.6868 21.4284 89.2961L22.1408 88.9866C27.2592 86.7632 32.5528 84.4652 36.4829 76.6967H34.6439C31.0253 83.2976 26.5182 85.3103 21.7455 87.437L20.8018 87.8606C20.1531 88.1437 19.4473 88.429 18.7007 88.7319C13.5229 90.8269 6.45342 93.6922 2.8061 101.737Z" fill="#5B7D96"/>
<path d="M4.52729 101.934C4.61098 101.855 4.70678 101.792 4.77726 101.693C8.69098 93.8258 16.265 91.8196 21.511 89.4878C26.7551 87.1295 32.5694 84.8116 36.69 76.4989H34.4976C30.6676 83.5125 25.9225 85.2937 20.7193 87.6662C16.0712 89.7645 8.38474 91.7915 3.86097 99.278C3.66716 98.9685 3.51409 98.6283 3.38856 98.3046C2.72232 96.4533 2.36224 93.9534 2.22349 91.5171C2.19485 90.6611 2.16843 89.8436 2.16843 89.0864C2.19706 83.6772 3.154 79.6575 4.66596 76.5H2.50209C1.08705 79.755 0.198367 83.7968 0.198367 88.924L0.197266 89.0853C0.197266 89.8985 0.252332 90.7468 0.280966 91.6006C0.391084 94.1916 0.779798 96.8187 1.55834 99.0092C2.03076 100.084 2.5296 100.973 3.08462 101.793C3.13968 101.856 3.19474 101.891 3.2509 101.935L4.52718 101.936L4.52729 101.934Z" fill="#5B7D96"/>
<path d="M4.60631 102.13H3.18355L3.12959 102.089C3.047 102.028 2.99414 101.988 2.93578 101.923C2.3235 101.022 1.83237 100.126 1.37649 99.0879C0.651906 97.0456 0.207026 94.4656 0.0836914 91.609C0.0737806 91.316 0.0616673 91.0252 0.0484529 90.7377C0.0242266 90.1901 0 89.6249 0 89.0861V88.9237C0 84.1696 0.779642 79.9623 2.31914 76.4207L2.3709 76.3022H4.97744L4.84309 76.5843C3.20121 80.0126 2.38962 84.1016 2.36428 89.0872C2.36428 89.8049 2.38961 90.5775 2.41604 91.3972L2.41934 91.5103C2.52836 93.4154 2.81576 96.1326 3.57342 98.2374C3.66812 98.4799 3.76392 98.6983 3.86524 98.8914C7.69975 92.7712 13.7396 90.3205 18.1676 88.522C19.0518 88.162 19.8854 87.8251 20.6353 87.4849L21.6264 87.036C26.531 84.8236 30.7687 82.913 34.3221 76.4042L34.3772 76.3021H37.0047L36.8637 76.5853C32.884 84.6139 27.2337 87.139 22.2519 89.368L21.5889 89.6654C20.8093 90.0111 19.99 90.3469 19.1233 90.6992C14.2802 92.6778 8.25241 95.1394 4.94986 101.778C4.87278 101.893 4.79679 101.955 4.73072 102.01C4.70539 102.032 4.68227 102.051 4.65914 102.073L4.60631 102.13ZM3.3179 101.737H4.45324C4.46315 101.729 4.47196 101.722 4.48187 101.713C4.53693 101.667 4.58318 101.626 4.61621 101.579C7.96951 94.8332 14.0722 92.3388 18.9769 90.3359C19.8402 89.9837 20.6584 89.6501 21.4303 89.3066L22.0933 89.0103C27.1941 86.7287 32.4666 84.3691 36.3705 76.695H34.6152C31.0076 83.2367 26.5312 85.2572 21.7917 87.396L20.8018 87.8426C20.0452 88.1861 19.2061 88.5274 18.3197 88.8851C13.6265 90.7902 7.78674 93.1619 4.03032 99.3777L3.86404 99.6531L3.69335 99.381C3.51826 99.0989 3.35859 98.7708 3.20441 98.3724C2.42917 96.2204 2.13514 93.4605 2.02502 91.5245L2.02172 91.406C1.99529 90.5851 1.96996 89.8071 1.96996 89.0828C1.99529 84.1728 2.77495 80.1169 4.35406 76.6928L2.63287 76.695C1.14846 80.1607 0.396329 84.2739 0.396329 88.9223V89.0847C0.396329 89.6148 0.420555 90.1514 0.444782 90.7177C0.456896 91.0085 0.47011 91.2993 0.480021 91.5945C0.600051 94.4096 1.03834 96.9498 1.74421 98.9428C2.18469 99.9469 2.66481 100.819 3.24844 101.682C3.25945 101.694 3.28699 101.714 3.31782 101.737L3.3179 101.737Z" fill="#5B7D96"/>
<path d="M37.7731 127.37C37.5231 126.382 37.2169 125.471 36.8579 124.657C36.7048 124.94 36.664 125.307 36.5528 125.56C36.2477 126.24 35.9415 126.775 35.5957 127.368H37.7732L37.7731 127.37Z" fill="#5B7D96"/>
<path d="M38.0275 127.564H35.252L35.4238 127.267C35.763 126.688 36.0681 126.154 36.3732 125.477C36.4161 125.38 36.447 125.259 36.48 125.134C36.5285 124.95 36.5858 124.742 36.6838 124.56L36.8743 124.206L37.0384 124.572C37.3986 125.382 37.7092 126.306 37.9658 127.316L38.0275 127.564ZM35.9381 127.171H37.5197C37.3314 126.463 37.1144 125.802 36.8721 125.198C36.8688 125.212 36.8655 125.224 36.8611 125.237C36.8236 125.382 36.784 125.52 36.7333 125.637C36.4756 126.215 36.2146 126.689 35.9381 127.171Z" fill="#5B7D96"/>
<path d="M38.7732 127.37C38.4813 126.24 38.1619 125.179 37.7467 124.242C37.5804 123.896 37.2478 123.633 36.859 123.633C36.4702 123.633 36.1232 123.895 35.9713 124.242C35.7774 124.685 35.7213 125.054 35.6662 125.11C35.305 125.944 34.9161 126.656 34.5273 127.371H38.7733L38.7732 127.37Z" fill="#5B7D96"/>
<path d="M39.0274 127.564H34.1943L34.354 127.273C34.7329 126.576 35.1261 125.855 35.483 125.028L35.5226 124.969C35.5193 124.962 35.5347 124.901 35.5579 124.82C35.6041 124.661 35.6735 124.422 35.788 124.159C35.9786 123.725 36.4103 123.433 36.8575 123.433C37.2937 123.433 37.7133 123.716 37.9237 124.154C38.2948 124.988 38.6153 125.961 38.9645 127.318L39.0274 127.564ZM34.8575 127.171H38.5165C38.1971 125.964 37.9008 125.077 37.5648 124.32C37.4217 124.024 37.143 123.829 36.8578 123.829C36.5637 123.829 36.2795 124.026 36.1507 124.32C36.046 124.557 35.9844 124.773 35.937 124.932C35.8995 125.069 35.8742 125.151 35.8379 125.209C35.524 125.924 35.1868 126.56 34.8575 127.171Z" fill="#5B7D96"/>
<path d="M37.8568 111.393C37.8568 107.954 37.4957 104.586 36.8019 101.936H38.7719C39.4646 104.755 39.7983 108.031 39.7983 111.393C39.7983 116.875 38.9658 122.363 37.467 125.944C37.217 126.466 36.9395 126.891 36.705 127.369H34.4993C34.888 126.657 35.2756 125.95 35.6379 125.138C36.9968 122.029 37.8568 116.634 37.8568 111.393ZM34.5269 101.935H36.802C32.6394 110.368 26.8118 112.592 21.5108 114.91C16.2106 117.353 8.57941 119.303 4.69444 127.369H2.50195C6.6646 117.848 15.572 115.363 20.7202 113.116C25.8958 110.785 30.6972 108.99 34.5272 101.936L34.5269 101.935Z" fill="#5B7D96"/>
<path d="M36.8284 127.564H34.1668L34.3695 127.193C34.734 126.522 35.1128 125.831 35.4553 125.058C36.7943 122 37.6588 116.636 37.6588 111.391C37.6588 108.133 37.3339 105.001 36.7382 102.498C32.7441 110.244 27.1995 112.653 22.298 114.783L21.591 115.09C20.7431 115.482 19.8423 115.856 18.8865 116.255C13.8319 118.362 8.10237 120.746 4.87368 127.453L4.81972 127.565H2.20215L2.32218 127.289C5.99572 118.888 13.2517 115.947 18.5505 113.802C19.2971 113.501 19.9986 113.217 20.6406 112.935L21.581 112.513C26.3151 110.402 30.7881 108.407 34.3528 101.84L34.4101 101.738H38.9271L38.9634 101.887C39.6396 104.631 39.9964 107.918 39.9964 111.391C39.9964 117.039 39.1187 122.505 37.6508 126.017C37.5121 126.31 37.3678 126.565 37.2279 126.813C37.109 127.026 36.9912 127.234 36.8822 127.452L36.8284 127.564ZM34.8309 127.171H36.5829C36.6787 126.983 36.78 126.804 36.8824 126.62C37.0178 126.377 37.1566 126.129 37.2876 125.857C38.7335 122.4 39.6002 116.989 39.6002 111.391C39.6002 108.012 39.2588 104.813 38.6146 102.131H37.0553C37.6995 104.708 38.053 107.982 38.053 111.391C38.053 116.684 37.1753 122.109 35.8164 125.215C35.5026 125.923 35.1623 126.558 34.8309 127.171ZM2.80616 127.171H4.57138C7.87815 120.414 13.8952 117.906 18.735 115.89C19.6853 115.494 20.5817 115.121 21.4296 114.73L22.1421 114.421C27.2604 112.198 32.5541 109.899 36.4841 102.131H34.6451C31.0266 108.732 26.5183 110.745 21.7445 112.874L20.8041 113.295C20.1555 113.578 19.4496 113.863 18.6997 114.166C13.523 116.261 6.45348 119.127 2.80616 127.171Z" fill="#5B7D96"/>
<path d="M4.52716 127.37C4.61085 127.293 4.70666 127.228 4.77713 127.131C8.69086 119.263 16.2649 117.257 21.5109 114.925C26.7549 112.567 32.5693 110.249 36.6899 101.936H34.4974C30.6674 108.95 25.9224 110.729 20.7192 113.104C16.0711 115.201 8.38462 117.229 3.86085 124.715C3.66704 124.404 3.51397 124.066 3.38843 123.74C2.7222 121.89 2.36212 119.389 2.22336 116.952C2.19473 116.098 2.1683 115.28 2.1683 114.524C2.19693 109.113 3.15388 105.095 4.66583 101.937H2.50196C1.08693 105.192 0.198242 109.234 0.198242 114.36V114.524C0.198242 115.337 0.253309 116.183 0.281942 117.039C0.392061 119.63 0.780775 122.257 1.55932 124.448C2.03174 125.522 2.53057 126.411 3.08559 127.231C3.14065 127.295 3.19571 127.329 3.25187 127.372L4.52706 127.373L4.52716 127.37Z" fill="#5B7D96"/>
<path d="M4.60522 127.564H3.18576L3.13179 127.524C3.05581 127.47 2.99414 127.426 2.93468 127.354C2.3235 126.458 1.83459 125.562 1.37649 124.523C0.651906 122.481 0.207026 119.901 0.0836913 117.044C0.0737806 116.75 0.0616673 116.459 0.0484529 116.17C0.0242266 115.624 0 115.06 0 114.521V114.358C0 109.604 0.779642 105.398 2.31914 101.857L2.3709 101.739H4.97744L4.84309 102.021C3.20121 105.449 2.38962 109.538 2.36428 114.523C2.36428 115.242 2.38961 116.015 2.41604 116.836L2.41934 116.944C2.52836 118.852 2.81576 121.57 3.57342 123.671C3.66702 123.914 3.76282 124.131 3.86524 124.326C7.70173 118.204 13.743 115.752 18.1732 113.955C19.0552 113.596 19.8878 113.259 20.6355 112.921L21.6332 112.47C26.5347 110.258 30.7709 108.347 34.3224 101.842L34.3775 101.74H37.0049L36.864 102.024C32.8843 110.052 27.234 112.578 22.2521 114.807L21.5892 115.104C20.8096 115.45 19.9903 115.785 19.1236 116.138C14.2804 118.116 8.25269 120.578 4.95014 127.216C4.87086 127.331 4.79377 127.395 4.7277 127.452L4.60522 127.564ZM3.31681 127.171H4.45547C4.46318 127.165 4.47089 127.157 4.4797 127.15C4.53366 127.106 4.58431 127.063 4.61845 127.013C7.97061 120.268 14.0745 117.775 18.9791 115.77C19.8424 115.418 20.6606 115.084 21.4326 114.741L22.0955 114.444C27.1964 112.163 32.4689 109.803 36.3727 102.129H34.6174C31.0121 108.667 26.5379 110.688 21.8016 112.827L20.8039 113.277C20.0474 113.62 19.2105 113.958 18.3273 114.317C13.6341 116.222 7.79098 118.594 4.03371 124.812L3.86743 125.088L3.69895 124.816C3.52055 124.529 3.36088 124.199 3.21 123.806C2.43696 121.655 2.14293 118.896 2.03062 116.958L2.02731 116.845C2.00088 116.024 1.97556 115.245 1.97556 114.519C2.00088 109.609 2.78054 105.553 4.35965 102.129H2.63297C1.14855 105.594 0.396424 109.708 0.396424 114.355V114.519C0.396424 115.049 0.42065 115.584 0.443776 116.151C0.455889 116.441 0.470205 116.734 0.479014 117.029C0.599045 119.844 1.03733 122.384 1.7432 124.377C2.18478 125.382 2.6638 126.256 3.24744 127.114C3.26175 127.131 3.28708 127.149 3.31681 127.171V127.171Z" fill="#5B7D96"/>
<path d="M37.7731 152.803C37.5231 151.814 37.2169 150.903 36.8579 150.091C36.7048 150.374 36.664 150.74 36.5528 150.994C36.2477 151.672 35.9415 152.209 35.5957 152.801H37.7732L37.7731 152.803Z" fill="#5B7D96"/>
<path d="M38.0275 153H35.252L35.4238 152.703C35.7619 152.127 36.0648 151.594 36.3732 150.914C36.4161 150.816 36.447 150.695 36.48 150.57C36.5285 150.386 36.5858 150.178 36.6838 149.996L36.8743 149.642L37.0384 150.008C37.3986 150.817 37.7092 151.74 37.9658 152.752L38.0275 153ZM35.9381 152.607H37.5197C37.3314 151.899 37.1144 151.236 36.8743 150.634C36.8699 150.646 36.8666 150.66 36.8622 150.673C36.8247 150.818 36.7851 150.956 36.7344 151.073C36.4734 151.651 36.208 152.136 35.9381 152.607Z" fill="#5B7D96"/>
<path d="M3.91543 152.494L3.72602 152.212C3.14239 151.344 2.68539 150.524 2.29447 149.63C1.42673 147.216 1.14372 144.393 1.05672 142.449C0.747275 136.386 1.51592 131.423 3.40558 127.285L3.76566 127.448C1.90241 131.53 1.14699 136.43 1.45314 142.43C1.57427 145.18 1.99274 147.62 2.66227 149.484C2.99703 150.246 3.38576 150.964 3.8703 151.709C7.44602 144.827 13.6159 142.316 18.5879 140.295C19.4611 139.939 20.2837 139.604 21.0458 139.264L21.8639 138.897C26.6916 136.724 31.6822 134.477 35.4231 127.275L35.7755 127.456C31.9698 134.779 26.9163 137.054 22.0269 139.254L21.2087 139.624C20.4411 139.968 19.6142 140.303 18.7398 140.659C13.7557 142.685 7.55484 145.209 4.07074 152.187L3.91543 152.494Z" fill="#5B7D96"/>
<path d="M38.7732 152.803C38.4813 151.672 38.1619 150.613 37.7467 149.674C37.5804 149.329 37.2478 149.067 36.859 149.067C36.4702 149.067 36.1232 149.329 35.9713 149.674C35.7774 150.12 35.7213 150.487 35.6662 150.545C35.305 151.376 34.9161 152.091 34.5273 152.805L38.7733 152.804L38.7732 152.803Z" fill="#5B7D96"/>
<path d="M39.0274 153H34.1943L34.354 152.709C34.7318 152.016 35.1228 151.298 35.483 150.464L35.5226 150.406C35.5193 150.398 35.5347 150.338 35.5579 150.256C35.6041 150.096 35.6735 149.857 35.788 149.594C35.9786 149.159 36.4081 148.868 36.8575 148.868C37.2948 148.868 37.7133 149.151 37.9237 149.587C38.2959 150.425 38.6153 151.4 38.9645 152.752L39.0274 153ZM34.8575 152.607H38.5165C38.1993 151.403 37.9019 150.517 37.5648 149.755C37.4228 149.459 37.143 149.264 36.8578 149.264C36.5626 149.264 36.2795 149.461 36.1507 149.755C36.0482 149.992 35.9844 150.209 35.9392 150.367C35.8995 150.506 35.8764 150.588 35.8379 150.646C35.5218 151.365 35.1868 151.999 34.8575 152.607Z" fill="#5B7D96"/>
<path d="M37.8568 136.826C37.8568 133.386 37.4957 130.017 36.8019 127.368H38.7719C39.4646 130.187 39.7983 133.464 39.7983 136.826C39.7983 142.306 38.9658 147.796 37.467 151.376C37.217 151.899 36.9395 152.323 36.705 152.803H34.4993C34.888 152.09 35.2756 151.384 35.6379 150.571C36.9968 147.462 37.8568 142.067 37.8568 136.826ZM34.5269 127.368H36.8019C32.6392 135.8 26.8118 138.027 21.5108 140.343C16.2106 142.788 8.57941 144.737 4.69444 152.803H2.50195C6.6646 143.282 15.572 140.796 20.7202 138.55C25.8958 136.219 30.6972 134.423 34.5272 127.368L34.5269 127.368Z" fill="#5B7D96"/>
<path d="M36.8285 153H34.1669L34.3695 152.629C34.734 151.958 35.1128 151.267 35.4553 150.492C36.7944 147.433 37.6588 142.069 37.6588 136.827C37.6588 133.567 37.334 130.434 36.7382 127.931C32.743 135.681 27.1951 138.09 22.2916 140.22L21.5901 140.524C20.7422 140.916 19.8392 141.292 18.8823 141.69C13.8288 143.797 8.10154 146.182 4.87173 152.887L4.81777 152.999H2.2002L2.32023 152.724C5.99377 144.323 13.2498 141.382 18.5485 139.237C19.2951 138.936 19.9966 138.652 20.6386 138.37L21.579 137.948C26.3131 135.837 30.7861 133.842 34.3509 127.274L34.4081 127.172H38.9251L38.9615 127.323C39.6376 130.067 39.9944 133.353 39.9944 136.827C39.9944 142.475 39.1167 147.941 37.6489 151.452C37.5101 151.745 37.3658 152 37.226 152.248C37.1071 152.461 36.9892 152.669 36.8802 152.89L36.8285 153ZM34.8309 152.607H36.5829C36.6787 152.419 36.7801 152.239 36.8825 152.055C37.0179 151.812 37.1567 151.565 37.2877 151.292C38.7336 147.837 39.6002 142.425 39.6002 136.827C39.6002 133.449 39.2589 130.249 38.6147 127.565H37.0554C37.6996 130.142 38.0531 133.417 38.0531 136.827C38.0531 142.118 37.1754 147.544 35.8165 150.65C35.5027 151.359 35.1624 151.994 34.8309 152.607ZM2.80623 152.607H4.57145C7.87823 145.85 13.893 143.343 18.7317 141.327C19.6831 140.93 20.5817 140.556 21.4285 140.165L22.1322 139.858C27.255 137.635 32.5484 135.337 36.4819 127.566H34.6429C31.0243 134.169 26.5138 136.181 21.7399 138.31L20.8006 138.731C20.152 139.014 19.4461 139.299 18.6962 139.602C13.5227 141.698 6.45299 144.563 2.80595 152.607H2.80623Z" fill="#5B7D96"/>
<path d="M4.52716 152.803C4.61085 152.724 4.70666 152.661 4.77713 152.564C8.69086 144.694 16.2649 142.69 21.5109 140.358C26.7549 137.999 32.5693 135.681 36.6899 127.368H34.4974C30.6674 134.382 25.9224 136.163 20.7192 138.537C16.0711 140.634 8.38462 142.66 3.86085 150.147C3.66704 149.838 3.51397 149.498 3.38843 149.174C2.7222 147.324 2.36212 144.823 2.22336 142.387C2.19473 141.533 2.1683 140.714 2.1683 139.958C2.19693 134.548 3.15388 130.528 4.66583 127.37H2.50196C1.08693 130.628 0.198242 134.667 0.198242 139.794V139.958C0.198242 140.77 0.253309 141.617 0.281942 142.472C0.392061 145.063 0.780775 147.693 1.55932 149.882C2.03174 150.956 2.53057 151.845 3.08559 152.665C3.14065 152.727 3.19571 152.763 3.25187 152.807H4.52706L4.52716 152.803Z" fill="#5B7D96"/>
<path d="M4.60631 152.999H3.18355L3.12959 152.959C3.047 152.897 2.99414 152.858 2.93578 152.792C2.3235 151.893 1.83347 150.999 1.37649 149.958C0.651906 147.916 0.207026 145.336 0.0836914 142.477C0.0737806 142.183 0.0616673 141.894 0.0484529 141.604C0.0242266 141.058 0 140.493 0 139.955V139.792C0 135.039 0.779642 130.833 2.31914 127.289L2.3709 127.171H4.97744L4.84309 127.453C3.20121 130.881 2.38962 134.97 2.36428 139.957C2.36428 140.675 2.38961 141.448 2.41604 142.269L2.41934 142.378C2.52836 144.285 2.81576 147.003 3.57342 149.105C3.66812 149.347 3.76392 149.565 3.86524 149.759C7.69975 143.637 13.7419 141.186 18.1709 139.388C19.053 139.031 19.8855 138.692 20.6354 138.354L21.6298 137.904C26.5336 135.691 30.7687 133.779 34.3221 127.272L34.3772 127.17H37.0047L36.8637 127.455C32.884 135.481 27.2371 138.008 22.2541 140.237L21.5879 140.536C20.8082 140.882 19.9867 141.217 19.1201 141.571C14.2769 143.548 8.25114 146.009 4.9486 152.648C4.87151 152.761 4.79662 152.825 4.73055 152.88C4.70522 152.901 4.6799 152.92 4.65788 152.942L4.60631 152.999ZM3.3179 152.607H4.45324C4.46315 152.599 4.47196 152.589 4.48297 152.581C4.53693 152.535 4.58428 152.497 4.61731 152.45C7.96948 145.704 14.0722 143.212 18.9771 141.209C19.8427 140.854 20.6598 140.522 21.4317 140.178L22.0979 139.881C27.1976 137.598 32.4702 135.238 36.3729 127.566H34.6176C31.0122 134.105 26.5347 136.126 21.7984 138.267L20.804 138.715C20.0475 139.059 19.2106 139.398 18.3252 139.757C13.632 141.661 7.79114 144.031 4.03387 150.249L3.86759 150.525L3.69691 150.253C3.52182 149.971 3.36215 149.642 3.20797 149.244C2.43493 147.093 2.14089 144.334 2.02858 142.396L2.02527 142.283C1.99885 141.462 1.97352 140.683 1.97352 139.957C1.99885 135.047 2.77851 130.989 4.35761 127.566L2.63313 127.564C1.14872 131.032 0.396588 135.143 0.396588 139.791V139.955C0.396588 140.485 0.420814 141.02 0.443939 141.586C0.456053 141.877 0.470368 142.168 0.479178 142.463C0.599208 145.279 1.0375 147.82 1.74337 149.814C2.18495 150.819 2.66396 151.692 3.24759 152.551C3.2597 152.564 3.28707 152.582 3.3179 152.607Z" fill="#5B7D96"/>
</svg>
