<svg width="32" height="32" viewBox="0 0 32 32" fill="none" xmlns="http://www.w3.org/2000/svg">
<path d="M16.188 11.6196V10.0805H26.6518V11.6196H16.188ZM16.188 5.00181V3.4628H32V5.00181H16.188ZM7.65802 32C5.53451 32 3.7273 31.2599 2.23638 29.7798C0.74546 28.2996 0 26.5054 0 24.3973C0 23.0019 0.377223 21.6918 1.13167 20.467C1.88611 19.2422 2.92991 18.2476 4.26307 17.4832V3.37047C4.26307 2.40002 4.58983 1.59566 5.24334 0.957395C5.89686 0.319131 6.69779 0 7.64613 0C8.59451 0 9.39294 0.319131 10.0414 0.957395C10.6899 1.59566 11.0142 2.40002 11.0142 3.37047V17.4832C12.3474 18.2476 13.3912 19.2422 14.1456 20.467C14.9 21.6918 15.2773 23.0019 15.2773 24.3973C15.2773 26.5054 14.5382 28.2996 13.0602 29.7798C11.5822 31.2599 9.7815 32 7.65802 32ZM1.55024 24.3973H13.727C13.727 23.243 13.4079 22.1535 12.7698 21.1288C12.1316 20.104 11.2493 19.2557 10.1228 18.5837L9.46399 18.2489V3.37047C9.46399 2.86565 9.28365 2.43421 8.92295 2.07615C8.56229 1.71805 8.14064 1.53901 7.65802 1.53901C7.14954 1.53901 6.71497 1.71805 6.3543 2.07615C5.99361 2.43421 5.81326 2.86565 5.81326 3.37047V18.2489L5.19321 18.5837C4.04089 19.2557 3.14565 20.106 2.50748 21.1345C1.86932 22.1631 1.55024 23.2507 1.55024 24.3973Z" fill="url(#paint0_linear_245_6093)"/>
<defs>
<linearGradient id="paint0_linear_245_6093" x1="16" y1="0" x2="16" y2="32" gradientUnits="userSpaceOnUse">
<stop stop-color="#F94242"/>
<stop offset="1" stop-color="#FE0F0F"/>
</linearGradient>
</defs>
</svg>
