<svg width="21" height="155" viewBox="0 0 21 155" fill="none" xmlns="http://www.w3.org/2000/svg">
<path d="M19.1332 90.4838C19.0066 89.9835 18.8515 89.521 18.6696 89.1096C18.5921 89.2525 18.5714 89.4387 18.5151 89.5677C18.3605 89.9112 18.2054 90.183 18.0303 90.4832L19.1332 90.4838Z" fill="#5B7D96"/>
<path d="M19.2614 90.5831H17.8555L17.9425 90.433C18.1138 90.1406 18.2677 89.8705 18.4234 89.527C18.4452 89.4775 18.4608 89.4163 18.4775 89.353C18.5021 89.2596 18.5311 89.154 18.5807 89.0622L18.6773 88.8838L18.7604 89.0695C18.9428 89.4791 19.1001 89.9466 19.2301 90.4592L19.2614 90.5831ZM18.203 90.3836H19.0042C18.9088 90.025 18.7989 89.6893 18.6761 89.3841C18.6745 89.3902 18.6728 89.3974 18.6706 89.4047C18.6516 89.4781 18.6315 89.5481 18.6058 89.607C18.4742 89.9011 18.3431 90.1401 18.203 90.3836Z" fill="#5B7D96"/>
<path d="M19.6399 90.4838C19.4921 89.9118 19.3303 89.3743 19.12 88.899C19.0357 88.7239 18.8673 88.5916 18.6703 88.5916C18.4734 88.5916 18.2976 88.7244 18.2207 88.899C18.1225 89.1246 18.094 89.3109 18.0661 89.3387C17.8831 89.7611 17.6862 90.1219 17.4893 90.4838L19.6399 90.4838Z" fill="#5B7D96"/>
<path d="M19.7684 90.5835H17.3203L17.4012 90.4362C17.5926 90.0837 17.7917 89.7196 17.973 89.3L17.9937 89.2688C17.9915 89.2666 17.9993 89.2355 18.0115 89.1938C18.0339 89.1132 18.069 88.992 18.1281 88.8591C18.2247 88.639 18.4434 88.4917 18.6699 88.4917C18.8914 88.4917 19.1034 88.6346 19.2099 88.8558C19.3979 89.2799 19.5603 89.7741 19.7371 90.459L19.7684 90.5835ZM17.6562 90.3839H19.5096C19.3489 89.7736 19.1978 89.3239 19.0276 88.9392C18.9551 88.7892 18.8139 88.6908 18.6694 88.6908C18.5205 88.6908 18.3765 88.7903 18.3113 88.9392C18.2594 89.0593 18.227 89.1694 18.2041 89.2494C18.1841 89.3189 18.1723 89.3601 18.1523 89.3895C17.9927 89.7536 17.823 90.076 17.6562 90.3839Z" fill="#5B7D96"/>
<path d="M19.1761 82.3904C19.1761 80.6482 18.9931 78.9411 18.6417 77.6003H19.6396C19.9905 79.0284 20.1595 80.6882 20.1595 82.3904C20.1595 85.167 19.7378 87.9464 18.9786 89.7608C18.852 90.0254 18.7115 90.2405 18.5926 90.4834H17.4754C17.6723 90.1227 17.8686 89.7647 18.0522 89.3533C18.7405 87.7786 19.1761 85.0458 19.1761 82.3904ZM17.4894 77.6003H18.6417C16.5332 81.8718 13.5814 82.9986 10.8962 84.1726C8.21152 85.4111 4.34603 86.3978 2.37815 90.4836H1.26758C3.37611 85.6607 7.88805 84.4017 10.4958 83.2638C13.1174 82.0831 15.5495 81.1742 17.4895 77.6005L17.4894 77.6003Z" fill="#5B7D96"/>
<path d="M18.6546 90.5832H17.3065L17.4091 90.3953C17.5937 90.0557 17.7856 89.7055 17.9591 89.313C18.6374 87.7637 19.0752 85.0467 19.0752 82.3911C19.0752 80.7401 18.9107 79.1531 18.6089 77.8852C16.5858 81.8091 13.7773 83.0292 11.2945 84.1082L10.9364 84.2638C10.5063 84.4628 10.0495 84.6535 9.56473 84.8553C7.00496 85.9226 4.10391 87.131 2.46846 90.5275L2.44113 90.5842H1.11523L1.17603 90.4446C3.03681 86.1894 6.71225 84.7007 9.39625 83.6128C9.77443 83.4605 10.1298 83.3154 10.455 83.1737L10.9313 82.9602C13.3293 81.8907 15.595 80.8801 17.4007 77.5532L17.4297 77.5015H19.7177L19.7361 77.5771C20.0786 78.9668 20.2594 80.6317 20.2594 82.391C20.2594 85.251 19.8148 88.0209 19.0713 89.7997C19.001 89.947 18.929 90.0754 18.8576 90.2016C18.7968 90.31 18.7377 90.4162 18.6819 90.5285L18.6546 90.5832ZM17.6428 90.3837H18.5303C18.5788 90.288 18.6301 90.1963 18.682 90.1029C18.7517 89.9801 18.822 89.8561 18.8873 89.7172C19.6196 87.9661 20.0586 85.2251 20.0586 82.3895C20.0586 80.678 19.8857 79.0576 19.5594 77.699H18.7696C19.0959 79.0042 19.2749 80.6629 19.2749 82.3895C19.2749 85.0706 18.8304 87.8188 18.142 89.392C17.9831 89.7511 17.8107 90.0729 17.6428 90.3837ZM1.42114 90.3837H2.31529C3.98986 86.9616 7.03643 85.692 9.48753 84.6708C9.96946 84.4701 10.4257 84.2794 10.8541 84.0821L11.215 83.9253C13.8076 82.7986 16.4891 81.6339 18.4798 77.7H17.5483C15.7153 81.0448 13.4317 82.0637 11.0136 83.1421L10.5373 83.355C10.2087 83.4984 9.85117 83.6435 9.47131 83.7975C6.84972 84.8581 3.2685 86.3086 1.42114 90.3837Z" fill="#5B7D96"/>
<path d="M18.6546 90.5832H17.3065L17.4091 90.3953C17.5937 90.0557 17.7856 89.7055 17.9591 89.313C18.6374 87.7637 19.0752 85.0467 19.0752 82.3911C19.0752 80.7401 18.9107 79.1531 18.6089 77.8852C16.5858 81.8091 13.7773 83.0292 11.2945 84.1082L10.9364 84.2638C10.5063 84.4628 10.0495 84.6535 9.56473 84.8553C7.00496 85.9226 4.10391 87.131 2.46846 90.5275L2.44113 90.5842H1.11523L1.17603 90.4446C3.03681 86.1894 6.71225 84.7007 9.39625 83.6128C9.77443 83.4605 10.1298 83.3154 10.455 83.1737L10.9313 82.9602C13.3293 81.8907 15.595 80.8801 17.4007 77.5532L17.4297 77.5015H19.7177L19.7361 77.5771C20.0786 78.9668 20.2594 80.6317 20.2594 82.391C20.2594 85.251 19.8148 88.0209 19.0713 89.7997C19.001 89.947 18.929 90.0754 18.8576 90.2016C18.7968 90.31 18.7377 90.4162 18.6819 90.5285L18.6546 90.5832ZM17.6428 90.3837H18.5303C18.5788 90.288 18.6301 90.1963 18.682 90.1029C18.7517 89.9801 18.822 89.8561 18.8873 89.7172C19.6196 87.9661 20.0586 85.2251 20.0586 82.3895C20.0586 80.678 19.8857 79.0576 19.5594 77.699H18.7696C19.0959 79.0042 19.2749 80.6629 19.2749 82.3895C19.2749 85.0706 18.8304 87.8188 18.142 89.392C17.9831 89.7511 17.8107 90.0729 17.6428 90.3837ZM1.42114 90.3837H2.31529C3.98986 86.9616 7.03643 85.692 9.48753 84.6708C9.96946 84.4701 10.4257 84.2794 10.8541 84.0821L11.215 83.9253C13.8076 82.7986 16.4891 81.6339 18.4798 77.7H17.5483C15.7153 81.0448 13.4317 82.0637 11.0136 83.1421L10.5373 83.355C10.2087 83.4984 9.85117 83.6435 9.47131 83.7975C6.84972 84.8581 3.2685 86.3086 1.42114 90.3837Z" fill="#5B7D96"/>
<path d="M2.29236 90.484C2.33476 90.4451 2.38328 90.4123 2.41898 90.3628C4.40142 86.3777 8.23794 85.3615 10.8952 84.1803C13.5515 82.9852 16.4967 81.8117 18.584 77.601H17.4734C15.5334 81.1536 13.1298 82.0547 10.4942 83.2576C8.13979 84.3199 4.2463 85.3473 1.95485 89.1394C1.85668 88.9827 1.77914 88.8103 1.71556 88.6452C1.37808 87.708 1.19569 86.4418 1.1254 85.2071C1.11202 84.773 1.09807 84.3583 1.09807 83.9753C1.11258 81.2348 1.5973 79.1987 2.36316 77.5999H1.26709C0.550319 79.2497 0.100167 81.296 0.100167 83.893L0.0996094 83.9753C0.0996094 84.3867 0.127498 84.8158 0.142002 85.2488C0.197781 86.5613 0.394683 87.892 0.789044 89.0016C1.02834 89.5452 1.28102 89.9961 1.56216 90.4113C1.59005 90.4441 1.61794 90.4613 1.64638 90.483H2.29231L2.29236 90.484Z" fill="#5B7D96"/>
<path d="M2.3327 90.5832H1.61314L1.58692 90.5627C1.5462 90.5326 1.5172 90.5115 1.48763 90.4776C1.18308 90.029 0.927043 89.5626 0.698355 89.0434C0.330768 88.0084 0.104868 86.7004 0.0435083 85.2551C0.0384881 85.1061 0.0323523 84.9588 0.0256587 84.8121C0.0128293 84.5336 0 84.2484 0 83.9749V83.8932C0 81.4851 0.394917 79.3539 1.17473 77.56L1.20094 77.5H2.52125L2.4532 77.6429C1.62153 79.3794 1.21043 81.4512 1.19759 83.976C1.19759 84.3401 1.21042 84.732 1.22381 85.1473L1.22548 85.2029C1.2807 86.1679 1.42628 87.5448 1.81006 88.6104C1.85803 88.7338 1.90656 88.8439 1.95788 88.9417C3.9002 85.8416 6.96075 84.5991 9.20423 83.6892C9.65102 83.5074 10.0733 83.3362 10.4531 83.165L10.9568 82.9371C13.4408 81.8159 15.586 80.8474 17.3859 77.5522L17.4138 77.5005H18.7447L18.6733 77.6439C16.6575 81.7096 13.796 82.9898 11.2725 84.1188L10.9372 84.27C10.5423 84.4452 10.1262 84.6153 9.68834 84.7942C7.23509 85.7959 4.18183 87.0434 2.50997 90.4059C2.47092 90.4643 2.43243 90.496 2.39785 90.5238C2.38558 90.5343 2.37386 90.5443 2.36159 90.5555L2.3327 90.5832ZM1.67953 90.3837H2.25517C2.26019 90.3798 2.26409 90.3759 2.26855 90.3725C2.29644 90.3486 2.32043 90.3286 2.33716 90.3047C4.03515 86.8877 7.12641 85.6253 9.61092 84.6097C10.0493 84.4301 10.4627 84.2617 10.8542 84.0877L11.1912 83.937C13.7749 82.7814 16.4456 81.5861 18.4225 77.6989H17.5334C15.7072 81.0114 13.4391 82.0348 11.04 83.1176L10.5363 83.3456C10.1531 83.5184 9.72863 83.6908 9.28015 83.8731C6.90288 84.8381 3.94428 86.0394 2.04109 89.1885L1.95686 89.328L1.8704 89.1902C1.7806 89.0473 1.70027 88.88 1.62274 88.6793C1.23005 87.5892 1.08111 86.1922 1.02533 85.2112L1.02366 85.1528C1.01083 84.737 0.998001 84.3434 0.998001 83.9749C1.01083 81.4878 1.40576 79.4322 2.20563 77.6989L1.33323 77.6995C0.581321 79.4561 0.200341 81.5389 0.200341 83.8931V83.9748C0.200341 84.2433 0.212613 84.5145 0.224326 84.8014C0.230462 84.9487 0.237714 85.0971 0.242176 85.2455C0.302976 86.6714 0.524985 87.9587 0.882533 88.9688C1.10621 89.478 1.3494 89.9205 1.64448 90.3552C1.65173 90.3624 1.66456 90.3719 1.67962 90.3835L1.67953 90.3837Z" fill="#5B7D96"/>
<path d="M2.3327 90.5832H1.61314L1.58692 90.5627C1.5462 90.5326 1.5172 90.5115 1.48763 90.4776C1.18308 90.029 0.927043 89.5626 0.698355 89.0434C0.330768 88.0084 0.104868 86.7004 0.0435083 85.2551C0.0384881 85.1061 0.0323523 84.9588 0.0256587 84.8121C0.0128293 84.5336 0 84.2484 0 83.9749V83.8932C0 81.4851 0.394917 79.3539 1.17473 77.56L1.20094 77.5H2.52125L2.4532 77.6429C1.62153 79.3794 1.21043 81.4512 1.19759 83.976C1.19759 84.3401 1.21042 84.732 1.22381 85.1473L1.22548 85.2029C1.2807 86.1679 1.42628 87.5448 1.81006 88.6104C1.85803 88.7338 1.90656 88.8439 1.95788 88.9417C3.9002 85.8416 6.96075 84.5991 9.20423 83.6892C9.65102 83.5074 10.0733 83.3362 10.4531 83.165L10.9568 82.9371C13.4408 81.8159 15.586 80.8474 17.3859 77.5522L17.4138 77.5005H18.7447L18.6733 77.6439C16.6575 81.7096 13.796 82.9898 11.2725 84.1188L10.9372 84.27C10.5423 84.4452 10.1262 84.6153 9.68834 84.7942C7.23509 85.7959 4.18183 87.0434 2.50997 90.4059C2.47092 90.4643 2.43243 90.496 2.39785 90.5238C2.38558 90.5343 2.37386 90.5443 2.36159 90.5555L2.3327 90.5832ZM1.67953 90.3837H2.25517C2.26019 90.3798 2.26409 90.3759 2.26855 90.3725C2.29644 90.3486 2.32043 90.3286 2.33716 90.3047C4.03515 86.8877 7.12641 85.6253 9.61092 84.6097C10.0493 84.4301 10.4627 84.2617 10.8542 84.0877L11.1912 83.937C13.7749 82.7814 16.4456 81.5861 18.4225 77.6989H17.5334C15.7072 81.0114 13.4391 82.0348 11.04 83.1176L10.5363 83.3456C10.1531 83.5184 9.72863 83.6908 9.28015 83.8731C6.90288 84.8381 3.94428 86.0394 2.04109 89.1885L1.95686 89.328L1.8704 89.1902C1.7806 89.0473 1.70027 88.88 1.62274 88.6793C1.23005 87.5892 1.08111 86.1922 1.02533 85.2112L1.02366 85.1528C1.01083 84.737 0.998001 84.3434 0.998001 83.9749C1.01083 81.4878 1.40576 79.4322 2.20563 77.6989L1.33323 77.6995C0.581321 79.4561 0.200341 81.5389 0.200341 83.8931V83.9748C0.200341 84.2433 0.212613 84.5145 0.224326 84.8014C0.230462 84.9487 0.237714 85.0971 0.242176 85.2455C0.302976 86.6714 0.524985 87.9587 0.882533 88.9688C1.10621 89.478 1.3494 89.9205 1.64448 90.3552C1.65173 90.3624 1.66456 90.3719 1.67962 90.3835L1.67953 90.3837Z" fill="#5B7D96"/>
<path d="M19.1332 103.366C19.0066 102.864 18.8515 102.403 18.6696 101.992C18.5921 102.135 18.5714 102.321 18.5151 102.45C18.3605 102.793 18.2054 103.065 18.0303 103.365L19.1332 103.366Z" fill="#5B7D96"/>
<path d="M19.2614 103.465H17.8555L17.9425 103.315C18.1143 103.021 18.2694 102.751 18.4234 102.409C18.4452 102.359 18.4608 102.298 18.4775 102.235C18.5021 102.141 18.5311 102.036 18.5807 101.944L18.6773 101.764L18.7604 101.95C18.9428 102.36 19.1013 102.828 19.2301 103.341L19.2614 103.465ZM18.203 103.266H19.0042C18.9088 102.908 18.7989 102.572 18.6761 102.267C18.6745 102.273 18.6728 102.28 18.6706 102.288C18.6516 102.361 18.6315 102.431 18.6058 102.49C18.4753 102.782 18.3431 103.022 18.203 103.266Z" fill="#5B7D96"/>
<path d="M1.98367 103.211L1.88773 103.068C1.59098 102.627 1.36061 102.212 1.16259 101.761C0.723052 100.537 0.5797 99.1071 0.535633 98.1221C0.378885 95.0508 0.768234 92.5383 1.72541 90.4414L1.9078 90.5242C0.964005 92.5905 0.581355 95.073 0.736432 98.1125C0.79779 99.5061 1.00976 100.742 1.3489 101.687C1.51847 102.071 1.71537 102.435 1.96081 102.814C3.77204 99.3271 6.89728 98.0558 9.41578 97.0313C9.85699 96.8512 10.2753 96.6822 10.6602 96.5093L11.0752 96.322C13.52 95.2224 16.0474 94.0839 17.9429 90.4358L18.1214 90.5275C16.1936 94.2363 13.6338 95.3887 11.1578 96.5038L10.7428 96.6911C10.354 96.8651 9.93507 97.0352 9.49218 97.2153C6.96754 98.2426 3.82659 99.5205 2.06177 103.056L1.98367 103.211Z" fill="#5B7D96"/>
<path d="M19.6399 103.366C19.4921 102.794 19.3303 102.256 19.12 101.781C19.0357 101.606 18.8673 101.474 18.6703 101.474C18.4734 101.474 18.2976 101.606 18.2207 101.781C18.1225 102.007 18.094 102.192 18.0661 102.221C17.8831 102.643 17.6862 103.004 17.4893 103.366L19.6399 103.366Z" fill="#5B7D96"/>
<path d="M19.7684 103.465H17.3203L17.4001 103.318C17.5926 102.965 17.7917 102.599 17.9725 102.181L17.9931 102.15C17.9909 102.146 17.9987 102.116 18.011 102.075C18.0333 101.994 18.0684 101.873 18.1276 101.74C18.2241 101.52 18.4417 101.373 18.6693 101.373C18.8908 101.373 19.1028 101.516 19.2093 101.737C19.3974 102.16 19.5597 102.654 19.7366 103.34L19.7684 103.465ZM17.6562 103.266H19.5096C19.3489 102.655 19.1978 102.206 19.0276 101.822C18.9556 101.672 18.8139 101.573 18.6694 101.573C18.5199 101.573 18.3765 101.673 18.3113 101.822C18.2594 101.942 18.227 102.052 18.2041 102.132C18.1841 102.201 18.1723 102.243 18.1523 102.272C17.9938 102.636 17.823 102.958 17.6562 103.266Z" fill="#5B7D96"/>
<path d="M19.1761 95.2745C19.1761 93.5319 18.9931 91.8253 18.6417 90.4834H19.6396C19.9905 91.9114 20.1595 93.5713 20.1595 95.2745C20.1595 98.0512 19.7378 100.831 18.9786 102.644C18.852 102.91 18.7115 103.124 18.5926 103.367H17.4754C17.6723 103.005 17.8686 102.648 18.0522 102.236C18.7405 100.663 19.1761 97.9288 19.1761 95.2745ZM17.4894 90.4845H18.6418C16.5333 94.757 13.5814 95.8838 10.8962 97.0574C8.21152 98.2947 4.34603 99.2826 2.37815 103.368H1.26758C3.37611 98.5454 7.88805 97.2865 10.4958 96.1486C13.1174 94.9673 15.5495 94.0584 17.4895 90.4847L17.4894 90.4845Z" fill="#5B7D96"/>
<path d="M18.655 103.465H17.3068L17.415 103.268C17.5979 102.931 17.7876 102.584 17.9605 102.194C18.6388 100.646 19.0766 97.9282 19.0766 95.2722C19.0766 93.6212 18.9121 92.0342 18.6103 90.7662C16.5872 94.6902 13.7787 95.9103 11.2959 96.9893L10.9378 97.1449C10.5083 97.3434 10.0509 97.534 9.56725 97.7353C7.00748 98.8014 4.10586 100.01 2.47041 103.407L2.44308 103.464H1.11719L1.17799 103.325C3.03877 99.0694 6.71463 97.5796 9.3982 96.4916C9.77583 96.3393 10.1317 96.1942 10.4569 96.0525L10.9344 95.839C13.3324 94.7695 15.5981 93.7601 17.4026 90.4326L17.4316 90.3809H19.7197L19.7381 90.4565C20.0806 91.8462 20.2613 93.5111 20.2613 95.2715C20.2613 98.1326 19.8167 100.901 19.0732 102.68C19.0029 102.827 18.931 102.956 18.8596 103.082C18.7988 103.19 18.7396 103.296 18.6838 103.409L18.655 103.465ZM17.6431 103.266H18.5306C18.5791 103.171 18.6315 103.079 18.6834 102.986C18.752 102.863 18.8223 102.739 18.8881 102.6C19.6205 100.849 20.0595 98.1084 20.0595 95.2728C20.0595 93.5613 19.8866 91.9409 19.5603 90.5812H18.7704C19.0967 91.8864 19.2758 93.5457 19.2758 95.2728C19.2758 97.9539 18.8312 100.702 18.1429 102.275C17.9834 102.634 17.811 102.956 17.6431 103.266ZM1.42144 103.266H2.31559C3.99059 99.8438 7.0373 98.5741 9.4894 97.5525C9.97133 97.3519 10.4259 97.1623 10.8554 96.9644L11.2152 96.8076C13.8084 95.6809 16.4898 94.5162 18.4811 90.5823H17.5496C15.7167 93.9271 13.4331 94.9454 11.0155 96.0238L10.538 96.2373C10.2095 96.3807 9.85196 96.5258 9.4721 96.6798C6.84993 97.7415 3.26894 99.1918 1.42144 103.266Z" fill="#5B7D96"/>
<path d="M2.29236 103.366C2.33476 103.327 2.38328 103.294 2.41898 103.244C4.40142 99.2591 8.23794 98.2429 10.8952 97.0618C13.5515 95.8666 16.4967 94.6931 18.584 90.4824H17.4734C15.5334 94.0351 13.1298 94.9362 10.4942 96.1391C8.13979 97.2014 4.2463 98.2287 1.95485 102.021C1.85668 101.863 1.77914 101.692 1.71556 101.527C1.37808 100.589 1.19569 99.3226 1.1254 98.0886C1.1109 97.6561 1.09751 97.2409 1.09751 96.8584C1.11202 94.1179 1.59675 92.0818 2.36261 90.483H1.26653C0.549761 92.1329 0.0996094 94.1791 0.0996094 96.7762V96.859C0.0996094 97.2703 0.127503 97.6995 0.142006 98.1325C0.197786 99.4461 0.394683 100.777 0.789044 101.885C1.02834 102.429 1.28102 102.88 1.56216 103.295C1.59005 103.328 1.61794 103.345 1.64638 103.367L2.29231 103.367L2.29236 103.366Z" fill="#5B7D96"/>
<path d="M2.33257 103.466H1.613L1.58679 103.445C1.54607 103.415 1.51706 103.394 1.4875 103.36C1.17792 102.904 0.929136 102.451 0.69822 101.925C0.331191 100.89 0.105847 99.5828 0.0433736 98.1364C0.0383534 97.9874 0.0322176 97.8407 0.025524 97.6939C0.0132524 97.4176 0.000976562 97.1303 0.000976562 96.8579V96.775C0.000976562 94.3669 0.395898 92.2358 1.17571 90.4419L1.20192 90.3818H2.52223L2.45418 90.5247C1.62251 92.2613 1.21141 94.3331 1.19857 96.8579C1.19857 97.222 1.2114 97.6133 1.22479 98.0286L1.22646 98.0853C1.28169 99.0503 1.42726 100.427 1.81104 101.493C1.85845 101.616 1.90754 101.726 1.95887 101.824C3.90118 98.7234 6.96174 97.4815 9.20464 96.5716C9.65143 96.3898 10.0737 96.2186 10.4535 96.0474L10.9584 95.8189C13.4423 94.6977 15.587 93.7293 17.3871 90.4341L17.4149 90.3824H18.7458L18.6744 90.5258C16.6586 94.5914 13.7971 95.8716 11.2736 97.0007L10.9367 97.1513C10.5418 97.3264 10.1256 97.4965 9.68777 97.6755C7.23453 98.6772 4.18126 99.9247 2.5094 103.287C2.47036 103.346 2.43131 103.378 2.39729 103.406L2.33257 103.466ZM1.67939 103.267H2.25503C2.25894 103.263 2.26396 103.259 2.26842 103.256C2.29631 103.232 2.32029 103.212 2.33703 103.188C4.03559 99.7695 7.12685 98.5071 9.61122 97.4926C10.0496 97.3131 10.463 97.1447 10.8545 96.9707L11.1915 96.82C13.7752 95.6643 16.4459 94.4691 18.4228 90.5819H17.5337C15.7075 93.8943 13.44 94.9178 11.0414 96.0006L10.5366 96.2291C10.1534 96.402 9.72894 96.5743 9.28046 96.7566C6.90318 97.7216 3.94458 98.9229 2.04196 102.072L1.95774 102.212L1.87128 102.074C1.78148 101.93 1.70115 101.763 1.62362 101.563C1.23093 100.473 1.08199 99.0748 1.02621 98.0947L1.02454 98.0358C1.01115 97.62 0.998324 97.2259 0.998324 96.8579C1.01115 94.3708 1.40608 92.3152 2.20595 90.5819L1.33299 90.583C0.581086 92.3396 0.200106 94.4224 0.200106 96.7766V96.8594C0.200106 97.1279 0.212377 97.3992 0.224649 97.6866C0.230785 97.8333 0.237479 97.9812 0.242499 98.1296C0.303299 99.5555 0.525308 100.843 0.882856 101.853C1.10653 102.362 1.34917 102.803 1.6448 103.24C1.6515 103.246 1.66433 103.256 1.67939 103.267Z" fill="#5B7D96"/>
<path d="M2.33257 103.466H1.613L1.58679 103.445C1.54607 103.415 1.51706 103.394 1.4875 103.36C1.17792 102.904 0.929136 102.451 0.69822 101.925C0.331191 100.89 0.105847 99.5828 0.0433736 98.1364C0.0383534 97.9874 0.0322176 97.8407 0.025524 97.6939C0.0132524 97.4176 0.000976562 97.1303 0.000976562 96.8579V96.775C0.000976562 94.3669 0.395898 92.2358 1.17571 90.4419L1.20192 90.3818H2.52223L2.45418 90.5247C1.62251 92.2613 1.21141 94.3331 1.19857 96.8579C1.19857 97.222 1.2114 97.6133 1.22479 98.0286L1.22646 98.0853C1.28169 99.0503 1.42726 100.427 1.81104 101.493C1.85845 101.616 1.90754 101.726 1.95887 101.824C3.90118 98.7234 6.96174 97.4815 9.20464 96.5716C9.65143 96.3898 10.0737 96.2186 10.4535 96.0474L10.9584 95.8189C13.4423 94.6977 15.587 93.7293 17.3871 90.4341L17.4149 90.3824H18.7458L18.6744 90.5258C16.6586 94.5914 13.7971 95.8716 11.2736 97.0007L10.9367 97.1513C10.5418 97.3264 10.1256 97.4965 9.68777 97.6755C7.23453 98.6772 4.18126 99.9247 2.5094 103.287C2.47036 103.346 2.43131 103.378 2.39729 103.406L2.33257 103.466ZM1.67939 103.267H2.25503C2.25894 103.263 2.26396 103.259 2.26842 103.256C2.29631 103.232 2.32029 103.212 2.33703 103.188C4.03559 99.7695 7.12685 98.5071 9.61122 97.4926C10.0496 97.3131 10.463 97.1447 10.8545 96.9707L11.1915 96.82C13.7752 95.6643 16.4459 94.4691 18.4228 90.5819H17.5337C15.7075 93.8943 13.44 94.9178 11.0414 96.0006L10.5366 96.2291C10.1534 96.402 9.72894 96.5743 9.28046 96.7566C6.90318 97.7216 3.94458 98.9229 2.04196 102.072L1.95774 102.212L1.87128 102.074C1.78148 101.93 1.70115 101.763 1.62362 101.563C1.23093 100.473 1.08199 99.0748 1.02621 98.0947L1.02454 98.0358C1.01115 97.62 0.998324 97.2259 0.998324 96.8579C1.01115 94.3708 1.40608 92.3152 2.20595 90.5819L1.33299 90.583C0.581086 92.3396 0.200106 94.4224 0.200106 96.7766V96.8594C0.200106 97.1279 0.212377 97.3992 0.224649 97.6866C0.230785 97.8333 0.237479 97.9812 0.242499 98.1296C0.303299 99.5555 0.525308 100.843 0.882856 101.853C1.10653 102.362 1.34917 102.803 1.6448 103.24C1.6515 103.246 1.66433 103.256 1.67939 103.267Z" fill="#5B7D96"/>
<path d="M19.1332 116.25C19.0066 115.75 18.8515 115.287 18.6696 114.876C18.5921 115.019 18.5714 115.205 18.5151 115.334C18.3605 115.678 18.2054 115.949 18.0303 116.25L19.1332 116.25Z" fill="#5B7D96"/>
<path d="M19.2614 116.35H17.8555L17.9425 116.2C18.1143 115.907 18.2677 115.637 18.4234 115.293C18.4452 115.244 18.4608 115.183 18.4775 115.119C18.5021 115.026 18.5311 114.921 18.5807 114.828L18.6773 114.649L18.7604 114.835C18.9428 115.245 19.1013 115.713 19.2301 116.224L19.2614 116.35ZM18.203 116.151H19.0042C18.9088 115.792 18.7989 115.458 18.6761 115.151C18.6745 115.159 18.6728 115.165 18.6706 115.172C18.6516 115.245 18.6315 115.315 18.6058 115.374C18.4742 115.668 18.3431 115.908 18.203 116.151Z" fill="#5B7D96"/>
<path d="M1.98367 116.094L1.88773 115.951C1.59043 115.509 1.36005 115.093 1.16259 114.644C0.723052 113.42 0.5797 111.99 0.535633 111.005C0.378885 107.934 0.768234 105.421 1.72541 103.324L1.9078 103.407C0.964005 105.473 0.581355 107.956 0.736432 110.996C0.79779 112.389 1.00976 113.624 1.3489 114.57C1.51736 114.954 1.71537 115.317 1.96081 115.697C3.77204 112.21 6.89785 110.938 9.41692 109.913C9.85926 109.734 10.2759 109.564 10.6614 109.392L11.0769 109.204C13.5217 108.105 16.0485 106.966 17.9434 103.319L18.1219 103.411C16.1948 107.12 13.635 108.272 11.1595 109.386L10.7439 109.574C10.3551 109.748 9.93622 109.918 9.49388 110.098C6.96924 111.125 3.82772 112.403 2.06347 115.939L1.98367 116.094Z" fill="#5B7D96"/>
<path d="M19.6399 116.25C19.4921 115.678 19.3303 115.141 19.12 114.665C19.0357 114.49 18.8673 114.358 18.6703 114.358C18.4734 114.358 18.2976 114.49 18.2207 114.665C18.1225 114.891 18.094 115.077 18.0661 115.105C17.8831 115.527 17.6862 115.888 17.4893 116.25L19.6399 116.25Z" fill="#5B7D96"/>
<path d="M19.7684 116.35H17.3203L17.4001 116.203C17.5942 115.846 17.7928 115.482 17.9725 115.066L17.9926 115.036C17.9909 115.033 17.9987 115.002 18.0104 114.961C18.0339 114.88 18.069 114.759 18.127 114.626C18.2247 114.405 18.4422 114.258 18.6693 114.258C18.8908 114.258 19.1028 114.401 19.2093 114.622C19.3974 115.046 19.5597 115.54 19.7366 116.225L19.7684 116.35ZM17.6562 116.151H19.5096C19.3489 115.54 19.1978 115.091 19.0276 114.706C18.9556 114.556 18.8139 114.458 18.6694 114.458C18.5199 114.458 18.3765 114.557 18.3113 114.706C18.2594 114.827 18.227 114.936 18.203 115.016C18.1841 115.086 18.1718 115.127 18.1528 115.156C17.9938 115.52 17.823 115.842 17.6562 116.151Z" fill="#5B7D96"/>
<path d="M19.1761 108.157C19.1761 106.415 18.9931 104.708 18.6417 103.367H19.6396C19.9905 104.795 20.1595 106.455 20.1595 108.157C20.1595 110.934 19.7378 113.713 18.9786 115.528C18.852 115.792 18.7115 116.008 18.5926 116.25H17.4754C17.6723 115.889 17.8686 115.532 18.0522 115.12C18.7405 113.546 19.1761 110.812 19.1761 108.157ZM17.4894 103.366H18.6418C16.5333 107.638 13.5814 108.764 10.8962 109.938C8.21152 111.176 4.34603 112.164 2.37815 116.249H1.26758C3.37611 111.427 7.88805 110.168 10.4958 109.03C13.1174 107.849 15.5495 106.941 17.4895 103.366L17.4894 103.366Z" fill="#5B7D96"/>
<path d="M18.655 116.35H17.3068L17.415 116.151C17.5979 115.815 17.7876 115.468 17.9605 115.079C18.6388 113.529 19.0766 110.812 19.0766 108.157C19.0766 106.506 18.9121 104.919 18.6103 103.651C16.5872 107.575 13.7787 108.795 11.2959 109.874L10.9378 110.029C10.5083 110.228 10.0509 110.419 9.56725 110.62C7.00748 111.686 4.10586 112.895 2.47041 116.292L2.44308 116.349H1.11719L1.17799 116.209C3.03877 111.953 6.71577 110.464 9.39992 109.376C9.77643 109.224 10.1323 109.08 10.4569 108.937L10.935 108.724C13.333 107.654 15.5976 106.643 17.4027 103.317L17.4317 103.265H19.7197L19.7381 103.341C20.0806 104.731 20.2613 106.396 20.2613 108.155C20.2613 111.015 19.8167 113.785 19.0732 115.564C19.0029 115.711 18.931 115.839 18.8596 115.966C18.7988 116.074 18.7396 116.18 18.6839 116.292L18.655 116.35ZM17.6431 116.151H18.5306C18.5791 116.055 18.6304 115.964 18.6823 115.87C18.752 115.747 18.8223 115.623 18.8876 115.484C19.6199 113.733 20.0589 110.992 20.0589 108.157C20.0589 106.445 19.886 104.825 19.5597 103.466H18.7699C19.0962 104.771 19.2752 106.43 19.2752 108.157C19.2752 110.838 18.8307 113.586 18.1423 115.159C17.9834 115.519 17.811 115.841 17.6431 116.151ZM1.42144 116.151H2.31559C3.99059 112.728 7.0373 111.459 9.4894 110.437C9.97133 110.236 10.4259 110.047 10.8554 109.849L11.2163 109.692C13.8089 108.565 16.4904 107.401 18.4811 103.467H17.5496C15.7166 106.81 13.4336 107.829 11.0161 108.907L10.538 109.122C10.2095 109.265 9.8525 109.41 9.47376 109.563C6.85045 110.625 3.26894 112.076 1.42144 116.151Z" fill="#5B7D96"/>
<path d="M2.29236 116.25C2.33476 116.211 2.38328 116.179 2.41898 116.129C4.40142 112.143 8.23794 111.127 10.8952 109.946C13.5515 108.751 16.4967 107.577 18.584 103.367H17.4734C15.5334 106.919 13.1298 107.82 10.4942 109.023C8.13979 110.086 4.2463 111.113 1.95485 114.905C1.85668 114.747 1.77914 114.576 1.71556 114.411C1.37808 113.474 1.19569 112.207 1.1254 110.973C1.1109 110.54 1.09751 110.125 1.09751 109.743C1.11202 107.002 1.59675 104.967 2.36261 103.367H1.26653C0.549761 105.016 0.0996094 107.063 0.0996094 109.66V109.743C0.0996094 110.155 0.127503 110.583 0.142006 111.016C0.197786 112.33 0.394683 113.661 0.789044 114.77C1.02834 115.313 1.28102 115.764 1.56216 116.179C1.59005 116.212 1.61794 116.229 1.64638 116.251L2.29231 116.252L2.29236 116.25Z" fill="#5B7D96"/>
<path d="M2.33257 116.35H1.613L1.58679 116.329C1.54607 116.299 1.51706 116.278 1.4875 116.244C1.18294 115.795 0.926908 115.329 0.69822 114.81C0.330634 113.775 0.104733 112.467 0.0433736 111.02C0.0383534 110.871 0.0322176 110.725 0.025524 110.578C0.0132524 110.302 0.000976562 110.015 0.000976562 109.742V109.66C0.000976562 107.251 0.395897 105.12 1.17571 103.326L1.20192 103.266H2.52223L2.45418 103.409C1.62251 105.146 1.21141 107.217 1.19857 109.742C1.19857 110.108 1.2114 110.5 1.22479 110.915L1.22646 110.969C1.28169 111.934 1.42726 113.311 1.81104 114.377C1.85845 114.5 1.90754 114.61 1.95887 114.708C3.90118 111.608 6.96174 110.365 9.20521 109.456C9.652 109.274 10.0743 109.103 10.4541 108.931L10.9578 108.703C13.4417 107.582 15.587 106.614 17.3869 103.319L17.4148 103.267H18.7457L18.6743 103.41C16.6585 107.476 13.7981 108.756 11.274 109.885L10.9366 110.036C10.5417 110.211 10.1255 110.382 9.68599 110.561C7.23332 111.563 4.18048 112.81 2.50819 116.172C2.46914 116.231 2.4301 116.263 2.39607 116.291L2.33257 116.35ZM1.67939 116.151H2.25503C2.25893 116.147 2.26396 116.143 2.26842 116.139C2.29631 116.116 2.32029 116.096 2.33703 116.072C4.03502 112.655 7.12627 111.392 9.61021 110.378C10.0486 110.198 10.4625 110.03 10.8547 109.855L11.1921 109.704C13.7753 108.548 16.446 107.353 18.4229 103.466H17.5338C15.7075 106.779 13.4395 107.802 11.0404 108.885L10.5367 109.113C10.1535 109.286 9.72902 109.458 9.28054 109.641C6.90327 110.606 3.94467 111.807 2.04148 114.956L1.95725 115.096L1.87079 114.958C1.78099 114.814 1.70067 114.648 1.62313 114.447C1.23044 113.357 1.0815 111.959 1.02573 110.979L1.02405 110.922C1.01067 110.505 0.997836 110.111 0.997836 109.742C1.01067 107.255 1.40559 105.201 2.20546 103.466L1.33306 103.467C0.581156 105.222 0.200176 107.306 0.200176 109.661V109.743C0.200176 110.011 0.212447 110.283 0.224719 110.57C0.230855 110.717 0.237548 110.865 0.242569 111.013C0.303368 112.439 0.525377 113.726 0.882925 114.736C1.1066 115.246 1.3498 115.688 1.64487 116.123C1.65157 116.13 1.66433 116.138 1.67939 116.151Z" fill="#5B7D96"/>
<path d="M19.1332 129.133C19.0066 128.632 18.8515 128.17 18.6696 127.759C18.5921 127.902 18.5714 128.088 18.5151 128.217C18.3605 128.56 18.2054 128.831 18.0303 129.132L19.1332 129.133L19.1332 129.133Z" fill="#5B7D96"/>
<path d="M19.2618 129.233H17.8564L17.9429 129.082C18.1159 128.787 18.2699 128.515 18.4238 128.176C18.4456 128.126 18.4612 128.064 18.4779 128.001C18.5025 127.909 18.5309 127.803 18.5812 127.711L18.6777 127.531L18.7608 127.717C18.9432 128.128 19.1017 128.596 19.2306 129.107L19.2618 129.233ZM18.2034 129.034H19.0046C18.9092 128.675 18.7993 128.34 18.6765 128.034C18.6749 128.041 18.6732 128.048 18.671 128.054C18.652 128.127 18.6319 128.198 18.6062 128.256C18.4763 128.548 18.3446 128.788 18.2034 129.034Z" fill="#5B7D96"/>
<path d="M19.6399 129.133C19.4921 128.56 19.3303 128.024 19.12 127.548C19.0357 127.373 18.8673 127.241 18.6703 127.241C18.4734 127.241 18.2976 127.373 18.2207 127.548C18.1225 127.774 18.094 127.96 18.0661 127.989C17.8831 128.411 17.6862 128.772 17.4893 129.134H19.64L19.6399 129.133Z" fill="#5B7D96"/>
<path d="M19.7684 129.233H17.3203L17.4001 129.085C17.5959 128.725 17.7934 128.363 17.9725 127.948L17.9926 127.919C17.9909 127.915 17.9987 127.884 18.0104 127.843C18.0339 127.762 18.069 127.641 18.127 127.507C18.2235 127.287 18.4411 127.14 18.6687 127.14C18.8902 127.14 19.1022 127.283 19.2088 127.504C19.3974 127.929 19.5591 128.422 19.736 129.107L19.7684 129.233ZM17.6562 129.034H19.5096C19.3489 128.424 19.1983 127.975 19.0276 127.589C18.9556 127.439 18.8139 127.341 18.6694 127.341C18.5199 127.341 18.3765 127.44 18.3113 127.589C18.2594 127.709 18.227 127.819 18.2041 127.899C18.1841 127.969 18.1723 128.011 18.1528 128.04C17.9938 128.403 17.823 128.725 17.6562 129.034Z" fill="#5B7D96"/>
<path d="M19.1761 121.041C19.1761 119.299 18.9931 117.592 18.6417 116.25H19.6396C19.9905 117.678 20.1595 119.338 20.1595 121.041C20.1595 123.817 19.7378 126.597 18.9786 128.411C18.852 128.676 18.7115 128.891 18.5926 129.134H17.4754C17.6723 128.772 17.8686 128.415 18.0522 128.003C18.7405 126.428 19.1761 123.696 19.1761 121.041ZM17.4894 116.25H18.6417C16.5332 120.522 13.5814 121.648 10.8962 122.822C8.21152 124.061 4.34603 125.048 2.37815 129.134H1.26758C3.37611 124.311 7.88805 123.051 10.4958 121.913C13.1174 120.733 15.5495 119.825 17.4895 116.25L17.4894 116.25Z" fill="#5B7D96"/>
<path d="M18.6547 129.233H17.3065L17.4191 129.025C17.6015 128.692 17.7884 128.347 17.9597 127.961C18.6379 126.412 19.0758 123.695 19.0758 121.04C19.0758 119.388 18.9113 117.801 18.6095 116.534C16.5864 120.457 13.7778 121.678 11.295 122.757L10.9369 122.912C10.5074 123.111 10.05 123.301 9.5653 123.503C7.00553 124.57 4.10448 125.778 2.46846 129.175L2.44113 129.231H1.11523L1.17603 129.092C3.03681 124.836 6.71268 123.346 9.39739 122.259C9.7739 122.107 10.1309 121.962 10.4555 121.82L10.9336 121.605C13.3316 120.536 15.5962 119.526 17.4013 116.2L17.4303 116.148H19.7183L19.7367 116.224C20.0792 117.613 20.2599 119.278 20.2599 121.039C20.2599 123.899 19.8153 126.668 19.0718 128.447C19.0015 128.594 18.9296 128.723 18.8593 128.848C18.7985 128.956 18.7388 129.063 18.6825 129.175L18.6547 129.233ZM17.6428 129.034H18.5303C18.5799 128.938 18.6312 128.846 18.6831 128.752C18.7517 128.63 18.822 128.505 18.8878 128.368C19.6202 126.617 20.0592 123.876 20.0592 121.041C20.0592 119.329 19.8863 117.708 19.56 116.349H18.7701C19.0964 117.654 19.2755 119.314 19.2755 121.041C19.2755 123.721 18.8309 126.469 18.1426 128.043C17.9831 128.402 17.8107 128.724 17.6428 129.034ZM1.42116 129.034H2.3153C3.9903 125.611 7.03701 124.341 9.48796 123.32C9.9699 123.119 10.4251 122.93 10.854 122.732L11.2149 122.575C13.8075 121.449 16.4889 120.285 18.4797 116.35H17.5481C15.7152 119.693 13.4322 120.713 11.0146 121.79L10.5366 122.005C10.2081 122.148 9.85051 122.293 9.47233 122.446C6.84959 123.507 3.26866 124.958 1.42116 129.034Z" fill="#5B7D96"/>
<path d="M2.29292 129.133C2.33531 129.093 2.38384 129.061 2.41954 129.011C4.40198 125.026 8.23849 124.01 10.8958 122.829C13.5521 121.634 16.4973 120.46 18.5845 116.25H17.4739C15.5339 119.802 13.1304 120.704 10.4948 121.906C8.14035 122.969 4.24686 123.996 1.95541 127.788C1.85724 127.631 1.7797 127.459 1.71611 127.295C1.37864 126.357 1.19625 125.091 1.12596 123.857C1.11146 123.423 1.09807 123.009 1.09807 122.626C1.11258 119.886 1.5973 117.849 2.36316 116.25H1.26709C0.550319 117.899 0.100167 119.946 0.100167 122.543L0.0996094 122.625C0.0996094 123.037 0.127503 123.467 0.142006 123.899C0.197786 125.211 0.394683 126.542 0.789044 127.652C1.02834 128.196 1.28102 128.646 1.56216 129.062C1.59005 129.094 1.61794 129.112 1.64638 129.134L2.29287 129.134L2.29292 129.133Z" fill="#5B7D96"/>
<path d="M2.33326 129.233H1.61258L1.58525 129.212C1.54341 129.181 1.51664 129.161 1.48708 129.128C1.17694 128.671 0.92816 128.218 0.697244 127.692C0.330214 126.657 0.104866 125.35 0.0423927 123.903C0.0373725 123.755 0.0312367 123.608 0.0245431 123.462C0.0122716 123.185 0 122.898 0 122.625V122.543C0 120.135 0.394917 118.004 1.17473 116.21L1.20094 116.15H2.52125L2.4532 116.293C1.62153 118.029 1.21043 120.101 1.19759 122.626C1.19759 122.99 1.21042 123.381 1.22381 123.796L1.22548 123.853C1.28071 124.818 1.42629 126.195 1.81006 127.261C1.85804 127.384 1.90656 127.494 1.95789 127.592C3.9002 124.492 6.95962 123.251 9.20252 122.34C9.65043 122.157 10.0727 121.987 10.4525 121.814L10.9546 121.587C13.4389 120.466 15.5854 119.499 17.3854 116.202L17.4133 116.15H18.7442L18.6728 116.293C16.6569 120.36 13.7949 121.639 11.2714 122.768L10.9356 122.919C10.5407 123.094 10.1256 123.264 9.68666 123.443C7.23342 124.445 4.18014 125.692 2.50728 129.054C2.46824 129.113 2.42975 129.144 2.39628 129.172C2.38345 129.183 2.37174 129.193 2.36002 129.204L2.33326 129.233ZM1.68064 129.034H2.25572C2.26074 129.03 2.26521 129.026 2.27023 129.021C2.29812 128.998 2.32155 128.978 2.33828 128.954C4.03684 125.537 7.1281 124.273 9.61247 123.259C10.0498 123.08 10.4642 122.911 10.8552 122.737L11.191 122.587C13.7748 121.431 16.4455 120.236 18.423 116.349H17.5338C15.7065 119.662 13.439 120.686 11.0383 121.769L10.5368 121.996C10.1536 122.17 9.72859 122.342 9.27956 122.524C6.90229 123.489 3.94426 124.69 2.0415 127.838L1.95728 127.978L1.87082 127.84C1.78213 127.697 1.70125 127.531 1.62315 127.329C1.23046 126.239 1.08152 124.841 1.02575 123.861L1.02407 123.801C1.01069 123.385 0.997858 122.991 0.997858 122.624C1.01069 120.137 1.40561 118.082 2.20549 116.348L1.33364 116.349C0.581735 118.104 0.200755 120.188 0.200755 122.542V122.625C0.200755 122.893 0.213026 123.165 0.225298 123.452C0.231434 123.599 0.238128 123.747 0.243148 123.896C0.303948 125.322 0.525957 126.609 0.883505 127.618C1.10662 128.127 1.34982 128.569 1.64545 129.006C1.65103 129.012 1.66498 129.022 1.68059 129.033L1.68064 129.034Z" fill="#5B7D96"/>
<path d="M19.1332 142.017C19.0066 141.517 18.8515 141.056 18.6696 140.643C18.5921 140.787 18.5714 140.972 18.5151 141.101C18.3605 141.445 18.2054 141.716 18.0303 142.016H19.1332L19.1332 142.017Z" fill="#5B7D96"/>
<path d="M19.2614 142.116H17.8555L17.9425 141.965C18.1143 141.672 18.2689 141.401 18.4234 141.059C18.4452 141.009 18.4608 140.948 18.4775 140.885C18.5021 140.791 18.5311 140.686 18.5807 140.594L18.6773 140.415L18.7604 140.6C18.9428 141.01 19.1001 141.479 19.2301 141.99L19.2614 142.116ZM18.203 141.917H19.0042C18.9088 141.558 18.7989 141.223 18.6761 140.917C18.6745 140.924 18.6728 140.93 18.6706 140.937C18.6516 141.01 18.6315 141.081 18.6058 141.139C18.4753 141.432 18.3431 141.673 18.203 141.917Z" fill="#5B7D96"/>
<path d="M19.6399 142.017C19.4921 141.445 19.3303 140.908 19.12 140.433C19.0357 140.258 18.8673 140.125 18.6703 140.125C18.4734 140.125 18.2976 140.257 18.2207 140.433C18.1225 140.658 18.094 140.844 18.0661 140.873C17.8831 141.295 17.6862 141.656 17.4893 142.018H19.64L19.6399 142.017Z" fill="#5B7D96"/>
<path d="M19.7684 142.116H17.3203L17.4012 141.968C17.5931 141.615 17.7923 141.25 17.973 140.831L17.9931 140.802C17.9915 140.798 17.9993 140.767 18.011 140.726C18.0344 140.645 18.0696 140.524 18.1276 140.391C18.2241 140.171 18.4428 140.023 18.6693 140.023C18.8902 140.023 19.1028 140.167 19.2093 140.389C19.3974 140.811 19.5597 141.304 19.7366 141.991L19.7684 142.116ZM17.6562 141.917H19.5096C19.3478 141.305 19.1978 140.856 19.0276 140.473C18.9551 140.323 18.8139 140.224 18.6694 140.224C18.5205 140.224 18.3765 140.324 18.3113 140.473C18.2583 140.593 18.227 140.702 18.203 140.783C18.1841 140.852 18.1712 140.893 18.1528 140.923C17.9938 141.285 17.823 141.607 17.6562 141.917Z" fill="#5B7D96"/>
<path d="M19.1761 133.924C19.1761 132.182 18.9931 130.476 18.6417 129.134H19.6396C19.9905 130.562 20.1595 132.222 20.1595 133.924C20.1595 136.701 19.7378 139.481 18.9786 141.295C18.852 141.559 18.7115 141.775 18.5926 142.017H17.4754C17.6723 141.656 17.8686 141.298 18.0522 140.887C18.7405 139.312 19.1761 136.579 19.1761 133.924ZM17.4894 129.134H18.6418C16.5333 133.405 13.5814 134.532 10.8962 135.706C8.21152 136.943 4.34603 137.931 2.37815 142.017H1.26758C3.37611 137.194 7.88805 135.935 10.4958 134.797C13.1174 133.617 15.5495 132.707 17.4895 129.134L17.4894 129.134Z" fill="#5B7D96"/>
<path d="M18.6547 142.116H17.3065L17.4091 141.928C17.5938 141.588 17.7856 141.238 17.9591 140.846C18.6374 139.297 19.0753 136.58 19.0753 133.924C19.0753 132.273 18.9107 130.687 18.609 129.419C16.5858 133.343 13.7773 134.563 11.2945 135.642L10.9364 135.797C10.5069 135.996 10.0506 136.185 9.56644 136.387C7.0061 137.454 4.10391 138.662 2.46846 142.059L2.44113 142.116H1.11523L1.17603 141.977C3.03681 137.721 6.71225 136.232 9.39625 135.145C9.77443 134.992 10.1298 134.848 10.455 134.706L10.9313 134.492C13.3293 133.423 15.595 132.412 17.4007 129.086L17.4297 129.034H19.7177L19.7361 129.11C20.0786 130.499 20.2594 132.164 20.2594 133.923C20.2594 136.785 19.8148 139.553 19.0713 141.332C19.001 141.481 18.9279 141.61 18.8571 141.735C18.7968 141.843 18.7371 141.949 18.6819 142.059L18.6547 142.116ZM17.6429 141.917H18.5303C18.5788 141.821 18.6301 141.731 18.682 141.637C18.7506 141.515 18.8209 141.389 18.8873 141.251C19.6197 139.5 20.0587 136.759 20.0587 133.924C20.0587 132.212 19.8858 130.592 19.5594 129.233H18.7696C19.0959 130.538 19.275 132.197 19.275 133.924C19.275 136.605 18.8304 139.353 18.1421 140.926C17.9831 141.285 17.8108 141.606 17.6429 141.917ZM1.42119 141.917H2.31533C3.99033 138.494 7.03818 137.224 9.48971 136.203C9.97109 136.002 10.4251 135.813 10.8546 135.615L11.2155 135.458C13.8081 134.332 16.4896 133.168 18.4803 129.233H17.5488C15.7158 132.577 13.4322 133.596 11.0141 134.675L10.5378 134.888C10.2092 135.031 9.85169 135.176 9.47183 135.329C6.84966 136.391 3.26869 137.842 1.42119 141.917Z" fill="#5B7D96"/>
<path d="M2.29236 142.017C2.33476 141.978 2.38328 141.946 2.41898 141.896C4.40142 137.911 8.23794 136.895 10.8952 135.714C13.5515 134.519 16.4967 133.345 18.584 129.134H17.4734C15.5334 132.687 13.1298 133.588 10.4942 134.791C8.13979 135.853 4.2463 136.881 1.95485 140.673C1.85668 140.515 1.77914 140.344 1.71556 140.179C1.37808 139.241 1.19569 137.975 1.1254 136.74C1.1109 136.308 1.09751 135.893 1.09751 135.51C1.11202 132.77 1.59675 130.734 2.36261 129.135H1.26653C0.549761 130.784 0.0996094 132.831 0.0996094 135.427V135.51C0.0996094 135.922 0.127503 136.351 0.142006 136.784C0.197786 138.097 0.394683 139.428 0.789044 140.537C1.02834 141.081 1.28102 141.532 1.56216 141.947C1.59005 141.98 1.61794 141.997 1.64638 142.019L2.29231 142.019L2.29236 142.017Z" fill="#5B7D96"/>
<path d="M2.33271 142.116H1.6137L1.58637 142.096C1.54788 142.068 1.51664 142.046 1.48652 142.01C1.17694 141.555 0.929288 141.102 0.697244 140.575C0.330214 139.541 0.104866 138.234 0.0423927 136.787C0.0373725 136.638 0.0312367 136.491 0.0245431 136.344C0.0122716 136.068 0 135.782 0 135.509V135.426C0 133.018 0.394917 130.888 1.17473 129.094L1.20094 129.034H2.52125L2.4532 129.177C1.62153 130.914 1.21043 132.985 1.19759 135.51C1.19759 135.874 1.21042 136.266 1.22381 136.681L1.22548 136.736C1.28071 137.703 1.42628 139.08 1.81006 140.144C1.85748 140.267 1.906 140.377 1.95789 140.475C3.9012 137.375 6.96133 136.133 9.20537 135.222C9.65217 135.04 10.0739 134.87 10.4526 134.699L10.958 134.47C13.4408 133.349 15.5866 132.382 17.3855 129.086L17.4134 129.035H18.7443L18.6729 129.179C16.6571 133.245 13.795 134.525 11.2715 135.654L10.9357 135.804C10.5408 135.979 10.1258 136.149 9.6868 136.328C7.23356 137.33 4.18028 138.577 2.50743 141.94C2.46726 141.998 2.42822 142.03 2.39475 142.059L2.33271 142.116ZM1.68008 141.917H2.25686C2.26076 141.913 2.26467 141.909 2.26913 141.906C2.29646 141.884 2.32212 141.862 2.33941 141.837C4.0374 138.42 7.12923 137.157 9.6136 136.142C10.0509 135.963 10.4654 135.794 10.8564 135.62L11.1922 135.47C13.7759 134.314 16.4466 133.119 18.4241 129.232H17.535C15.7087 132.544 13.4424 133.567 11.0433 134.651L10.5379 134.879C10.1547 135.053 9.73079 135.224 9.28342 135.406C6.90615 136.371 3.94641 137.572 2.04322 140.722L1.95899 140.862L1.87365 140.724C1.78329 140.579 1.70241 140.411 1.62598 140.212C1.23441 139.123 1.08547 137.725 1.02858 136.744L1.02691 136.686C1.01352 136.27 1.00069 135.876 1.00069 135.508C1.01352 133.021 1.40845 130.966 2.20832 129.232H1.33369C0.581783 130.987 0.200803 133.071 0.200803 135.425V135.508C0.200803 135.776 0.213074 136.048 0.224788 136.334C0.230924 136.482 0.238176 136.63 0.242638 136.779C0.303438 138.205 0.525447 139.492 0.882995 140.501C1.10667 141.01 1.34931 141.453 1.64494 141.888C1.65219 141.897 1.66502 141.905 1.68008 141.917V141.917Z" fill="#5B7D96"/>
<path d="M19.1332 154.9C19.0066 154.399 18.8515 153.938 18.6696 153.526C18.5921 153.67 18.5714 153.855 18.5151 153.984C18.3605 154.327 18.2054 154.599 18.0303 154.899H19.1332L19.1332 154.9Z" fill="#5B7D96"/>
<path d="M19.2614 155H17.8555L17.9425 154.85C18.1138 154.558 18.2672 154.288 18.4234 153.943C18.4452 153.894 18.4608 153.833 18.4775 153.769C18.5021 153.676 18.5311 153.571 18.5807 153.479L18.6773 153.299L18.7604 153.485C18.9428 153.894 19.1001 154.362 19.2301 154.874L19.2614 155ZM18.203 154.801H19.0042C18.9088 154.443 18.7989 154.107 18.6773 153.802C18.675 153.808 18.6733 153.815 18.6711 153.822C18.6521 153.895 18.6321 153.965 18.6064 154.024C18.4742 154.317 18.3397 154.563 18.203 154.801Z" fill="#5B7D96"/>
<path d="M1.98367 154.744L1.88773 154.601C1.5921 154.162 1.36061 153.746 1.16259 153.293C0.723052 152.071 0.5797 150.641 0.535633 149.656C0.378885 146.585 0.768234 144.071 1.72541 141.975L1.9078 142.058C0.964005 144.125 0.581355 146.607 0.736432 149.646C0.79779 151.04 1.00976 152.275 1.3489 153.22C1.51847 153.605 1.71537 153.969 1.96081 154.346C3.77204 150.861 6.89728 149.589 9.41578 148.565C9.85812 148.385 10.2748 148.215 10.6608 148.043L11.0752 147.856C13.5206 146.756 16.0485 145.618 17.9434 141.97L18.1219 142.061C16.1942 145.771 13.6344 146.923 11.1578 148.038L10.7433 148.225C10.3545 148.399 9.93565 148.569 9.49275 148.749C6.96811 149.775 3.82716 151.054 2.06234 154.589L1.98367 154.744Z" fill="#5B7D96"/>
<path d="M19.6399 154.9C19.4921 154.327 19.3303 153.791 19.12 153.315C19.0357 153.14 18.8673 153.008 18.6703 153.008C18.4734 153.008 18.2976 153.14 18.2207 153.315C18.1225 153.541 18.094 153.727 18.0661 153.756C17.8831 154.178 17.6862 154.54 17.4893 154.901L19.64 154.901L19.6399 154.9Z" fill="#5B7D96"/>
<path d="M19.7684 155H17.3203L17.4012 154.853C17.5926 154.501 17.7906 154.138 17.973 153.715L17.9931 153.686C17.9915 153.682 17.9993 153.652 18.011 153.61C18.0344 153.529 18.0696 153.408 18.1276 153.275C18.2241 153.055 18.4417 152.907 18.6693 152.907C18.8908 152.907 19.1028 153.051 19.2093 153.271C19.3979 153.696 19.5597 154.19 19.7366 154.875L19.7684 155ZM17.6562 154.801H19.5096C19.3489 154.191 19.1983 153.742 19.0276 153.356C18.9556 153.206 18.8139 153.108 18.6694 153.108C18.5199 153.108 18.3765 153.207 18.3113 153.356C18.2594 153.477 18.227 153.587 18.2041 153.667C18.1841 153.737 18.1723 153.778 18.1528 153.808C17.9927 154.172 17.823 154.493 17.6562 154.801Z" fill="#5B7D96"/>
<path d="M19.1761 146.808C19.1761 145.065 18.9931 143.358 18.6417 142.016H19.6396C19.9905 143.444 20.1595 145.104 20.1595 146.808C20.1595 149.583 19.7378 152.364 18.9786 154.177C18.852 154.443 18.7115 154.657 18.5926 154.9H17.4754C17.6723 154.539 17.8686 154.181 18.0522 153.769C18.7405 152.195 19.1761 149.462 19.1761 146.808ZM17.4894 142.016H18.6417C16.5332 146.288 13.5814 147.416 10.8962 148.589C8.21152 149.827 4.34603 150.814 2.37815 154.9H1.26758C3.37611 150.077 7.88805 148.818 10.4958 147.68C13.1174 146.5 15.5495 145.59 17.4895 142.017L17.4894 142.016Z" fill="#5B7D96"/>
<path d="M18.6547 155H17.3066L17.4092 154.812C17.5938 154.472 17.7857 154.122 17.9592 153.73C18.6375 152.18 19.0753 149.463 19.0753 146.808C19.0753 145.157 18.9108 143.57 18.609 142.302C16.5853 146.227 13.7751 147.448 11.2913 148.526L10.936 148.68C10.5064 148.879 10.0491 149.07 9.56432 149.271C7.00455 150.338 4.1035 151.547 2.46749 154.943L2.44015 155H1.11426L1.17506 154.86C3.03584 150.605 6.71127 149.115 9.39528 148.028C9.77346 147.876 10.1288 147.732 10.454 147.589L10.9303 147.376C13.3283 146.306 15.5941 145.296 17.3997 141.969L17.4287 141.917H19.7168L19.7352 141.994C20.0776 143.383 20.2584 145.048 20.2584 146.808C20.2584 149.669 19.8138 152.438 19.0703 154.216C19 154.364 18.9269 154.493 18.8561 154.619C18.7958 154.727 18.7362 154.832 18.6809 154.944L18.6547 155ZM17.6429 154.801H18.5304C18.5789 154.706 18.6302 154.615 18.6821 154.521C18.7507 154.398 18.821 154.273 18.8873 154.135C19.6197 152.385 20.0587 149.643 20.0587 146.808C20.0587 145.097 19.8858 143.476 19.5595 142.116H18.7697C19.096 143.421 19.275 145.081 19.275 146.808C19.275 149.488 18.8305 152.237 18.1421 153.81C17.9832 154.169 17.8108 154.491 17.6429 154.801ZM1.42124 154.801H2.31538C3.99039 151.378 7.03709 150.109 9.48805 149.087C9.96999 148.886 10.4251 148.697 10.8541 148.499L11.2105 148.343C13.8054 147.217 16.4867 146.053 18.4792 142.117H17.5476C15.7147 145.461 13.43 146.48 11.0118 147.559L10.536 147.772C10.2075 147.916 9.84995 148.06 9.4701 148.214C6.8495 149.275 3.26845 150.726 1.42109 154.801H1.42124Z" fill="#5B7D96"/>
<path d="M2.29236 154.9C2.33476 154.86 2.38328 154.828 2.41898 154.779C4.40142 150.793 8.23794 149.778 10.8952 148.597C13.5515 147.401 16.4967 146.227 18.584 142.017H17.4734C15.5334 145.569 13.1298 146.471 10.4942 147.674C8.13979 148.736 4.2463 149.762 1.95485 153.555C1.85668 153.398 1.77914 153.226 1.71556 153.062C1.37808 152.125 1.19569 150.858 1.1254 149.624C1.1109 149.191 1.09751 148.777 1.09751 148.394C1.11202 145.653 1.59675 143.617 2.36261 142.018H1.26653C0.549761 143.668 0.0996094 145.714 0.0996094 148.311V148.394C0.0996094 148.805 0.127503 149.234 0.142006 149.667C0.197786 150.98 0.394683 152.312 0.789044 153.421C1.02834 153.965 1.28102 154.415 1.56216 154.83C1.59005 154.862 1.61794 154.88 1.64638 154.902H2.29231L2.29236 154.9Z" fill="#5B7D96"/>
<path d="M2.33326 155H1.61258L1.58525 154.979C1.54341 154.948 1.51664 154.928 1.48708 154.895C1.17694 154.44 0.928717 153.986 0.697244 153.459C0.330214 152.425 0.104866 151.118 0.0423927 149.67C0.0373725 149.521 0.0312367 149.374 0.0245431 149.228C0.0122716 148.951 0 148.665 0 148.393V148.31C0 145.902 0.394917 143.771 1.17473 141.977L1.20094 141.917H2.52125L2.4532 142.059C1.62153 143.796 1.21043 145.867 1.19759 148.393C1.19759 148.757 1.21042 149.149 1.22381 149.564L1.22548 149.619C1.28071 150.586 1.42629 151.963 1.81006 153.027C1.85804 153.15 1.90656 153.26 1.95789 153.358C3.9002 150.258 6.96076 149.016 9.20423 148.105C9.65103 147.925 10.0727 147.753 10.4526 147.582L10.9563 147.354C13.4402 146.232 15.5854 145.264 17.3854 141.968L17.4133 141.917H18.7442L18.6728 142.06C16.6569 146.126 13.7966 147.406 11.2725 148.535L10.935 148.687C10.5401 148.862 10.124 149.032 9.68501 149.211C7.23177 150.212 4.1795 151.459 2.50664 154.822C2.4676 154.879 2.42966 154.911 2.39619 154.939C2.38336 154.95 2.37054 154.96 2.35938 154.971L2.33326 155ZM1.68064 154.801H2.25572C2.26074 154.797 2.26521 154.792 2.27078 154.788C2.29812 154.765 2.3221 154.745 2.33884 154.721C4.03683 151.304 7.12808 150.042 9.6126 149.027C10.051 148.848 10.4649 148.679 10.8559 148.505L11.1934 148.355C13.7766 147.199 16.4473 146.003 18.4242 142.117H17.535C15.7088 145.429 13.4408 146.453 11.0417 147.537L10.538 147.764C10.1548 147.938 9.73085 148.11 9.28237 148.292C6.90509 149.256 3.94649 150.457 2.0433 153.607L1.95908 153.746L1.87262 153.608C1.78393 153.466 1.70305 153.299 1.62495 153.098C1.23338 152.008 1.08444 150.611 1.02755 149.629L1.02587 149.572C1.01249 149.156 0.999658 148.761 0.999658 148.393C1.01249 145.906 1.40741 143.851 2.20729 142.117L1.33377 142.116C0.581866 143.872 0.200886 145.955 0.200886 148.309V148.392C0.200886 148.661 0.213157 148.932 0.224871 149.219C0.231007 149.366 0.238258 149.513 0.242721 149.663C0.303521 151.089 0.52553 152.376 0.883078 153.386C1.10675 153.895 1.34939 154.338 1.64502 154.773C1.65116 154.779 1.66502 154.789 1.68064 154.801Z" fill="#5B7D96"/>
<path d="M19.1332 12.9838C19.0066 12.4835 18.8515 12.021 18.6696 11.6096C18.5921 11.7525 18.5714 11.9387 18.5151 12.0677C18.3605 12.4112 18.2054 12.683 18.0303 12.9832L19.1332 12.9838Z" fill="#5B7D96"/>
<path d="M19.2614 13.0829H17.8555L17.9425 12.9328C18.1138 12.6404 18.2677 12.3703 18.4234 12.0267C18.4452 11.9772 18.4608 11.9161 18.4775 11.8527C18.5021 11.7593 18.5311 11.6537 18.5807 11.562L18.6773 11.3835L18.7604 11.5692C18.9428 11.9789 19.1001 12.4464 19.2301 12.9589L19.2614 13.0829ZM18.203 12.8833H19.0042C18.9088 12.5248 18.7989 12.189 18.6761 11.8839C18.6745 11.89 18.6728 11.8972 18.6706 11.9044C18.6516 11.9778 18.6315 12.0478 18.6058 12.1068C18.4742 12.4008 18.3431 12.6399 18.203 12.8833Z" fill="#5B7D96"/>
<path d="M19.6399 12.9836C19.4921 12.4116 19.3303 11.874 19.12 11.3987C19.0357 11.2236 18.8673 11.0913 18.6703 11.0913C18.4734 11.0913 18.2976 11.2242 18.2207 11.3987C18.1225 11.6244 18.094 11.8106 18.0661 11.8384C17.8831 12.2609 17.6862 12.6217 17.4893 12.9835L19.6399 12.9836Z" fill="#5B7D96"/>
<path d="M19.7684 13.0832H17.3203L17.4012 12.9359C17.5926 12.5835 17.7917 12.2194 17.973 11.7997L17.9937 11.7686C17.9915 11.7664 17.9993 11.7352 18.0115 11.6935C18.0339 11.6129 18.069 11.4917 18.1281 11.3589C18.2247 11.1388 18.4434 10.9915 18.6699 10.9915C18.8914 10.9915 19.1034 11.1343 19.2099 11.3556C19.3979 11.7797 19.5603 12.2739 19.7371 12.9588L19.7684 13.0832ZM17.6562 12.8837H19.5096C19.3489 12.2733 19.1978 11.8236 19.0276 11.439C18.9551 11.2889 18.8139 11.1905 18.6694 11.1905C18.5205 11.1905 18.3765 11.29 18.3113 11.439C18.2594 11.5591 18.227 11.6691 18.2041 11.7492C18.1841 11.8187 18.1723 11.8598 18.1523 11.8893C17.9927 12.2534 17.823 12.5757 17.6562 12.8837Z" fill="#5B7D96"/>
<path d="M19.1761 4.89011C19.1761 3.148 18.9931 1.4409 18.6417 0.100098H19.6396C19.9905 1.52814 20.1595 3.18799 20.1595 4.89011C20.1595 7.66678 19.7378 10.4462 18.9786 12.2606C18.852 12.5252 18.7115 12.7403 18.5926 12.9832H17.4754C17.6723 12.6224 17.8686 12.2644 18.0522 11.8531C18.7405 10.2783 19.1761 7.54554 19.1761 4.89011ZM17.4894 0.100098H18.6417C16.5332 4.37155 13.5814 5.49833 10.8962 6.67235C8.21152 7.91085 4.34603 8.89758 2.37815 12.9833H1.26758C3.37611 8.16044 7.88805 6.90146 10.4958 5.76358C13.1174 4.58289 15.5495 3.67397 17.4895 0.10024L17.4894 0.100098Z" fill="#5B7D96"/>
<path d="M18.6546 13.0835H17.3065L17.4091 12.8956C17.5937 12.5559 17.7856 12.2057 17.9591 11.8133C18.6374 10.264 19.0752 7.54693 19.0752 4.89137C19.0752 3.24033 18.9107 1.65334 18.6089 0.385395C16.5858 4.30934 13.7773 5.52947 11.2945 6.60843L10.9364 6.76408C10.5063 6.96308 10.0495 7.15376 9.56473 7.35553C7.00496 8.42283 4.10391 9.63129 2.46846 13.0277L2.44113 13.0844H1.11523L1.17603 12.9449C3.03681 8.68964 6.71225 7.20098 9.39625 6.11306C9.77443 5.96075 10.1298 5.81567 10.455 5.67392L10.9313 5.46046C13.3293 4.39094 15.595 3.38037 17.4007 0.0534059L17.4297 0.00170898H19.7177L19.7361 0.0773089C20.0786 1.46701 20.2594 3.1319 20.2594 4.89123C20.2594 7.75129 19.8148 10.5211 19.0713 12.3C19.001 12.4473 18.929 12.5757 18.8576 12.7019C18.7968 12.8103 18.7377 12.9164 18.6819 13.0287L18.6546 13.0835ZM17.6428 12.8839H18.5303C18.5788 12.7883 18.6301 12.6966 18.682 12.6032C18.7517 12.4803 18.822 12.3564 18.8873 12.2174C19.6196 10.4663 20.0586 7.72537 20.0586 4.88979C20.0586 3.17827 19.8857 1.55784 19.5594 0.199245H18.7696C19.0959 1.50446 19.2749 3.16319 19.2749 4.88979C19.2749 7.57083 18.8304 10.319 18.142 11.8922C17.9831 12.2513 17.8107 12.5732 17.6428 12.8839ZM1.42114 12.8839H2.31529C3.98986 9.46187 7.03643 8.19222 9.48753 7.17103C9.96946 6.97035 10.4257 6.77969 10.8541 6.58236L11.215 6.42559C13.8076 5.29882 16.4891 4.13419 18.4798 0.200284H17.5483C15.7153 3.54504 13.4317 4.56395 11.0136 5.64234L10.5373 5.85525C10.2087 5.99866 9.85117 6.14374 9.47131 6.29773C6.84972 7.35835 3.2685 8.80883 1.42114 12.8839Z" fill="#5B7D96"/>
<path d="M18.6546 13.0835H17.3065L17.4091 12.8956C17.5937 12.5559 17.7856 12.2057 17.9591 11.8133C18.6374 10.264 19.0752 7.54693 19.0752 4.89137C19.0752 3.24033 18.9107 1.65334 18.6089 0.385395C16.5858 4.30934 13.7773 5.52947 11.2945 6.60843L10.9364 6.76408C10.5063 6.96308 10.0495 7.15376 9.56473 7.35553C7.00496 8.42283 4.10391 9.63129 2.46846 13.0277L2.44113 13.0844H1.11523L1.17603 12.9449C3.03681 8.68964 6.71225 7.20098 9.39625 6.11306C9.77443 5.96075 10.1298 5.81567 10.455 5.67392L10.9313 5.46046C13.3293 4.39094 15.595 3.38037 17.4007 0.0534059L17.4297 0.00170898H19.7177L19.7361 0.0773089C20.0786 1.46701 20.2594 3.1319 20.2594 4.89123C20.2594 7.75129 19.8148 10.5211 19.0713 12.3C19.001 12.4473 18.929 12.5757 18.8576 12.7019C18.7968 12.8103 18.7377 12.9164 18.6819 13.0287L18.6546 13.0835ZM17.6428 12.8839H18.5303C18.5788 12.7883 18.6301 12.6966 18.682 12.6032C18.7517 12.4803 18.822 12.3564 18.8873 12.2174C19.6196 10.4663 20.0586 7.72537 20.0586 4.88979C20.0586 3.17827 19.8857 1.55784 19.5594 0.199245H18.7696C19.0959 1.50446 19.2749 3.16319 19.2749 4.88979C19.2749 7.57083 18.8304 10.319 18.142 11.8922C17.9831 12.2513 17.8107 12.5732 17.6428 12.8839ZM1.42114 12.8839H2.31529C3.98986 9.46187 7.03643 8.19222 9.48753 7.17103C9.96946 6.97035 10.4257 6.77969 10.8541 6.58236L11.215 6.42559C13.8076 5.29882 16.4891 4.13419 18.4798 0.200284H17.5483C15.7153 3.54504 13.4317 4.56395 11.0136 5.64234L10.5373 5.85525C10.2087 5.99866 9.85117 6.14374 9.47131 6.29773C6.84972 7.35835 3.2685 8.80883 1.42114 12.8839Z" fill="#5B7D96"/>
<path d="M2.29236 12.9838C2.33476 12.9448 2.38328 12.912 2.41898 12.8626C4.40142 8.87744 8.23794 7.86124 10.8952 6.6801C13.5515 5.48496 16.4967 4.31142 18.584 0.100734H17.4734C15.5334 3.6534 13.1298 4.55448 10.4942 5.75739C8.13979 6.81967 4.2463 7.84701 1.95485 11.6392C1.85668 11.4824 1.77914 11.3101 1.71556 11.145C1.37808 10.2078 1.19569 8.94152 1.1254 7.70688C1.11202 7.27273 1.09807 6.85805 1.09807 6.47505C1.11258 3.73453 1.5973 1.69841 2.36316 0.0996094H1.26709C0.550319 1.7495 0.100167 3.79572 0.100167 6.3928L0.0996094 6.47507C0.0996094 6.88642 0.127498 7.31556 0.142002 7.74859C0.197781 9.06104 0.394683 10.3918 0.789044 11.5013C1.02834 12.045 1.28102 12.4958 1.56216 12.911C1.59005 12.9438 1.61794 12.9611 1.64638 12.9828H2.29231L2.29236 12.9838Z" fill="#5B7D96"/>
<path d="M2.3327 13.0832H1.61314L1.58692 13.0627C1.5462 13.0326 1.5172 13.0115 1.48763 12.9776C1.18308 12.529 0.927043 12.0626 0.698355 11.5434C0.330768 10.5084 0.104868 9.20038 0.0435083 7.75512C0.0384881 7.60614 0.0323523 7.45884 0.0256587 7.31208C0.0128293 7.03359 0 6.74842 0 6.47493V6.39321C0 3.98511 0.394917 1.85394 1.17473 0.0600345L1.20094 0H2.52125L2.4532 0.142861C1.62153 1.87942 1.21043 3.95125 1.19759 6.47604C1.19759 6.84014 1.21042 7.23204 1.22381 7.64729L1.22548 7.70287C1.2807 8.66788 1.42628 10.0448 1.81006 11.1104C1.85803 11.2338 1.90656 11.3439 1.95788 11.4417C3.9002 8.34156 6.96075 7.09908 9.20423 6.18918C9.65102 6.00741 10.0733 5.83619 10.4531 5.66498L10.9568 5.43707C13.4408 4.31585 15.586 3.34745 17.3859 0.0522148L17.4138 0.00051795H18.7447L18.6733 0.143934C16.6575 4.20961 13.796 5.48979 11.2725 6.61885L10.9372 6.77005C10.5423 6.94515 10.1262 7.11525 9.68834 7.29424C7.23509 8.29595 4.18183 9.54339 2.50997 12.9059C2.47092 12.9643 2.43243 12.996 2.39785 13.0238C2.38558 13.0343 2.37386 13.0443 2.36159 13.0555L2.3327 13.0832ZM1.67953 12.8837H2.25517C2.26019 12.8798 2.26409 12.8759 2.26855 12.8725C2.29644 12.8486 2.32043 12.8286 2.33716 12.8047C4.03515 9.38768 7.12641 8.12529 9.61092 7.10965C10.0493 6.93011 10.4627 6.76167 10.8542 6.58768L11.1912 6.43703C13.7749 5.28135 16.4456 4.08614 18.4225 0.198914H17.5334C15.7072 3.51137 13.4391 4.53483 11.04 5.61763L10.5363 5.84555C10.1531 6.01842 9.72863 6.19076 9.28015 6.37308C6.90288 7.33808 3.94428 8.5394 2.04109 11.6885L1.95686 11.828L1.8704 11.6902C1.7806 11.5473 1.70027 11.38 1.62274 11.1793C1.23005 10.0892 1.08111 8.69222 1.02533 7.71117L1.02366 7.6528C1.01083 7.237 0.998001 6.84344 0.998001 6.47489C1.01083 3.98781 1.40576 1.93221 2.20563 0.198923L1.33323 0.199479C0.581321 1.9561 0.200341 4.03889 0.200341 6.39305V6.47477C0.200341 6.74326 0.212613 7.01453 0.224326 7.30137C0.230462 7.44868 0.237714 7.59709 0.242176 7.74552C0.302976 9.17142 0.524985 10.4587 0.882533 11.4688C1.10621 11.978 1.3494 12.4205 1.64448 12.8552C1.65173 12.8624 1.66456 12.8719 1.67962 12.8835L1.67953 12.8837Z" fill="#5B7D96"/>
<path d="M2.3327 13.0832H1.61314L1.58692 13.0627C1.5462 13.0326 1.5172 13.0115 1.48763 12.9776C1.18308 12.529 0.927043 12.0626 0.698355 11.5434C0.330768 10.5084 0.104868 9.20038 0.0435083 7.75512C0.0384881 7.60614 0.0323523 7.45884 0.0256587 7.31208C0.0128293 7.03359 0 6.74842 0 6.47493V6.39321C0 3.98511 0.394917 1.85394 1.17473 0.0600345L1.20094 0H2.52125L2.4532 0.142861C1.62153 1.87942 1.21043 3.95125 1.19759 6.47604C1.19759 6.84014 1.21042 7.23204 1.22381 7.64729L1.22548 7.70287C1.2807 8.66788 1.42628 10.0448 1.81006 11.1104C1.85803 11.2338 1.90656 11.3439 1.95788 11.4417C3.9002 8.34156 6.96075 7.09908 9.20423 6.18918C9.65102 6.00741 10.0733 5.83619 10.4531 5.66498L10.9568 5.43707C13.4408 4.31585 15.586 3.34745 17.3859 0.0522148L17.4138 0.00051795H18.7447L18.6733 0.143934C16.6575 4.20961 13.796 5.48979 11.2725 6.61885L10.9372 6.77005C10.5423 6.94515 10.1262 7.11525 9.68834 7.29424C7.23509 8.29595 4.18183 9.54339 2.50997 12.9059C2.47092 12.9643 2.43243 12.996 2.39785 13.0238C2.38558 13.0343 2.37386 13.0443 2.36159 13.0555L2.3327 13.0832ZM1.67953 12.8837H2.25517C2.26019 12.8798 2.26409 12.8759 2.26855 12.8725C2.29644 12.8486 2.32043 12.8286 2.33716 12.8047C4.03515 9.38768 7.12641 8.12529 9.61092 7.10965C10.0493 6.93011 10.4627 6.76167 10.8542 6.58768L11.1912 6.43703C13.7749 5.28135 16.4456 4.08614 18.4225 0.198914H17.5334C15.7072 3.51137 13.4391 4.53483 11.04 5.61763L10.5363 5.84555C10.1531 6.01842 9.72863 6.19076 9.28015 6.37308C6.90288 7.33808 3.94428 8.5394 2.04109 11.6885L1.95686 11.828L1.8704 11.6902C1.7806 11.5473 1.70027 11.38 1.62274 11.1793C1.23005 10.0892 1.08111 8.69222 1.02533 7.71117L1.02366 7.6528C1.01083 7.237 0.998001 6.84344 0.998001 6.47489C1.01083 3.98781 1.40576 1.93221 2.20563 0.198923L1.33323 0.199479C0.581321 1.9561 0.200341 4.03889 0.200341 6.39305V6.47477C0.200341 6.74326 0.212613 7.01453 0.224326 7.30137C0.230462 7.44868 0.237714 7.59709 0.242176 7.74552C0.302976 9.17142 0.524985 10.4587 0.882533 11.4688C1.10621 11.978 1.3494 12.4205 1.64448 12.8552C1.65173 12.8624 1.66456 12.8719 1.67962 12.8835L1.67953 12.8837Z" fill="#5B7D96"/>
<path d="M19.1332 25.8656C19.0066 25.3642 18.8515 24.9028 18.6696 24.4915C18.5921 24.6349 18.5714 24.8205 18.5151 24.9495C18.3605 25.293 18.2054 25.5649 18.0303 25.865L19.1332 25.8656Z" fill="#5B7D96"/>
<path d="M19.2614 25.9654H17.8555L17.9425 25.8153C18.1143 25.5213 18.2694 25.2505 18.4234 24.9087C18.4452 24.8592 18.4608 24.7981 18.4775 24.7347C18.5021 24.6413 18.5311 24.5362 18.5807 24.444L18.6773 24.2644L18.7604 24.4501C18.9428 24.8603 19.1013 25.3284 19.2301 25.8409L19.2614 25.9654ZM18.203 25.7664H19.0042C18.9088 25.4079 18.7989 25.0721 18.6761 24.7669C18.6745 24.7731 18.6728 24.7803 18.6706 24.7875C18.6516 24.8609 18.6315 24.9309 18.6058 24.9899C18.4753 25.2817 18.3431 25.5218 18.203 25.7664Z" fill="#5B7D96"/>
<path d="M1.98367 25.7106L1.88773 25.5677C1.59098 25.1269 1.36061 24.7116 1.16259 24.2608C0.723052 23.0373 0.5797 21.6071 0.535633 20.6221C0.378885 17.5508 0.768234 15.0383 1.72541 12.9414L1.9078 13.0242C0.964005 15.0905 0.581355 17.573 0.736432 20.6125C0.79779 22.0061 1.00976 23.2423 1.3489 24.1868C1.51847 24.5715 1.71537 24.935 1.96081 25.3136C3.77204 21.8271 6.89728 20.5558 9.41578 19.5313C9.85699 19.3512 10.2753 19.1822 10.6602 19.0093L11.0752 18.822C13.52 17.7224 16.0474 16.5839 17.9429 12.9358L18.1214 13.0275C16.1936 16.7363 13.6338 17.8887 11.1578 19.0038L10.7428 19.1911C10.354 19.3651 9.93507 19.5352 9.49218 19.7153C6.96754 20.7426 3.82659 22.0205 2.06177 25.556L1.98367 25.7106Z" fill="#5B7D96"/>
<path d="M19.6399 25.8657C19.4921 25.2937 19.3303 24.7561 19.12 24.2808C19.0357 24.1057 18.8673 23.9734 18.6703 23.9734C18.4734 23.9734 18.2976 24.1057 18.2207 24.2808C18.1225 24.5065 18.094 24.6921 18.0661 24.7205C17.8831 25.143 17.6862 25.5037 17.4893 25.8656L19.6399 25.8657Z" fill="#5B7D96"/>
<path d="M19.7684 25.9652H17.3203L17.4001 25.8179C17.5926 25.4649 17.7917 25.0991 17.9725 24.6806L17.9931 24.6494C17.9909 24.6461 17.9987 24.6161 18.011 24.5744C18.0333 24.4938 18.0684 24.3726 18.1276 24.2397C18.2241 24.0196 18.4417 23.8723 18.6693 23.8723C18.8908 23.8723 19.1028 24.0157 19.2093 24.2364C19.3974 24.6595 19.5597 25.1536 19.7366 25.8396L19.7684 25.9652ZM17.6562 25.7662H19.5096C19.3489 25.1547 19.1978 24.7056 19.0276 24.3215C18.9556 24.1714 18.8139 24.0731 18.6694 24.0731C18.5199 24.0731 18.3765 24.1726 18.3113 24.3215C18.2594 24.4416 18.227 24.5517 18.2041 24.6317C18.1841 24.7012 18.1723 24.7423 18.1523 24.7718C17.9938 25.1353 17.823 25.4577 17.6562 25.7662Z" fill="#5B7D96"/>
<path d="M19.1761 17.7743C19.1761 16.0316 18.9931 14.3251 18.6417 12.9832H19.6396C19.9905 14.4112 20.1595 16.071 20.1595 17.7743C20.1595 20.551 19.7378 23.3304 18.9786 25.1442C18.852 25.4093 18.7115 25.6239 18.5926 25.8668H17.4754C17.6723 25.5049 17.8686 25.1481 18.0522 24.7362C18.7405 23.1624 19.1761 20.4286 19.1761 17.7743ZM17.4894 12.9843H18.6418C16.5333 17.2567 13.5814 18.3835 10.8962 19.5571C8.21152 20.7945 4.34603 21.7823 2.37815 25.8681H1.26758C3.37611 21.0452 7.88805 19.7862 10.4958 18.6483C13.1174 17.4671 15.5495 16.5582 17.4895 12.9844L17.4894 12.9843Z" fill="#5B7D96"/>
<path d="M18.655 25.9651H17.3068L17.415 25.7673C17.5979 25.4309 17.7876 25.0835 17.9605 24.6938C18.6388 23.1457 19.0766 20.4279 19.0766 17.772C19.0766 16.1209 18.9121 14.5339 18.6103 13.266C16.5872 17.1899 13.7787 18.41 11.2959 19.489L10.9378 19.6447C10.5083 19.8431 10.0509 20.0338 9.56725 20.235C7.00748 21.3012 4.10586 22.5102 2.47041 25.9072L2.44308 25.9639H1.11719L1.17799 25.8243C3.03877 21.5691 6.71463 20.0793 9.3982 18.9914C9.77583 18.8391 10.1317 18.694 10.4569 18.5523L10.9344 18.3388C13.3324 17.2693 15.5981 16.2598 17.4026 12.9323L17.4316 12.8806H19.7197L19.7381 12.9562C20.0806 14.3459 20.2613 16.0108 20.2613 17.7713C20.2613 20.6323 19.8167 23.4012 19.0732 25.1796C19.0029 25.3269 18.931 25.4553 18.8596 25.5815C18.7988 25.6899 18.7396 25.796 18.6838 25.9083L18.655 25.9651ZM17.6431 25.7661H18.5306C18.5791 25.6705 18.6315 25.5788 18.6834 25.4854C18.752 25.3626 18.8223 25.2386 18.8881 25.0996C19.6205 23.3486 20.0595 20.6082 20.0595 17.7726C20.0595 16.0611 19.8866 14.4407 19.5603 13.0809H18.7704C19.0967 14.3861 19.2758 16.0454 19.2758 17.7726C19.2758 20.4536 18.8312 23.2019 18.1429 24.7745C17.9834 25.1341 17.811 25.456 17.6431 25.7661ZM1.42144 25.7661H2.31559C3.99059 22.3436 7.0373 21.0739 9.4894 20.0523C9.97133 19.8516 10.4259 19.6621 10.8554 19.4642L11.2152 19.3074C13.8084 18.1806 16.4898 17.016 18.4811 13.0821H17.5496C15.7167 16.4268 13.4331 17.4452 11.0155 18.5236L10.538 18.737C10.2095 18.8805 9.85196 19.0255 9.4721 19.1795C6.84993 20.2413 3.26894 21.6915 1.42144 25.7661Z" fill="#5B7D96"/>
<path d="M2.29236 25.866C2.33476 25.8271 2.38328 25.7943 2.41898 25.7443C4.40142 21.7591 8.23794 20.7429 10.8952 19.5618C13.5515 18.3666 16.4967 17.1931 18.584 12.9824H17.4734C15.5334 16.5351 13.1298 17.4362 10.4942 18.6391C8.13979 19.7014 4.2463 20.7287 1.95485 24.5209C1.85668 24.363 1.77914 24.1918 1.71556 24.0267C1.37808 23.0895 1.19569 21.8226 1.1254 20.5886C1.1109 20.1561 1.09751 19.7409 1.09751 19.3584C1.11202 16.6179 1.59675 14.5818 2.36261 12.983H1.26653C0.549761 14.6329 0.0996094 16.6791 0.0996094 19.2762V19.359C0.0996094 19.7703 0.127503 20.1995 0.142006 20.6325C0.197786 21.9461 0.394683 23.2768 0.789044 24.3852C1.02834 24.9295 1.28102 25.3797 1.56216 25.795C1.59005 25.8278 1.61794 25.845 1.64638 25.8667L2.29231 25.8672L2.29236 25.866Z" fill="#5B7D96"/>
<path d="M2.33257 25.9654H1.613L1.58679 25.9448C1.54607 25.9148 1.51706 25.8937 1.4875 25.8598C1.17792 25.404 0.929136 24.9504 0.69822 24.4245C0.331191 23.39 0.105847 22.0826 0.0433736 20.6362C0.0383534 20.4872 0.0322176 20.3404 0.025524 20.1937C0.0132524 19.9174 0.000976562 19.63 0.000976562 19.3576V19.2748C0.000976562 16.8667 0.395898 14.7355 1.17571 12.9416L1.20192 12.8816H2.52223L2.45418 13.0245C1.62251 14.761 1.21141 16.8328 1.19857 19.3576C1.19857 19.7217 1.2114 20.1131 1.22479 20.5283L1.22646 20.585C1.28169 21.55 1.42726 22.927 1.81104 23.9925C1.85845 24.1154 1.90754 24.2254 1.95887 24.3238C3.90118 21.2231 6.96174 19.9812 9.20464 19.0713C9.65143 18.8896 10.0737 18.7183 10.4535 18.5471L10.9584 18.3187C13.4423 17.1974 15.587 16.229 17.3871 12.9338L17.4149 12.8821H18.7458L18.6744 13.0255C16.6586 17.0912 13.7971 18.3714 11.2736 19.5004L10.9367 19.6511C10.5418 19.8262 10.1256 19.9963 9.68777 20.1753C7.23453 21.177 4.18126 22.4244 2.5094 25.787C2.47036 25.8453 2.43131 25.8776 2.39729 25.9059L2.33257 25.9654ZM1.67939 25.7664H2.25503C2.25894 25.7631 2.26396 25.7592 2.26842 25.7553C2.29631 25.7314 2.32029 25.7114 2.33703 25.6875C4.03559 22.2693 7.12685 21.0069 9.61122 19.9924C10.0496 19.8128 10.463 19.6444 10.8545 19.4704L11.1915 19.3198C13.7752 18.1641 16.4459 16.9689 18.4228 13.0816H17.5337C15.7075 16.3941 13.44 17.4176 11.0414 18.5004L10.5366 18.7288C10.1534 18.9017 9.72894 19.074 9.28046 19.2564C6.90318 20.2214 3.94458 21.4227 2.04196 24.5718L1.95774 24.7113L1.87128 24.5734C1.78148 24.43 1.70115 24.2627 1.62362 24.0626C1.23093 22.9725 1.08199 21.5745 1.02621 20.5945L1.02454 20.5355C1.01115 20.1197 0.998324 19.7256 0.998324 19.3576C1.01115 16.8705 1.40608 14.8149 2.20595 13.0817L1.33299 13.0828C0.581086 14.8394 0.200106 16.9222 0.200106 19.2763V19.3592C0.200106 19.6277 0.212377 19.8989 0.224649 20.1863C0.230785 20.3331 0.237479 20.4809 0.242499 20.6294C0.303299 22.0553 0.525308 23.3426 0.882856 24.3527C1.10653 24.8613 1.34917 25.3032 1.6448 25.7401C1.6515 25.7457 1.66433 25.7553 1.67939 25.7664Z" fill="#5B7D96"/>
<path d="M2.33257 25.9654H1.613L1.58679 25.9448C1.54607 25.9148 1.51706 25.8937 1.4875 25.8598C1.17792 25.404 0.929136 24.9504 0.69822 24.4245C0.331191 23.39 0.105847 22.0826 0.0433736 20.6362C0.0383534 20.4872 0.0322176 20.3404 0.025524 20.1937C0.0132524 19.9174 0.000976562 19.63 0.000976562 19.3576V19.2748C0.000976562 16.8667 0.395898 14.7355 1.17571 12.9416L1.20192 12.8816H2.52223L2.45418 13.0245C1.62251 14.761 1.21141 16.8328 1.19857 19.3576C1.19857 19.7217 1.2114 20.1131 1.22479 20.5283L1.22646 20.585C1.28169 21.55 1.42726 22.927 1.81104 23.9925C1.85845 24.1154 1.90754 24.2254 1.95887 24.3238C3.90118 21.2231 6.96174 19.9812 9.20464 19.0713C9.65143 18.8896 10.0737 18.7183 10.4535 18.5471L10.9584 18.3187C13.4423 17.1974 15.587 16.229 17.3871 12.9338L17.4149 12.8821H18.7458L18.6744 13.0255C16.6586 17.0912 13.7971 18.3714 11.2736 19.5004L10.9367 19.6511C10.5418 19.8262 10.1256 19.9963 9.68777 20.1753C7.23453 21.177 4.18126 22.4244 2.5094 25.787C2.47036 25.8453 2.43131 25.8776 2.39729 25.9059L2.33257 25.9654ZM1.67939 25.7664H2.25503C2.25894 25.7631 2.26396 25.7592 2.26842 25.7553C2.29631 25.7314 2.32029 25.7114 2.33703 25.6875C4.03559 22.2693 7.12685 21.0069 9.61122 19.9924C10.0496 19.8128 10.463 19.6444 10.8545 19.4704L11.1915 19.3198C13.7752 18.1641 16.4459 16.9689 18.4228 13.0816H17.5337C15.7075 16.3941 13.44 17.4176 11.0414 18.5004L10.5366 18.7288C10.1534 18.9017 9.72894 19.074 9.28046 19.2564C6.90318 20.2214 3.94458 21.4227 2.04196 24.5718L1.95774 24.7113L1.87128 24.5734C1.78148 24.43 1.70115 24.2627 1.62362 24.0626C1.23093 22.9725 1.08199 21.5745 1.02621 20.5945L1.02454 20.5355C1.01115 20.1197 0.998324 19.7256 0.998324 19.3576C1.01115 16.8705 1.40608 14.8149 2.20595 13.0817L1.33299 13.0828C0.581086 14.8394 0.200106 16.9222 0.200106 19.2763V19.3592C0.200106 19.6277 0.212377 19.8989 0.224649 20.1863C0.230785 20.3331 0.237479 20.4809 0.242499 20.6294C0.303299 22.0553 0.525308 23.3426 0.882856 24.3527C1.10653 24.8613 1.34917 25.3032 1.6448 25.7401C1.6515 25.7457 1.66433 25.7553 1.67939 25.7664Z" fill="#5B7D96"/>
<path d="M19.1332 38.7501C19.0066 38.2498 18.8515 37.7873 18.6696 37.376C18.5921 37.5194 18.5714 37.7051 18.5151 37.834C18.3605 38.1776 18.2054 38.4494 18.0303 38.7496L19.1332 38.7501Z" fill="#5B7D96"/>
<path d="M19.2614 38.8499H17.8555L17.9425 38.6998C18.1143 38.4074 18.2677 38.1373 18.4234 37.7932C18.4452 37.7437 18.4608 37.6826 18.4775 37.6192C18.5021 37.5258 18.5311 37.4208 18.5807 37.3285L18.6773 37.1489L18.7604 37.3346C18.9428 37.7448 19.1013 38.2129 19.2301 38.7243L19.2614 38.8499ZM18.203 38.6509H19.0042C18.9088 38.2924 18.7989 37.9577 18.6761 37.6515C18.6745 37.6587 18.6728 37.6648 18.6706 37.672C18.6516 37.7454 18.6315 37.8154 18.6058 37.8744C18.4742 38.1679 18.3431 38.408 18.203 38.6509Z" fill="#5B7D96"/>
<path d="M1.98367 38.5933L1.88773 38.4504C1.59043 38.0091 1.36005 37.5927 1.16259 37.1436C0.723052 35.9195 0.5797 34.4899 0.535633 33.5048C0.378885 30.4336 0.768234 27.921 1.72541 25.8241L1.9078 25.907C0.964005 27.9732 0.581355 30.4558 0.736432 33.4953C0.79779 34.8889 1.00976 36.1241 1.3489 37.0696C1.51736 37.4537 1.71537 37.8172 1.96081 38.1963C3.77204 34.7099 6.89785 33.4379 9.41692 32.4129C9.85926 32.2334 10.2759 32.0638 10.6614 31.8915L11.0769 31.7041C13.5217 30.6046 16.0485 29.4661 17.9434 25.8191L18.1219 25.9108C16.1948 29.6196 13.635 30.772 11.1595 31.8859L10.7439 32.0733C10.3551 32.2473 9.93622 32.4174 9.49388 32.5975C6.96924 33.6248 3.82772 34.9027 2.06347 38.4387L1.98367 38.5933Z" fill="#5B7D96"/>
<path d="M19.6399 38.7502C19.4921 38.1782 19.3303 37.6406 19.12 37.1653C19.0357 36.9902 18.8673 36.8579 18.6703 36.8579C18.4734 36.8579 18.2976 36.9902 18.2207 37.1653C18.1225 37.391 18.094 37.5767 18.0661 37.605C17.8831 38.0275 17.6862 38.3883 17.4893 38.7501L19.6399 38.7502Z" fill="#5B7D96"/>
<path d="M19.7684 38.8496H17.3203L17.4001 38.7023C17.5942 38.346 17.7928 37.9819 17.9725 37.5661L17.9926 37.536C17.9909 37.5327 17.9987 37.5016 18.0104 37.4604C18.0339 37.3798 18.069 37.2587 18.127 37.1258C18.2247 36.9051 18.4422 36.7578 18.6693 36.7578C18.8908 36.7578 19.1028 36.9012 19.2093 37.1219C19.3974 37.5461 19.5597 38.0402 19.7366 38.7251L19.7684 38.8496ZM17.6562 38.6506H19.5096C19.3489 38.0402 19.1978 37.5905 19.0276 37.2059C18.9556 37.0558 18.8139 36.9574 18.6694 36.9574C18.5199 36.9574 18.3765 37.0569 18.3113 37.2059C18.2594 37.3271 18.227 37.4361 18.203 37.5161C18.1841 37.5856 18.1718 37.6267 18.1528 37.6562C17.9938 38.0197 17.823 38.3415 17.6562 38.6506Z" fill="#5B7D96"/>
<path d="M19.1761 30.6571C19.1761 28.9144 18.9931 27.2079 18.6417 25.8671H19.6396C19.9905 27.2946 20.1595 28.955 20.1595 30.6571C20.1595 33.4338 19.7378 36.2132 18.9786 38.0276C18.852 38.2922 18.7115 38.5073 18.5926 38.7502H17.4754C17.6723 38.3883 17.8686 38.0314 18.0522 37.6201C18.7405 36.0453 19.1761 33.3115 19.1761 30.6571ZM17.4894 25.866H18.6418C16.5333 30.1374 13.5814 31.2642 10.8962 32.4382C8.21152 33.6756 4.34603 34.6635 2.37815 38.7492H1.26758C3.37611 33.9263 7.88805 32.6673 10.4958 31.5295C13.1174 30.3488 15.5495 29.4404 17.4895 25.8661L17.4894 25.866Z" fill="#5B7D96"/>
<path d="M18.655 38.8497H17.3068L17.415 38.6512C17.5979 38.3149 17.7876 37.9675 17.9605 37.5784C18.6388 36.0291 19.0766 33.312 19.0766 30.6565C19.0766 29.0054 18.9121 27.4184 18.6103 26.1505C16.5872 30.0744 13.7787 31.2946 11.2959 32.3735L10.9378 32.5292C10.5083 32.7276 10.0509 32.9183 9.56725 33.1195C7.00748 34.1857 4.10586 35.3947 2.47041 38.7917L2.44308 38.8484H1.11719L1.17799 38.7089C3.03877 34.4525 6.71577 32.9638 9.39992 31.8759C9.77643 31.7236 10.1323 31.5796 10.4569 31.4368L10.935 31.2233C13.333 30.1538 15.5976 29.1432 17.4027 25.8168L17.4317 25.7651H19.7197L19.7381 25.8407C20.0806 27.2304 20.2613 28.8953 20.2613 30.6547C20.2613 33.5147 19.8167 36.2846 19.0732 38.0634C19.0029 38.2107 18.931 38.3391 18.8596 38.4653C18.7988 38.5737 18.7396 38.6798 18.6839 38.7921L18.655 38.8497ZM17.6431 38.6507H18.5306C18.5791 38.5551 18.6304 38.4633 18.6823 38.3699C18.752 38.2471 18.8223 38.1231 18.8876 37.9842C19.6199 36.2331 20.0589 33.4921 20.0589 30.6566C20.0589 28.945 19.886 27.3246 19.5597 25.966H18.7699C19.0962 27.2712 19.2752 28.93 19.2752 30.6566C19.2752 33.3376 18.8307 36.0858 18.1423 37.659C17.9834 38.0186 17.811 38.3405 17.6431 38.6507ZM1.42144 38.6507H2.31559C3.99059 35.2281 7.0373 33.9584 9.4894 32.9368C9.97133 32.7361 10.4259 32.5466 10.8554 32.3487L11.2163 32.1919C13.8089 31.0651 16.4904 29.9005 18.4811 25.9666H17.5496C15.7166 29.3102 13.4336 30.3291 11.0161 31.407L10.538 31.6215C10.2095 31.7649 9.8525 31.9095 9.47376 32.0629C6.85045 33.1246 3.26894 34.5755 1.42144 38.6507Z" fill="#5B7D96"/>
<path d="M2.29236 38.75C2.33476 38.7111 2.38328 38.6783 2.41898 38.6283C4.40142 34.6432 8.23794 33.627 10.8952 32.4458C13.5515 31.2507 16.4967 30.0771 18.584 25.8665H17.4734C15.5334 29.4191 13.1298 30.3202 10.4942 31.5231C8.13979 32.5854 4.2463 33.6127 1.95485 37.4049C1.85668 37.247 1.77914 37.0758 1.71556 36.9107C1.37808 35.9735 1.19569 34.7067 1.1254 33.4726C1.1109 33.0401 1.09751 32.6249 1.09751 32.2424C1.11202 29.5019 1.59675 27.4664 2.36261 25.867H1.26653C0.549761 27.5158 0.0996094 29.5631 0.0996094 32.1602V32.2425C0.0996094 32.6544 0.127503 33.0829 0.142006 33.516C0.197786 34.8295 0.394683 36.1603 0.789044 37.2693C1.02834 37.8129 1.28102 38.2638 1.56216 38.679C1.59005 38.7118 1.61794 38.729 1.64638 38.7507L2.29231 38.7513L2.29236 38.75Z" fill="#5B7D96"/>
<path d="M2.33257 38.8496H1.613L1.58679 38.829C1.54607 38.799 1.51706 38.7779 1.4875 38.744C1.18294 38.2954 0.926908 37.829 0.69822 37.3098C0.330634 36.2748 0.104733 34.9668 0.0433736 33.5204C0.0383534 33.3714 0.0322176 33.2246 0.025524 33.0779C0.0132524 32.8016 0.000976562 32.5153 0.000976562 32.2418V32.1596C0.000976562 29.7515 0.395897 27.6203 1.17571 25.8264L1.20192 25.7664H2.52223L2.45418 25.9092C1.62251 27.6458 1.21141 29.717 1.19857 32.2424C1.19857 32.6076 1.2114 32.9995 1.22479 33.4153L1.22646 33.4692C1.28169 34.4342 1.42726 35.8112 1.81104 36.8767C1.85845 36.9996 1.90754 37.1097 1.95887 37.208C3.90118 34.1079 6.96174 32.8654 9.20521 31.9555C9.652 31.7738 10.0743 31.6025 10.4541 31.4313L10.9578 31.2034C13.4417 30.0822 15.587 29.1138 17.3869 25.8186L17.4148 25.7669H18.7457L18.6743 25.9103C16.6585 29.976 13.7981 31.2561 11.274 32.3852L10.9366 32.5358C10.5417 32.711 10.1255 32.8816 9.68599 33.0612C7.23332 34.0629 4.18048 35.3103 2.50819 38.6723C2.46914 38.7306 2.4301 38.7629 2.39607 38.7912L2.33257 38.8496ZM1.67939 38.6506H2.25503C2.25893 38.6467 2.26396 38.6434 2.26842 38.6395C2.29631 38.6156 2.32029 38.5956 2.33703 38.5717C4.03502 35.1546 7.12627 33.8922 9.61021 32.8777C10.0486 32.6982 10.4625 32.5298 10.8547 32.3552L11.1921 32.204C13.7753 31.0483 16.446 29.8531 18.4229 25.9665H17.5338C15.7075 29.2789 13.4395 30.3024 11.0404 31.3852L10.5367 31.6131C10.1535 31.786 9.72902 31.9583 9.28054 32.1406C6.90327 33.1056 3.94467 34.3069 2.04148 37.456L1.95725 37.5956L1.87079 37.4577C1.78099 37.3143 1.70067 37.1475 1.62313 36.9468C1.23044 35.8567 1.0815 34.4588 1.02573 33.4787L1.02405 33.422C1.01067 33.0045 0.997836 32.611 0.997836 32.2424C1.01067 29.7553 1.40559 27.7009 2.20546 25.9665L1.33306 25.967C0.581156 27.7225 0.200176 29.806 0.200176 32.1606V32.2429C0.200176 32.5113 0.212447 32.7832 0.224719 33.07C0.230855 33.2167 0.237548 33.3646 0.242569 33.513C0.303368 34.9389 0.525377 36.2262 0.882925 37.2363C1.1066 37.7455 1.3498 38.188 1.64487 38.6227C1.65157 38.6299 1.66433 38.6384 1.67939 38.6506Z" fill="#5B7D96"/>
<path d="M19.1332 51.633C19.0066 51.1316 18.8515 50.6702 18.6696 50.2583C18.5921 50.4017 18.5714 50.5874 18.5151 50.7164C18.3605 51.0599 18.2054 51.3306 18.0303 51.6319L19.1332 51.6324L19.1332 51.633Z" fill="#5B7D96"/>
<path d="M19.2618 51.7326H17.8564L17.9429 51.5825C18.1159 51.2868 18.2699 51.0149 18.4238 50.6758C18.4456 50.6258 18.4612 50.5641 18.4779 50.5013C18.5025 50.409 18.5309 50.3028 18.5812 50.2106L18.6777 50.031L18.7608 50.2167C18.9432 50.628 19.1017 51.0955 19.2306 51.6075L19.2618 51.7326ZM18.2034 51.5336H19.0046C18.9092 51.175 18.7993 50.8404 18.6765 50.5335C18.6749 50.5408 18.6732 50.548 18.671 50.5541C18.652 50.6275 18.6319 50.6975 18.6062 50.7565C18.4763 51.0483 18.3446 51.2879 18.2034 51.5336Z" fill="#5B7D96"/>
<path d="M19.6399 51.6332C19.4921 51.0601 19.3303 50.5237 19.12 50.0484C19.0357 49.8733 18.8673 49.741 18.6703 49.741C18.4734 49.741 18.2976 49.8733 18.2207 50.0484C18.1225 50.2741 18.094 50.4603 18.0661 50.4892C17.8831 50.9106 17.6862 51.2719 17.4893 51.6343H19.64L19.6399 51.6332Z" fill="#5B7D96"/>
<path d="M19.7684 51.7328H17.3203L17.4001 51.5855C17.5959 51.2253 17.7934 50.8628 17.9725 50.4481L17.9926 50.4187C17.9909 50.4148 17.9987 50.3842 18.0104 50.3431C18.0339 50.2619 18.069 50.1407 18.127 50.0073C18.2235 49.7872 18.4411 49.6399 18.6687 49.6399C18.8902 49.6399 19.1022 49.7833 19.2088 50.004C19.3974 50.4287 19.5591 50.9223 19.736 51.6072L19.7684 51.7328ZM17.6562 51.5338H19.5096C19.3489 50.924 19.1983 50.4748 19.0276 50.0891C18.9556 49.939 18.8139 49.8406 18.6694 49.8406C18.5199 49.8406 18.3765 49.9401 18.3113 50.0891C18.2594 50.2092 18.227 50.3192 18.2041 50.3993C18.1841 50.4693 18.1723 50.511 18.1528 50.5405C17.9938 50.9029 17.823 51.2247 17.6562 51.5338Z" fill="#5B7D96"/>
<path d="M19.1761 43.5416C19.1761 41.799 18.9931 40.0924 18.6417 38.7505H19.6396C19.9905 40.178 20.1595 41.8378 20.1595 43.5416C20.1595 46.3172 19.7378 49.0977 18.9786 50.9115C18.852 51.1761 18.7115 51.3912 18.5926 51.6342H17.4754C17.6723 51.2723 17.8686 50.9154 18.0522 50.5035C18.7405 48.9287 19.1761 46.1959 19.1761 43.5416ZM17.4894 38.7505H18.6417C16.5332 43.0219 13.5814 44.1487 10.8962 45.3227C8.21152 46.5612 4.34603 47.5485 2.37815 51.6343H1.26758C3.37611 46.8114 7.88805 45.5513 10.4958 44.4134C13.1174 43.2333 15.5495 42.3249 17.4895 38.7506L17.4894 38.7505Z" fill="#5B7D96"/>
<path d="M18.6547 51.7327H17.3065L17.4191 51.5254C17.6015 51.1924 17.7884 50.8466 17.9597 50.4614C18.6379 48.9121 19.0758 46.1951 19.0758 43.5395C19.0758 41.8885 18.9113 40.3015 18.6095 39.0335C16.5864 42.9575 13.7778 44.1776 11.295 45.2566L10.9369 45.4122C10.5074 45.6107 10.05 45.8013 9.5653 46.0026C7.00553 47.0699 4.10448 48.2783 2.46846 51.6747L2.44113 51.7314H1.11523L1.17603 51.5919C3.03681 47.3355 6.71268 45.8463 9.39739 44.7589C9.7739 44.6066 10.1309 44.4616 10.4555 44.3198L10.9336 44.1052C13.3316 43.0357 15.5962 42.0263 17.4013 38.6999L17.4303 38.6482H19.7183L19.7367 38.7238C20.0792 40.1135 20.2599 41.7784 20.2599 43.5389C20.2599 46.3989 19.8153 49.1683 19.0718 50.9472C19.0015 51.0945 18.9296 51.2229 18.8593 51.3479C18.7985 51.4563 18.7388 51.5631 18.6825 51.6754L18.6547 51.7327ZM17.6428 51.5337H18.5303C18.5799 51.4381 18.6312 51.3458 18.6831 51.2519C18.7517 51.1301 18.822 51.005 18.8878 50.8678C19.6202 49.1167 20.0592 46.3757 20.0592 43.5407C20.0592 41.8292 19.8863 40.2082 19.56 38.849H18.7701C19.0964 40.1542 19.2755 41.8135 19.2755 43.5407C19.2755 46.2206 18.8309 48.9694 18.1426 50.5426C17.9831 50.9017 17.8107 51.2235 17.6428 51.5337ZM1.42116 51.5337H2.3153C3.9903 48.1111 7.03701 46.8415 9.48796 45.8198C9.9699 45.6192 10.4251 45.4296 10.854 45.2317L11.2149 45.075C13.8075 43.9487 16.4889 42.7847 18.4797 38.8496H17.5481C15.7152 42.1933 13.4322 43.2127 11.0146 44.29L10.5366 44.5046C10.2081 44.648 9.85051 44.7925 9.47233 44.9459C6.84959 46.0071 3.26866 47.4585 1.42116 51.5337Z" fill="#5B7D96"/>
<path d="M2.29292 51.6331C2.33531 51.5931 2.38384 51.5614 2.41954 51.5114C4.40198 47.5262 8.23849 46.51 10.8958 45.3289C13.5521 44.1343 16.4973 42.9602 18.5845 38.7495H17.4739C15.5339 42.3022 13.1304 43.2044 10.4948 44.4062C8.14035 45.469 4.24686 46.4958 1.95541 50.288C1.85724 50.1312 1.7797 49.9589 1.71611 49.7949C1.37864 48.8571 1.19625 47.5909 1.12596 46.3568C1.11146 45.9232 1.09807 45.5091 1.09807 45.1255C1.11258 42.3856 1.5973 40.3494 2.36316 38.7501H1.26709C0.550319 40.3988 0.100167 42.4462 0.100167 45.0433L0.0996094 45.125C0.0996094 45.5369 0.127503 45.9666 0.142006 46.399C0.197786 47.7115 0.394683 49.0422 0.789044 50.1518C1.02834 50.696 1.28102 51.1463 1.56216 51.5621C1.59005 51.5938 1.61794 51.6115 1.64638 51.6338L2.29287 51.6343L2.29292 51.6331Z" fill="#5B7D96"/>
<path d="M2.33326 51.7324H1.61258L1.58525 51.7118C1.54341 51.6807 1.51664 51.6607 1.48708 51.6274C1.17694 51.171 0.92816 50.7174 0.697244 50.1915C0.330214 49.157 0.104866 47.8501 0.0423927 46.4032C0.0373725 46.2547 0.0312367 46.1074 0.0245431 45.9618C0.0122716 45.6844 0 45.3981 0 45.1252V45.0429C0 42.6348 0.394917 40.5036 1.17473 38.7097L1.20094 38.6497H2.52125L2.4532 38.7926C1.62153 40.5291 1.21043 42.6004 1.19759 45.1257C1.19759 45.4893 1.21042 45.8806 1.22381 46.2959L1.22548 46.3531C1.28071 47.3181 1.42629 48.6945 1.81006 49.7606C1.85804 49.8835 1.90656 49.9941 1.95789 50.092C3.9002 46.9918 6.95962 45.7505 9.20252 44.8394C9.65043 44.6571 10.0727 44.4865 10.4525 44.3141L10.9546 44.0868C13.4389 42.9661 15.5854 41.9983 17.3854 38.7014L17.4133 38.6497H18.7442L18.6728 38.7931C16.6569 42.8599 13.7949 44.1389 11.2714 45.268L10.9356 45.4186C10.5407 45.5937 10.1256 45.7638 9.68666 45.9423C7.23342 46.9445 4.18014 48.1914 2.50728 51.554C2.46824 51.6123 2.42975 51.644 2.39628 51.6718C2.38345 51.6829 2.37174 51.6924 2.36002 51.7035L2.33326 51.7324ZM1.68064 51.5334H2.25572C2.26074 51.5295 2.26521 51.5256 2.27023 51.5212C2.29812 51.4978 2.32155 51.4773 2.33828 51.4534C4.03684 48.0363 7.1281 46.7728 9.61247 45.7583C10.0498 45.5799 10.4642 45.4109 10.8552 45.2369L11.191 45.0868C13.7748 43.9311 16.4455 42.7359 18.423 38.8487H17.5338C15.7065 42.1623 13.439 43.1857 11.0383 44.2691L10.5368 44.4953C10.1536 44.6693 9.72859 44.8422 9.27956 45.0234C6.90229 45.9884 3.94426 47.1897 2.0415 50.3382L1.95728 50.4778L1.87082 50.3399C1.78213 50.1971 1.70125 50.0308 1.62315 49.8291C1.23046 48.739 1.08152 47.341 1.02575 46.3604L1.02407 46.3003C1.01069 45.8845 0.997858 45.4904 0.997858 45.1235C1.01069 42.6365 1.40561 40.582 2.20549 38.8476L1.33364 38.8487C0.581735 40.6042 0.200755 42.6877 0.200755 45.0422V45.1245C0.200755 45.393 0.213026 45.6648 0.225298 45.9517C0.231434 46.099 0.238128 46.2463 0.243148 46.3958C0.303948 47.8217 0.525957 49.1085 0.883505 50.118C1.10662 50.6266 1.34982 51.0685 1.64545 51.5055C1.65103 51.5116 1.66498 51.5216 1.68059 51.5332L1.68064 51.5334Z" fill="#5B7D96"/>
<path d="M19.1332 64.5174C19.0066 64.0172 18.8515 63.5558 18.6696 63.1433C18.5921 63.2867 18.5714 63.4724 18.5151 63.6008C18.3605 63.9449 18.2054 64.2162 18.0303 64.5163H19.1332L19.1332 64.5174Z" fill="#5B7D96"/>
<path d="M19.2614 64.6156H17.8555L17.9425 64.4655C18.1143 64.172 18.2689 63.9013 18.4234 63.5588C18.4452 63.5094 18.4608 63.4482 18.4775 63.3848C18.5021 63.2914 18.5311 63.1864 18.5807 63.0941L18.6773 62.9146L18.7604 63.1002C18.9428 63.5105 19.1001 63.9785 19.2301 64.4899L19.2614 64.6156ZM18.203 64.4166H19.0042C18.9088 64.058 18.7989 63.7234 18.6761 63.4171C18.6745 63.4243 18.6728 63.4304 18.6706 63.4371C18.6516 63.5105 18.6315 63.5805 18.6058 63.6394C18.4753 63.9324 18.3431 64.1725 18.203 64.4166Z" fill="#5B7D96"/>
<path d="M19.6399 64.5173C19.4921 63.9453 19.3303 63.4078 19.12 62.933C19.0357 62.7579 18.8673 62.6245 18.6703 62.6245C18.4734 62.6245 18.2976 62.7574 18.2207 62.933C18.1225 63.1576 18.094 63.3444 18.0661 63.3727C17.8831 63.7952 17.6862 64.156 17.4893 64.5179H19.64L19.6399 64.5173Z" fill="#5B7D96"/>
<path d="M19.7684 64.6155H17.3203L17.4012 64.4682C17.5931 64.1152 17.7923 63.75 17.973 63.3309L17.9931 63.3014C17.9915 63.2975 17.9993 63.267 18.011 63.2258C18.0344 63.1452 18.0696 63.024 18.1276 62.8912C18.2241 62.6711 18.4428 62.5232 18.6693 62.5232C18.8902 62.5232 19.1028 62.6666 19.2093 62.8884C19.3974 63.3109 19.5597 63.8039 19.7366 64.4911L19.7684 64.6155ZM17.6562 64.4165H19.5096C19.3478 63.8051 19.1978 63.3559 19.0276 62.9724C18.9551 62.8223 18.8139 62.7239 18.6694 62.7239C18.5205 62.7239 18.3765 62.8234 18.3113 62.9724C18.2583 63.0925 18.227 63.202 18.203 63.2826C18.1841 63.3521 18.1712 63.3932 18.1528 63.4227C17.9938 63.7851 17.823 64.1069 17.6562 64.4165Z" fill="#5B7D96"/>
<path d="M19.1761 56.4244C19.1761 54.6823 18.9931 52.9763 18.6417 51.6344H19.6396C19.9905 53.0618 20.1595 54.7217 20.1595 56.4244C20.1595 59.201 19.7378 61.981 18.9786 63.7948C18.852 64.0594 18.7115 64.2745 18.5926 64.5169H17.4754C17.6723 64.1561 17.8686 63.7981 18.0522 63.3868C18.7405 61.812 19.1761 59.0792 19.1761 56.4244ZM17.4894 51.6338H18.6418C16.5333 55.9052 13.5814 57.032 10.8962 58.206C8.21152 59.4434 4.34603 60.4313 2.37815 64.517H1.26758C3.37611 59.6941 7.88805 58.4352 10.4958 57.2973C13.1174 56.1166 15.5495 55.2071 17.4895 51.6339L17.4894 51.6338Z" fill="#5B7D96"/>
<path d="M18.6547 64.6155H17.3065L17.4091 64.4276C17.5938 64.088 17.7856 63.7378 17.9591 63.3464C18.6374 61.7972 19.0753 59.0801 19.0753 56.4236C19.0753 54.7731 18.9107 53.1867 18.609 51.9187C16.5858 55.8427 13.7773 57.0628 11.2945 58.1417L10.9364 58.2974C10.5069 58.4959 10.0506 58.6854 9.56644 58.8872C7.0061 59.9545 4.10391 61.1624 2.46846 64.5594L2.44113 64.6161H1.11523L1.17603 64.4765C3.03681 60.2213 6.71225 58.7315 9.39625 57.6447C9.77443 57.4924 10.1298 57.3484 10.455 57.2056L10.9313 56.9921C13.3293 55.9226 15.595 54.912 17.4007 51.5856L17.4297 51.5339H19.7177L19.7361 51.6095C20.0786 52.9992 20.2594 54.6641 20.2594 56.4235C20.2594 59.2845 19.8148 62.0534 19.0713 63.8322C19.001 63.9806 18.9279 64.1096 18.8571 64.2352C18.7968 64.343 18.7371 64.4486 18.6819 64.5593L18.6547 64.6155ZM17.6429 64.4165H18.5303C18.5788 64.3215 18.6301 64.2309 18.682 64.1375C18.7506 64.0146 18.8209 63.889 18.8873 63.7511C19.6197 62.0001 20.0587 59.2591 20.0587 56.4235C20.0587 54.712 19.8858 53.0916 19.5594 51.733H18.7696C19.0959 53.0382 19.275 54.6969 19.275 56.4235C19.275 59.1046 18.8304 61.8528 18.1421 63.426C17.9831 63.7845 17.8108 64.1063 17.6429 64.4165ZM1.42119 64.4165H2.31533C3.99033 60.9939 7.03818 59.7237 9.48971 58.7027C9.97109 58.502 10.4251 58.313 10.8546 58.1151L11.2155 57.9583C13.8081 56.8321 16.4896 55.6681 18.4803 51.733H17.5488C15.7158 55.0766 13.4322 56.0961 11.0141 57.1745L10.5378 57.388C10.2092 57.5314 9.85169 57.6759 9.47183 57.8293C6.84966 58.8905 3.26869 60.3419 1.42119 64.4165Z" fill="#5B7D96"/>
<path d="M2.29236 64.5173C2.33476 64.4784 2.38328 64.4456 2.41898 64.3961C4.40142 60.411 8.23794 59.3948 10.8952 58.2136C13.5515 57.0191 16.4967 55.845 18.584 51.6343H17.4734C15.5334 55.1869 13.1298 56.088 10.4942 57.2909C8.13979 58.3532 4.2463 59.3806 1.95485 63.1727C1.85668 63.0148 1.77914 62.8436 1.71556 62.6785C1.37808 61.7413 1.19569 60.4745 1.1254 59.2404C1.1109 58.8079 1.09751 58.3933 1.09751 58.0103C1.11202 55.2697 1.59675 53.2342 2.36261 51.6348H1.26653C0.549761 53.2836 0.0996094 55.3309 0.0996094 57.9274V58.0103C0.0996094 58.4222 0.127503 58.8508 0.142006 59.2843C0.197786 60.5968 0.394683 61.9275 0.789044 63.0371C1.02834 63.5813 1.28102 64.0316 1.56216 64.4468C1.59005 64.4796 1.61794 64.4968 1.64638 64.5185L2.29231 64.5191L2.29236 64.5173Z" fill="#5B7D96"/>
<path d="M2.33271 64.6157H1.6137L1.58637 64.5957C1.54788 64.5679 1.51664 64.5457 1.48652 64.5095C1.17694 64.0554 0.929288 63.6018 0.697244 63.0754C0.330214 62.0409 0.104866 60.734 0.0423927 59.2871C0.0373725 59.1381 0.0312367 58.9908 0.0245431 58.844C0.0122716 58.5677 0 58.282 0 58.0091V57.9263C0 55.5182 0.394917 53.388 1.17473 51.5942L1.20094 51.5342H2.52125L2.4532 51.677C1.62153 53.4136 1.21043 55.4849 1.19759 58.0102C1.19759 58.3743 1.21042 58.7657 1.22381 59.1815L1.22548 59.2365C1.28071 60.2026 1.42628 61.5796 1.81006 62.644C1.85748 62.7669 1.906 62.8769 1.95789 62.9753C3.9012 59.8746 6.96133 58.6327 9.20537 57.7222C9.65217 57.5405 10.0739 57.3698 10.4526 57.1986L10.958 56.9701C13.4408 55.8495 15.5866 54.8816 17.3855 51.5864L17.4134 51.5347H18.7443L18.6729 51.6787C16.6571 55.7455 13.795 57.0245 11.2715 58.1536L10.9357 58.3042C10.5408 58.4794 10.1258 58.6494 9.6868 58.8279C7.23356 59.8301 4.18028 61.077 2.50743 64.4396C2.46726 64.4979 2.42822 64.5302 2.39475 64.5591L2.33271 64.6157ZM1.68008 64.4167H2.25686C2.26076 64.4134 2.26467 64.4095 2.26913 64.4062C2.29646 64.3839 2.32212 64.3617 2.33941 64.3367C4.0374 60.9202 7.12923 59.6572 9.6136 58.6416C10.0509 58.4632 10.4654 58.2942 10.8564 58.1202L11.1922 57.9701C13.7759 56.8144 16.4466 55.6192 18.4241 51.732H17.535C15.7087 55.0438 13.4424 56.0673 11.0433 57.1507L10.5379 57.3786C10.1547 57.5526 9.73079 57.7238 9.28342 57.9056C6.90615 58.8706 3.94641 60.0719 2.04322 63.222L1.95899 63.3615L1.87365 63.2236C1.78329 63.0786 1.70241 62.9112 1.62598 62.7122C1.23441 61.6227 1.08547 60.2251 1.02858 59.2435L1.02691 59.1863C1.01352 58.7705 1.00069 58.3758 1.00069 58.0078C1.01352 55.5207 1.40845 53.4662 2.20832 51.7318H1.33369C0.581783 53.4873 0.200803 55.5708 0.200803 57.925V58.0078C0.200803 58.2763 0.213074 58.5476 0.224788 58.8344C0.230924 58.9817 0.238176 59.1301 0.242638 59.2791C0.303438 60.705 0.525447 61.9917 0.882995 63.0013C1.10667 63.5104 1.34931 63.9529 1.64494 64.3876C1.65219 64.3965 1.66502 64.4054 1.68008 64.4165V64.4167Z" fill="#5B7D96"/>
<path d="M19.1332 77.4003C19.0066 76.8989 18.8515 76.4375 18.6696 76.0261C18.5921 76.1695 18.5714 76.3552 18.5151 76.4836C18.3605 76.8271 18.2054 77.099 18.0303 77.3991H19.1332L19.1332 77.4003Z" fill="#5B7D96"/>
<path d="M19.2614 77.4998H17.8555L17.9425 77.3497C18.1138 77.0579 18.2672 76.7878 18.4234 76.4431C18.4452 76.3936 18.4608 76.3325 18.4775 76.2691C18.5021 76.1757 18.5311 76.0707 18.5807 75.9784L18.6773 75.7988L18.7604 75.9845C18.9428 76.3942 19.1001 76.8617 19.2301 77.3742L19.2614 77.4998ZM18.203 77.3008H19.0042C18.9088 76.9423 18.7989 76.6065 18.6773 76.3014C18.675 76.3075 18.6733 76.3147 18.6711 76.3214C18.6521 76.3948 18.6321 76.4648 18.6064 76.5237C18.4742 76.8167 18.3397 77.0624 18.203 77.3008Z" fill="#5B7D96"/>
<path d="M1.98367 77.2436L1.88773 77.1007C1.5921 76.661 1.36061 76.2458 1.16259 75.7927C0.723052 74.5704 0.5797 73.14 0.535633 72.1555C0.378885 69.0843 0.768234 66.5706 1.72541 64.4743L1.9078 64.5571C0.964005 66.6244 0.581355 69.1065 0.736432 72.146C0.79779 73.5391 1.00976 74.7748 1.3489 75.7192C1.51847 76.1049 1.71537 76.4685 1.96081 76.8459C3.77204 73.36 6.89728 72.0881 9.41578 71.0642C9.85812 70.8841 10.2748 70.7146 10.6608 70.5422L11.0752 70.356C13.5206 69.2554 16.0485 68.1175 17.9434 64.4692L18.1219 64.561C16.1942 68.2703 13.6344 69.4227 11.1578 70.5372L10.7433 70.7246C10.3545 70.8986 9.93565 71.0687 9.49275 71.2488C6.96811 72.2749 3.82716 73.5534 2.06234 77.0883L1.98367 77.2436Z" fill="#5B7D96"/>
<path d="M19.6399 77.4003C19.4921 76.8272 19.3303 76.2908 19.12 75.8155C19.0357 75.6404 18.8673 75.5081 18.6703 75.5081C18.4734 75.5081 18.2976 75.6404 18.2207 75.8155C18.1225 76.0412 18.094 76.2274 18.0661 76.2563C17.8831 76.6776 17.6862 77.0395 17.4893 77.4014L19.64 77.4009L19.6399 77.4003Z" fill="#5B7D96"/>
<path d="M19.7684 77.4999H17.3203L17.4012 77.3526C17.5926 77.0012 17.7906 76.6377 17.973 76.2152L17.9931 76.1858C17.9915 76.1819 17.9993 76.1513 18.011 76.1102C18.0344 76.029 18.0696 75.9078 18.1276 75.7744C18.2241 75.5543 18.4417 75.407 18.6693 75.407C18.8908 75.407 19.1028 75.5504 19.2093 75.7711C19.3979 76.1958 19.5597 76.6894 19.7366 77.3743L19.7684 77.4999ZM17.6562 77.3009H19.5096C19.3489 76.6911 19.1983 76.2419 19.0276 75.8562C18.9556 75.7061 18.8139 75.6077 18.6694 75.6077C18.5199 75.6077 18.3765 75.7072 18.3113 75.8562C18.2594 75.9763 18.227 76.0863 18.2041 76.1664C18.1841 76.2364 18.1723 76.2781 18.1528 76.3076C17.9927 76.6717 17.823 76.9929 17.6562 77.3009Z" fill="#5B7D96"/>
<path d="M19.1761 69.3075C19.1761 67.5648 18.9931 65.8583 18.6417 64.5164H19.6396C19.9905 65.9444 20.1595 67.6043 20.1595 69.3075C20.1595 72.083 19.7378 74.8641 18.9786 76.6774C18.852 76.9425 18.7115 77.1571 18.5926 77.4H17.4754C17.6723 77.0393 17.8686 76.6813 18.0522 76.2694C18.7405 74.6946 19.1761 71.9618 19.1761 69.3075ZM17.4894 64.5164H18.6417C16.5332 68.7878 13.5814 69.9156 10.8962 71.0886C8.21152 72.3271 4.34603 73.3144 2.37815 77.4002H1.26758C3.37611 72.5773 7.88805 71.3183 10.4958 70.1804C13.1174 68.9997 15.5495 68.0902 17.4895 64.5165L17.4894 64.5164Z" fill="#5B7D96"/>
<path d="M18.6547 77.4998H17.3066L17.4092 77.3119C17.5938 76.9723 17.7857 76.6221 17.9592 76.2296C18.6375 74.6803 19.0753 71.9633 19.0753 69.3077C19.0753 67.6567 18.9108 66.0697 18.609 64.8018C16.5853 68.7274 13.7751 69.9475 11.2913 71.0265L10.936 71.1805C10.5064 71.3789 10.0491 71.5696 9.56432 71.7708C7.00455 72.8381 4.1035 74.0466 2.46749 77.443L2.44015 77.4997H1.11426L1.17506 77.3602C3.03584 73.1049 6.71127 71.6151 9.39528 70.5283C9.77346 70.376 10.1288 70.2321 10.454 70.0892L10.9303 69.8757C13.3283 68.8062 15.5941 67.7957 17.3997 64.4687L17.4287 64.417H19.7168L19.7352 64.4937C20.0776 65.8834 20.2584 67.5483 20.2584 69.3076C20.2584 72.1687 19.8138 74.9375 19.0703 76.7159C19 76.8643 18.9269 76.9933 18.8561 77.1189C18.7958 77.2268 18.7362 77.3324 18.6809 77.4441L18.6547 77.4998ZM17.6429 77.3008H18.5304C18.5789 77.2058 18.6302 77.1146 18.6821 77.0212C18.7507 76.8984 18.821 76.7733 18.8873 76.6349C19.6197 74.8849 20.0587 72.1434 20.0587 69.3078C20.0587 67.5969 19.8858 65.9759 19.5595 64.6162H18.7697C19.096 65.9214 19.275 67.5807 19.275 69.3078C19.275 71.9877 18.8305 74.7365 18.1421 76.3097C17.9832 76.6688 17.8108 76.9907 17.6429 77.3008ZM1.42124 77.3008H2.31538C3.99039 73.8782 7.03709 72.6086 9.48805 71.587C9.96999 71.3863 10.4251 71.1967 10.8541 70.9988L11.2105 70.8432C13.8054 69.717 16.4867 68.5529 18.4792 64.6167H17.5476C15.7147 67.9615 13.43 68.9804 11.0118 70.0588L10.536 70.2722C10.2075 70.4157 9.84995 70.5602 9.4701 70.7136C6.8495 71.7754 3.26845 73.2262 1.42109 77.3008H1.42124Z" fill="#5B7D96"/>
<path d="M2.29236 77.4002C2.33476 77.3602 2.38328 77.3285 2.41898 77.279C4.40142 73.2927 8.23794 72.2777 10.8952 71.0965C13.5515 69.9014 16.4967 68.7274 18.584 64.5166H17.4734C15.5334 68.0693 13.1298 68.9715 10.4942 70.1738C8.13979 71.2361 4.2463 72.2623 1.95485 76.055C1.85668 75.8983 1.77914 75.726 1.71556 75.562C1.37808 74.6248 1.19569 73.3579 1.1254 72.1239C1.1109 71.6914 1.09751 71.2767 1.09751 70.8937C1.11202 68.1532 1.59675 66.1171 2.36261 64.5177H1.26653C0.549761 66.1676 0.0996094 68.2138 0.0996094 70.8109V70.8937C0.0996094 71.3051 0.127503 71.7342 0.142006 72.1672C0.197786 73.4797 0.394683 74.8116 0.789044 75.9205C1.02834 76.4648 1.28102 76.915 1.56216 77.3303C1.59005 77.362 1.61794 77.3797 1.64638 77.402H2.29231L2.29236 77.4002Z" fill="#5B7D96"/>
<path d="M2.33326 77.4998H1.61258L1.58525 77.4793C1.54341 77.4481 1.51664 77.4281 1.48708 77.3948C1.17694 76.9395 0.928717 76.4865 0.697244 75.9595C0.330214 74.925 0.104866 73.6181 0.0423927 72.17C0.0373725 72.021 0.0312367 71.8743 0.0245431 71.7275C0.0122716 71.4513 0 71.165 0 70.8926V70.8098C0 68.4022 0.394917 66.2715 1.17473 64.4766L1.20094 64.4166H2.52125L2.4532 64.5594C1.62153 66.296 1.21043 68.3672 1.19759 70.8932C1.19759 71.2573 1.21042 71.6486 1.22381 72.0644L1.22548 72.1194C1.28071 73.0856 1.42629 74.4625 1.81006 75.527C1.85804 75.6498 1.90656 75.7604 1.95789 75.8583C3.9002 72.7576 6.96076 71.5157 9.20423 70.6052C9.65103 70.4245 10.0727 70.2527 10.4526 70.0815L10.9563 69.8536C13.4402 68.7324 15.5854 67.764 17.3854 64.4682L17.4133 64.4165H18.7442L18.6728 64.5605C16.6569 68.6261 13.7966 69.9063 11.2725 71.0354L10.935 71.1866C10.5401 71.3617 10.124 71.5318 9.68501 71.7108C7.23177 72.7125 4.1795 73.9588 2.50664 77.3219C2.4676 77.3792 2.42966 77.4114 2.39619 77.4392C2.38336 77.4498 2.37054 77.4598 2.35938 77.4709L2.33326 77.4998ZM1.68064 77.3008H2.25572C2.26074 77.2969 2.26521 77.2919 2.27078 77.2881C2.29812 77.2647 2.3221 77.2452 2.33884 77.2213C4.03683 73.8043 7.12808 72.5419 9.6126 71.5274C10.051 71.3479 10.4649 71.1794 10.8559 71.0054L11.1934 70.8548C13.7766 69.6985 16.4473 68.5029 18.4242 64.6167H17.535C15.7088 67.9291 13.4408 68.9526 11.0417 70.0371L10.538 70.2645C10.1548 70.4384 9.73085 70.6102 9.28237 70.792C6.90509 71.7564 3.94649 72.9572 2.0433 76.1068L1.95908 76.2463L1.87262 76.1085C1.78393 75.9656 1.70305 75.7994 1.62495 75.5976C1.23338 74.5081 1.08444 73.1106 1.02755 72.1289L1.02587 72.0717C1.01249 71.6559 0.999658 71.2612 0.999658 70.8932C1.01249 68.4061 1.40741 66.3505 2.20729 64.6168L1.33377 64.6157C0.581866 66.3723 0.200886 68.4551 0.200886 70.8093V70.8921C0.200886 71.1606 0.213157 71.4319 0.224871 71.7187C0.231007 71.866 0.238258 72.0133 0.242721 72.1629C0.303521 73.5892 0.52553 74.8761 0.883078 75.8861C1.10675 76.3953 1.34939 76.8378 1.64502 77.2725C1.65116 77.2792 1.66502 77.2886 1.68064 77.3008Z" fill="#5B7D96"/>
</svg>
